<svg width="1178" height="20" viewBox="0 0 1178 20" fill="none" xmlns="http://www.w3.org/2000/svg">
<line x1="570.814" y1="0.4375" x2="570.814" y2="6.46016" stroke="white" stroke-width="2"/>
<line x1="589.186" y1="0.4375" x2="589.186" y2="6.46016" stroke="white" stroke-width="2"/>
<line x1="607.555" y1="0.4375" x2="607.555" y2="6.46016" stroke="white" stroke-width="2"/>
<line x1="625.924" y1="0.4375" x2="625.924" y2="6.46016" stroke="white" stroke-width="2"/>
<line x1="644.293" y1="0.4375" x2="644.293" y2="6.46016" stroke="white" stroke-width="2"/>
<line x1="662.662" y1="0.4375" x2="662.662" y2="6.46016" stroke="white" stroke-width="2"/>
<line x1="681.031" y1="0.4375" x2="681.031" y2="6.46016" stroke="white" stroke-width="2"/>
<line x1="699.4" y1="0.4375" x2="699.4" y2="6.46016" stroke="white" stroke-width="2"/>
<line x1="717.77" y1="0.4375" x2="717.77" y2="6.46016" stroke="white" stroke-width="2"/>
<line x1="736.139" y1="0.4375" x2="736.139" y2="6.46016" stroke="white" stroke-width="2"/>
<line x1="754.508" y1="0.4375" x2="754.508" y2="6.46016" stroke="white" stroke-width="2"/>
<line x1="772.877" y1="0.4375" x2="772.877" y2="6.46016" stroke="white" stroke-width="2"/>
<line x1="791.246" y1="0.4375" x2="791.246" y2="6.46016" stroke="white" stroke-width="2"/>
<line x1="809.615" y1="0.4375" x2="809.615" y2="6.46016" stroke="white" stroke-width="2"/>
<line x1="827.984" y1="0.4375" x2="827.984" y2="6.46016" stroke="white" stroke-width="2"/>
<line x1="846.354" y1="0.4375" x2="846.354" y2="6.46016" stroke="white" stroke-width="2"/>
<line x1="864.723" y1="0.4375" x2="864.723" y2="6.46016" stroke="white" stroke-width="2"/>
<line x1="883.092" y1="0.4375" x2="883.092" y2="6.46016" stroke="white" stroke-width="2"/>
<line x1="901.461" y1="0.4375" x2="901.461" y2="6.46016" stroke="white" stroke-width="2"/>
<line x1="919.83" y1="0.4375" x2="919.83" y2="6.46016" stroke="white" stroke-width="2"/>
<line x1="938.199" y1="0.4375" x2="938.199" y2="6.46016" stroke="white" stroke-width="2"/>
<line x1="956.568" y1="0.4375" x2="956.568" y2="6.46016" stroke="white" stroke-width="2"/>
<line x1="974.938" y1="0.4375" x2="974.938" y2="6.46016" stroke="white" stroke-width="2"/>
<line x1="993.309" y1="0.4375" x2="993.309" y2="6.46016" stroke="white" stroke-width="2"/>
<line x1="1011.68" y1="0.4375" x2="1011.68" y2="6.46016" stroke="white" stroke-width="2"/>
<line x1="1030.05" y1="0.4375" x2="1030.05" y2="6.46016" stroke="white" stroke-width="2"/>
<line x1="1048.42" y1="0.4375" x2="1048.42" y2="6.46016" stroke="white" stroke-width="2"/>
<line x1="1066.79" y1="0.4375" x2="1066.79" y2="6.46016" stroke="white" stroke-width="2"/>
<line x1="1085.15" y1="0.4375" x2="1085.15" y2="6.46016" stroke="white" stroke-width="2"/>
<line x1="1103.52" y1="0.4375" x2="1103.52" y2="6.46016" stroke="white" stroke-width="2"/>
<line x1="1121.89" y1="0.4375" x2="1121.89" y2="6.46016" stroke="white" stroke-width="2"/>
<line x1="1140.26" y1="0.4375" x2="1140.26" y2="6.46016" stroke="white" stroke-width="2"/>
<line x1="1158.63" y1="0.4375" x2="1158.63" y2="6.46016" stroke="white" stroke-width="2"/>
<line x1="1177" y1="0.4375" x2="1177" y2="6.46016" stroke="white" stroke-width="2"/>
<line x1="19.7383" y1="0.4375" x2="19.7383" y2="6.46016" stroke="white" stroke-width="2"/>
<line x1="38.1074" y1="0.4375" x2="38.1074" y2="6.46016" stroke="white" stroke-width="2"/>
<line x1="56.4766" y1="0.4375" x2="56.4766" y2="6.46016" stroke="white" stroke-width="2"/>
<line x1="74.8457" y1="0.4375" x2="74.8457" y2="6.46016" stroke="white" stroke-width="2"/>
<line x1="93.2148" y1="0.4375" x2="93.2148" y2="6.46016" stroke="white" stroke-width="2"/>
<line x1="111.584" y1="0.4375" x2="111.584" y2="6.46016" stroke="white" stroke-width="2"/>
<line x1="1.36914" y1="0.4375" x2="1.36914" y2="6.46016" stroke="white" stroke-width="2"/>
<line x1="129.953" y1="0.4375" x2="129.953" y2="6.46016" stroke="white" stroke-width="2"/>
<line x1="148.322" y1="0.4375" x2="148.322" y2="6.46016" stroke="white" stroke-width="2"/>
<line x1="166.691" y1="0.4375" x2="166.691" y2="6.46016" stroke="white" stroke-width="2"/>
<line x1="185.062" y1="0.4375" x2="185.062" y2="6.46016" stroke="white" stroke-width="2"/>
<line x1="203.432" y1="0.4375" x2="203.432" y2="6.46016" stroke="white" stroke-width="2"/>
<line x1="221.801" y1="0.4375" x2="221.801" y2="6.46016" stroke="white" stroke-width="2"/>
<line x1="240.17" y1="0.4375" x2="240.17" y2="6.46016" stroke="white" stroke-width="2"/>
<line x1="258.539" y1="0.4375" x2="258.539" y2="6.46016" stroke="white" stroke-width="2"/>
<line x1="276.908" y1="0.4375" x2="276.908" y2="6.46016" stroke="white" stroke-width="2"/>
<line x1="295.277" y1="0.4375" x2="295.277" y2="6.46016" stroke="white" stroke-width="2"/>
<line x1="313.646" y1="0.4375" x2="313.646" y2="6.46016" stroke="white" stroke-width="2"/>
<line x1="332.016" y1="0.4375" x2="332.016" y2="6.46016" stroke="white" stroke-width="2"/>
<line x1="350.385" y1="0.4375" x2="350.385" y2="6.46016" stroke="white" stroke-width="2"/>
<line x1="368.754" y1="0.4375" x2="368.754" y2="6.46016" stroke="white" stroke-width="2"/>
<line x1="387.123" y1="0.4375" x2="387.123" y2="6.46016" stroke="white" stroke-width="2"/>
<line x1="405.492" y1="0.4375" x2="405.492" y2="6.46016" stroke="white" stroke-width="2"/>
<line x1="423.861" y1="0.4375" x2="423.861" y2="6.46016" stroke="white" stroke-width="2"/>
<line x1="442.23" y1="0.4375" x2="442.23" y2="6.46016" stroke="white" stroke-width="2"/>
<line x1="460.6" y1="0.4375" x2="460.6" y2="6.46016" stroke="white" stroke-width="2"/>
<line x1="478.969" y1="0.4375" x2="478.969" y2="6.46016" stroke="white" stroke-width="2"/>
<line x1="497.338" y1="0.4375" x2="497.338" y2="6.46016" stroke="white" stroke-width="2"/>
<line x1="515.707" y1="0.4375" x2="515.707" y2="6.46016" stroke="white" stroke-width="2"/>
<line x1="534.076" y1="0.4375" x2="534.076" y2="6.46016" stroke="white" stroke-width="2"/>
<line x1="552.445" y1="0.4375" x2="552.445" y2="6.46016" stroke="white" stroke-width="2"/>
<path d="M576.056 13.6895V15.207C576.056 16.0228 575.983 16.7109 575.837 17.2715C575.691 17.832 575.481 18.2832 575.208 18.625C574.935 18.9668 574.604 19.2152 574.217 19.3701C573.834 19.5205 573.401 19.5957 572.918 19.5957C572.535 19.5957 572.182 19.5479 571.858 19.4521C571.535 19.3564 571.243 19.2038 570.983 18.9941C570.728 18.7799 570.509 18.502 570.327 18.1602C570.145 17.8184 570.006 17.4036 569.91 16.916C569.814 16.4284 569.767 15.8587 569.767 15.207V13.6895C569.767 12.8737 569.84 12.1901 569.985 11.6387C570.136 11.0872 570.348 10.6452 570.621 10.3125C570.895 9.97526 571.223 9.73372 571.605 9.58789C571.993 9.44206 572.426 9.36914 572.904 9.36914C573.292 9.36914 573.647 9.41699 573.971 9.5127C574.299 9.60384 574.59 9.75195 574.846 9.95703C575.101 10.1576 575.317 10.4264 575.495 10.7637C575.677 11.0964 575.816 11.5042 575.912 11.9873C576.008 12.4704 576.056 13.0378 576.056 13.6895ZM574.784 15.4121V13.4775C574.784 13.0309 574.757 12.639 574.702 12.3018C574.652 11.96 574.577 11.6683 574.477 11.4268C574.376 11.1852 574.249 10.9893 574.094 10.8389C573.943 10.6885 573.768 10.5791 573.567 10.5107C573.371 10.4378 573.15 10.4014 572.904 10.4014C572.604 10.4014 572.337 10.4583 572.104 10.5723C571.872 10.6816 571.676 10.8571 571.517 11.0986C571.362 11.3402 571.243 11.6569 571.161 12.0488C571.079 12.4408 571.038 12.917 571.038 13.4775V15.4121C571.038 15.8587 571.063 16.2529 571.113 16.5947C571.168 16.9365 571.248 17.2327 571.353 17.4834C571.457 17.7295 571.585 17.9323 571.735 18.0918C571.886 18.2513 572.059 18.3698 572.255 18.4473C572.455 18.5202 572.676 18.5566 572.918 18.5566C573.228 18.5566 573.499 18.4974 573.731 18.3789C573.964 18.2604 574.158 18.0758 574.312 17.8252C574.472 17.57 574.59 17.2441 574.668 16.8477C574.745 16.4466 574.784 15.9681 574.784 15.4121Z" fill="white"/>
<path d="M665.81 9.45117V19.459H664.545V11.0303L661.995 11.96V10.8184L665.611 9.45117H665.81ZM675.776 13.6895V15.207C675.776 16.0228 675.703 16.7109 675.558 17.2715C675.412 17.832 675.202 18.2832 674.929 18.625C674.655 18.9668 674.325 19.2152 673.938 19.3701C673.555 19.5205 673.122 19.5957 672.639 19.5957C672.256 19.5957 671.903 19.5479 671.579 19.4521C671.256 19.3564 670.964 19.2038 670.704 18.9941C670.449 18.7799 670.23 18.502 670.048 18.1602C669.866 17.8184 669.727 17.4036 669.631 16.916C669.535 16.4284 669.487 15.8587 669.487 15.207V13.6895C669.487 12.8737 669.56 12.1901 669.706 11.6387C669.856 11.0872 670.068 10.6452 670.342 10.3125C670.615 9.97526 670.943 9.73372 671.326 9.58789C671.714 9.44206 672.146 9.36914 672.625 9.36914C673.012 9.36914 673.368 9.41699 673.691 9.5127C674.02 9.60384 674.311 9.75195 674.566 9.95703C674.822 10.1576 675.038 10.4264 675.216 10.7637C675.398 11.0964 675.537 11.5042 675.633 11.9873C675.729 12.4704 675.776 13.0378 675.776 13.6895ZM674.505 15.4121V13.4775C674.505 13.0309 674.478 12.639 674.423 12.3018C674.373 11.96 674.298 11.6683 674.197 11.4268C674.097 11.1852 673.969 10.9893 673.814 10.8389C673.664 10.6885 673.489 10.5791 673.288 10.5107C673.092 10.4378 672.871 10.4014 672.625 10.4014C672.324 10.4014 672.058 10.4583 671.825 10.5723C671.593 10.6816 671.397 10.8571 671.237 11.0986C671.082 11.3402 670.964 11.6569 670.882 12.0488C670.8 12.4408 670.759 12.917 670.759 13.4775V15.4121C670.759 15.8587 670.784 16.2529 670.834 16.5947C670.889 16.9365 670.968 17.2327 671.073 17.4834C671.178 17.7295 671.306 17.9323 671.456 18.0918C671.606 18.2513 671.78 18.3698 671.976 18.4473C672.176 18.5202 672.397 18.5566 672.639 18.5566C672.949 18.5566 673.22 18.4974 673.452 18.3789C673.685 18.2604 673.878 18.0758 674.033 17.8252C674.193 17.57 674.311 17.2441 674.389 16.8477C674.466 16.4466 674.505 15.9681 674.505 15.4121ZM683.651 13.6895V15.207C683.651 16.0228 683.578 16.7109 683.433 17.2715C683.287 17.832 683.077 18.2832 682.804 18.625C682.53 18.9668 682.2 19.2152 681.812 19.3701C681.43 19.5205 680.997 19.5957 680.514 19.5957C680.131 19.5957 679.778 19.5479 679.454 19.4521C679.131 19.3564 678.839 19.2038 678.579 18.9941C678.324 18.7799 678.105 18.502 677.923 18.1602C677.741 17.8184 677.602 17.4036 677.506 16.916C677.41 16.4284 677.362 15.8587 677.362 15.207V13.6895C677.362 12.8737 677.435 12.1901 677.581 11.6387C677.731 11.0872 677.943 10.6452 678.217 10.3125C678.49 9.97526 678.818 9.73372 679.201 9.58789C679.589 9.44206 680.021 9.36914 680.5 9.36914C680.887 9.36914 681.243 9.41699 681.566 9.5127C681.895 9.60384 682.186 9.75195 682.441 9.95703C682.697 10.1576 682.913 10.4264 683.091 10.7637C683.273 11.0964 683.412 11.5042 683.508 11.9873C683.604 12.4704 683.651 13.0378 683.651 13.6895ZM682.38 15.4121V13.4775C682.38 13.0309 682.353 12.639 682.298 12.3018C682.248 11.96 682.173 11.6683 682.072 11.4268C681.972 11.1852 681.844 10.9893 681.689 10.8389C681.539 10.6885 681.364 10.5791 681.163 10.5107C680.967 10.4378 680.746 10.4014 680.5 10.4014C680.199 10.4014 679.933 10.4583 679.7 10.5723C679.468 10.6816 679.272 10.8571 679.112 11.0986C678.957 11.3402 678.839 11.6569 678.757 12.0488C678.675 12.4408 678.634 12.917 678.634 13.4775V15.4121C678.634 15.8587 678.659 16.2529 678.709 16.5947C678.764 16.9365 678.843 17.2327 678.948 17.4834C679.053 17.7295 679.181 17.9323 679.331 18.0918C679.481 18.2513 679.655 18.3698 679.851 18.4473C680.051 18.5202 680.272 18.5566 680.514 18.5566C680.824 18.5566 681.095 18.4974 681.327 18.3789C681.56 18.2604 681.753 18.0758 681.908 17.8252C682.068 17.57 682.186 17.2441 682.264 16.8477C682.341 16.4466 682.38 15.9681 682.38 15.4121Z" fill="white"/>
<path d="M481.564 14.708V15.7471H478.229V14.708H481.564ZM486.821 9.45117V19.459H485.557V11.0303L483.007 11.96V10.8184L486.623 9.45117H486.821ZM496.788 13.6895V15.207C496.788 16.0228 496.715 16.7109 496.569 17.2715C496.424 17.832 496.214 18.2832 495.94 18.625C495.667 18.9668 495.337 19.2152 494.949 19.3701C494.566 19.5205 494.133 19.5957 493.65 19.5957C493.268 19.5957 492.914 19.5479 492.591 19.4521C492.267 19.3564 491.976 19.2038 491.716 18.9941C491.461 18.7799 491.242 18.502 491.06 18.1602C490.877 17.8184 490.738 17.4036 490.643 16.916C490.547 16.4284 490.499 15.8587 490.499 15.207V13.6895C490.499 12.8737 490.572 12.1901 490.718 11.6387C490.868 11.0872 491.08 10.6452 491.354 10.3125C491.627 9.97526 491.955 9.73372 492.338 9.58789C492.725 9.44206 493.158 9.36914 493.637 9.36914C494.024 9.36914 494.38 9.41699 494.703 9.5127C495.031 9.60384 495.323 9.75195 495.578 9.95703C495.833 10.1576 496.05 10.4264 496.228 10.7637C496.41 11.0964 496.549 11.5042 496.645 11.9873C496.74 12.4704 496.788 13.0378 496.788 13.6895ZM495.517 15.4121V13.4775C495.517 13.0309 495.489 12.639 495.435 12.3018C495.384 11.96 495.309 11.6683 495.209 11.4268C495.109 11.1852 494.981 10.9893 494.826 10.8389C494.676 10.6885 494.5 10.5791 494.3 10.5107C494.104 10.4378 493.883 10.4014 493.637 10.4014C493.336 10.4014 493.069 10.4583 492.837 10.5723C492.604 10.6816 492.409 10.8571 492.249 11.0986C492.094 11.3402 491.976 11.6569 491.894 12.0488C491.812 12.4408 491.771 12.917 491.771 13.4775V15.4121C491.771 15.8587 491.796 16.2529 491.846 16.5947C491.9 16.9365 491.98 17.2327 492.085 17.4834C492.19 17.7295 492.317 17.9323 492.468 18.0918C492.618 18.2513 492.791 18.3698 492.987 18.4473C493.188 18.5202 493.409 18.5566 493.65 18.5566C493.96 18.5566 494.231 18.4974 494.464 18.3789C494.696 18.2604 494.89 18.0758 495.045 17.8252C495.204 17.57 495.323 17.2441 495.4 16.8477C495.478 16.4466 495.517 15.9681 495.517 15.4121ZM504.663 13.6895V15.207C504.663 16.0228 504.59 16.7109 504.444 17.2715C504.299 17.832 504.089 18.2832 503.815 18.625C503.542 18.9668 503.212 19.2152 502.824 19.3701C502.441 19.5205 502.008 19.5957 501.525 19.5957C501.143 19.5957 500.789 19.5479 500.466 19.4521C500.142 19.3564 499.851 19.2038 499.591 18.9941C499.336 18.7799 499.117 18.502 498.935 18.1602C498.752 17.8184 498.613 17.4036 498.518 16.916C498.422 16.4284 498.374 15.8587 498.374 15.207V13.6895C498.374 12.8737 498.447 12.1901 498.593 11.6387C498.743 11.0872 498.955 10.6452 499.229 10.3125C499.502 9.97526 499.83 9.73372 500.213 9.58789C500.6 9.44206 501.033 9.36914 501.512 9.36914C501.899 9.36914 502.255 9.41699 502.578 9.5127C502.906 9.60384 503.198 9.75195 503.453 9.95703C503.708 10.1576 503.925 10.4264 504.103 10.7637C504.285 11.0964 504.424 11.5042 504.52 11.9873C504.615 12.4704 504.663 13.0378 504.663 13.6895ZM503.392 15.4121V13.4775C503.392 13.0309 503.364 12.639 503.31 12.3018C503.259 11.96 503.184 11.6683 503.084 11.4268C502.984 11.1852 502.856 10.9893 502.701 10.8389C502.551 10.6885 502.375 10.5791 502.175 10.5107C501.979 10.4378 501.758 10.4014 501.512 10.4014C501.211 10.4014 500.944 10.4583 500.712 10.5723C500.479 10.6816 500.284 10.8571 500.124 11.0986C499.969 11.3402 499.851 11.6569 499.769 12.0488C499.687 12.4408 499.646 12.917 499.646 13.4775V15.4121C499.646 15.8587 499.671 16.2529 499.721 16.5947C499.775 16.9365 499.855 17.2327 499.96 17.4834C500.065 17.7295 500.192 17.9323 500.343 18.0918C500.493 18.2513 500.666 18.3698 500.862 18.4473C501.063 18.5202 501.284 18.5566 501.525 18.5566C501.835 18.5566 502.106 18.4974 502.339 18.3789C502.571 18.2604 502.765 18.0758 502.92 17.8252C503.079 17.57 503.198 17.2441 503.275 16.8477C503.353 16.4466 503.392 15.9681 503.392 15.4121Z" fill="white"/>
<path d="M389.719 14.708V15.7471H386.383V14.708H389.719ZM397.341 18.4199V19.459H390.826V18.5498L394.087 14.9199C394.488 14.4733 394.798 14.0951 395.017 13.7852C395.24 13.4707 395.395 13.1904 395.481 12.9443C395.573 12.6937 395.618 12.4385 395.618 12.1787C395.618 11.8506 395.55 11.5544 395.413 11.29C395.281 11.0212 395.085 10.807 394.825 10.6475C394.565 10.488 394.251 10.4082 393.882 10.4082C393.44 10.4082 393.071 10.4948 392.774 10.668C392.483 10.8366 392.264 11.0736 392.118 11.3789C391.972 11.6842 391.899 12.0352 391.899 12.4316H390.635C390.635 11.8711 390.758 11.3584 391.004 10.8936C391.25 10.4287 391.615 10.0596 392.098 9.78613C392.581 9.50814 393.175 9.36914 393.882 9.36914C394.511 9.36914 395.049 9.48079 395.495 9.7041C395.942 9.92285 396.284 10.2327 396.521 10.6338C396.762 11.0303 396.883 11.4951 396.883 12.0283C396.883 12.32 396.833 12.6162 396.732 12.917C396.637 13.2132 396.502 13.5094 396.329 13.8057C396.16 14.1019 395.962 14.3936 395.734 14.6807C395.511 14.9678 395.272 15.2503 395.017 15.5283L392.351 18.4199H397.341ZM404.942 13.6895V15.207C404.942 16.0228 404.869 16.7109 404.724 17.2715C404.578 17.832 404.368 18.2832 404.095 18.625C403.821 18.9668 403.491 19.2152 403.104 19.3701C402.721 19.5205 402.288 19.5957 401.805 19.5957C401.422 19.5957 401.069 19.5479 400.745 19.4521C400.422 19.3564 400.13 19.2038 399.87 18.9941C399.615 18.7799 399.396 18.502 399.214 18.1602C399.032 17.8184 398.893 17.4036 398.797 16.916C398.701 16.4284 398.653 15.8587 398.653 15.207V13.6895C398.653 12.8737 398.726 12.1901 398.872 11.6387C399.022 11.0872 399.234 10.6452 399.508 10.3125C399.781 9.97526 400.109 9.73372 400.492 9.58789C400.88 9.44206 401.312 9.36914 401.791 9.36914C402.178 9.36914 402.534 9.41699 402.857 9.5127C403.186 9.60384 403.477 9.75195 403.732 9.95703C403.988 10.1576 404.204 10.4264 404.382 10.7637C404.564 11.0964 404.703 11.5042 404.799 11.9873C404.895 12.4704 404.942 13.0378 404.942 13.6895ZM403.671 15.4121V13.4775C403.671 13.0309 403.644 12.639 403.589 12.3018C403.539 11.96 403.464 11.6683 403.363 11.4268C403.263 11.1852 403.135 10.9893 402.98 10.8389C402.83 10.6885 402.655 10.5791 402.454 10.5107C402.258 10.4378 402.037 10.4014 401.791 10.4014C401.49 10.4014 401.224 10.4583 400.991 10.5723C400.759 10.6816 400.563 10.8571 400.403 11.0986C400.248 11.3402 400.13 11.6569 400.048 12.0488C399.966 12.4408 399.925 12.917 399.925 13.4775V15.4121C399.925 15.8587 399.95 16.2529 400 16.5947C400.055 16.9365 400.134 17.2327 400.239 17.4834C400.344 17.7295 400.472 17.9323 400.622 18.0918C400.772 18.2513 400.946 18.3698 401.142 18.4473C401.342 18.5202 401.563 18.5566 401.805 18.5566C402.115 18.5566 402.386 18.4974 402.618 18.3789C402.851 18.2604 403.044 18.0758 403.199 17.8252C403.359 17.57 403.477 17.2441 403.555 16.8477C403.632 16.4466 403.671 15.9681 403.671 15.4121ZM412.817 13.6895V15.207C412.817 16.0228 412.744 16.7109 412.599 17.2715C412.453 17.832 412.243 18.2832 411.97 18.625C411.696 18.9668 411.366 19.2152 410.979 19.3701C410.596 19.5205 410.163 19.5957 409.68 19.5957C409.297 19.5957 408.944 19.5479 408.62 19.4521C408.297 19.3564 408.005 19.2038 407.745 18.9941C407.49 18.7799 407.271 18.502 407.089 18.1602C406.907 17.8184 406.768 17.4036 406.672 16.916C406.576 16.4284 406.528 15.8587 406.528 15.207V13.6895C406.528 12.8737 406.601 12.1901 406.747 11.6387C406.897 11.0872 407.109 10.6452 407.383 10.3125C407.656 9.97526 407.984 9.73372 408.367 9.58789C408.755 9.44206 409.188 9.36914 409.666 9.36914C410.053 9.36914 410.409 9.41699 410.732 9.5127C411.061 9.60384 411.352 9.75195 411.607 9.95703C411.863 10.1576 412.079 10.4264 412.257 10.7637C412.439 11.0964 412.578 11.5042 412.674 11.9873C412.77 12.4704 412.817 13.0378 412.817 13.6895ZM411.546 15.4121V13.4775C411.546 13.0309 411.519 12.639 411.464 12.3018C411.414 11.96 411.339 11.6683 411.238 11.4268C411.138 11.1852 411.01 10.9893 410.855 10.8389C410.705 10.6885 410.53 10.5791 410.329 10.5107C410.133 10.4378 409.912 10.4014 409.666 10.4014C409.365 10.4014 409.099 10.4583 408.866 10.5723C408.634 10.6816 408.438 10.8571 408.278 11.0986C408.123 11.3402 408.005 11.6569 407.923 12.0488C407.841 12.4408 407.8 12.917 407.8 13.4775V15.4121C407.8 15.8587 407.825 16.2529 407.875 16.5947C407.93 16.9365 408.009 17.2327 408.114 17.4834C408.219 17.7295 408.347 17.9323 408.497 18.0918C408.647 18.2513 408.821 18.3698 409.017 18.4473C409.217 18.5202 409.438 18.5566 409.68 18.5566C409.99 18.5566 410.261 18.4974 410.493 18.3789C410.726 18.2604 410.919 18.0758 411.074 17.8252C411.234 17.57 411.352 17.2441 411.43 16.8477C411.507 16.4466 411.546 15.9681 411.546 15.4121Z" fill="white"/>
<path d="M297.873 14.708V15.7471H294.537V14.708H297.873ZM300.819 13.8604H301.722C302.164 13.8604 302.528 13.7874 302.815 13.6416C303.107 13.4912 303.324 13.2884 303.465 13.0332C303.611 12.7734 303.684 12.4818 303.684 12.1582C303.684 11.7754 303.62 11.4541 303.492 11.1943C303.365 10.9346 303.173 10.7386 302.918 10.6064C302.663 10.4743 302.339 10.4082 301.947 10.4082C301.592 10.4082 301.277 10.4788 301.004 10.6201C300.735 10.7568 300.523 10.9528 300.368 11.208C300.218 11.4632 300.143 11.764 300.143 12.1104H298.878C298.878 11.6045 299.006 11.1442 299.261 10.7295C299.516 10.3148 299.874 9.98438 300.334 9.73828C300.799 9.49219 301.337 9.36914 301.947 9.36914C302.549 9.36914 303.075 9.47624 303.526 9.69043C303.978 9.90007 304.328 10.2145 304.579 10.6338C304.83 11.0485 304.955 11.5658 304.955 12.1855C304.955 12.4362 304.896 12.7051 304.777 12.9922C304.663 13.2747 304.483 13.5391 304.237 13.7852C303.996 14.0312 303.681 14.234 303.294 14.3936C302.907 14.5485 302.442 14.626 301.899 14.626H300.819V13.8604ZM300.819 14.8994V14.1406H301.899C302.533 14.1406 303.057 14.2158 303.472 14.3662C303.886 14.5166 304.212 14.7171 304.449 14.9678C304.691 15.2184 304.859 15.4941 304.955 15.7949C305.055 16.0911 305.105 16.3874 305.105 16.6836C305.105 17.1484 305.026 17.5609 304.866 17.9209C304.711 18.2809 304.49 18.5863 304.203 18.8369C303.921 19.0876 303.588 19.2767 303.205 19.4043C302.822 19.5319 302.405 19.5957 301.954 19.5957C301.521 19.5957 301.113 19.5342 300.73 19.4111C300.352 19.2881 300.017 19.1104 299.726 18.8779C299.434 18.641 299.206 18.3516 299.042 18.0098C298.878 17.6634 298.796 17.2692 298.796 16.8271H300.061C300.061 17.1735 300.136 17.4766 300.286 17.7363C300.441 17.9961 300.66 18.1989 300.942 18.3447C301.229 18.486 301.567 18.5566 301.954 18.5566C302.341 18.5566 302.674 18.4906 302.952 18.3584C303.235 18.2217 303.451 18.0166 303.602 17.7432C303.757 17.4697 303.834 17.1257 303.834 16.7109C303.834 16.2962 303.747 15.9567 303.574 15.6924C303.401 15.4235 303.155 15.2253 302.836 15.0977C302.521 14.9655 302.15 14.8994 301.722 14.8994H300.819ZM313.097 13.6895V15.207C313.097 16.0228 313.024 16.7109 312.878 17.2715C312.732 17.832 312.522 18.2832 312.249 18.625C311.976 18.9668 311.645 19.2152 311.258 19.3701C310.875 19.5205 310.442 19.5957 309.959 19.5957C309.576 19.5957 309.223 19.5479 308.899 19.4521C308.576 19.3564 308.284 19.2038 308.024 18.9941C307.769 18.7799 307.55 18.502 307.368 18.1602C307.186 17.8184 307.047 17.4036 306.951 16.916C306.855 16.4284 306.808 15.8587 306.808 15.207V13.6895C306.808 12.8737 306.881 12.1901 307.026 11.6387C307.177 11.0872 307.389 10.6452 307.662 10.3125C307.936 9.97526 308.264 9.73372 308.646 9.58789C309.034 9.44206 309.467 9.36914 309.945 9.36914C310.333 9.36914 310.688 9.41699 311.012 9.5127C311.34 9.60384 311.632 9.75195 311.887 9.95703C312.142 10.1576 312.358 10.4264 312.536 10.7637C312.718 11.0964 312.857 11.5042 312.953 11.9873C313.049 12.4704 313.097 13.0378 313.097 13.6895ZM311.825 15.4121V13.4775C311.825 13.0309 311.798 12.639 311.743 12.3018C311.693 11.96 311.618 11.6683 311.518 11.4268C311.417 11.1852 311.29 10.9893 311.135 10.8389C310.984 10.6885 310.809 10.5791 310.608 10.5107C310.412 10.4378 310.191 10.4014 309.945 10.4014C309.645 10.4014 309.378 10.4583 309.146 10.5723C308.913 10.6816 308.717 10.8571 308.558 11.0986C308.403 11.3402 308.284 11.6569 308.202 12.0488C308.12 12.4408 308.079 12.917 308.079 13.4775V15.4121C308.079 15.8587 308.104 16.2529 308.154 16.5947C308.209 16.9365 308.289 17.2327 308.394 17.4834C308.498 17.7295 308.626 17.9323 308.776 18.0918C308.927 18.2513 309.1 18.3698 309.296 18.4473C309.496 18.5202 309.717 18.5566 309.959 18.5566C310.269 18.5566 310.54 18.4974 310.772 18.3789C311.005 18.2604 311.199 18.0758 311.354 17.8252C311.513 17.57 311.632 17.2441 311.709 16.8477C311.786 16.4466 311.825 15.9681 311.825 15.4121ZM320.972 13.6895V15.207C320.972 16.0228 320.899 16.7109 320.753 17.2715C320.607 17.832 320.397 18.2832 320.124 18.625C319.851 18.9668 319.52 19.2152 319.133 19.3701C318.75 19.5205 318.317 19.5957 317.834 19.5957C317.451 19.5957 317.098 19.5479 316.774 19.4521C316.451 19.3564 316.159 19.2038 315.899 18.9941C315.644 18.7799 315.425 18.502 315.243 18.1602C315.061 17.8184 314.922 17.4036 314.826 16.916C314.73 16.4284 314.683 15.8587 314.683 15.207V13.6895C314.683 12.8737 314.756 12.1901 314.901 11.6387C315.052 11.0872 315.264 10.6452 315.537 10.3125C315.811 9.97526 316.139 9.73372 316.521 9.58789C316.909 9.44206 317.342 9.36914 317.82 9.36914C318.208 9.36914 318.563 9.41699 318.887 9.5127C319.215 9.60384 319.507 9.75195 319.762 9.95703C320.017 10.1576 320.233 10.4264 320.411 10.7637C320.593 11.0964 320.732 11.5042 320.828 11.9873C320.924 12.4704 320.972 13.0378 320.972 13.6895ZM319.7 15.4121V13.4775C319.7 13.0309 319.673 12.639 319.618 12.3018C319.568 11.96 319.493 11.6683 319.393 11.4268C319.292 11.1852 319.165 10.9893 319.01 10.8389C318.859 10.6885 318.684 10.5791 318.483 10.5107C318.287 10.4378 318.066 10.4014 317.82 10.4014C317.52 10.4014 317.253 10.4583 317.021 10.5723C316.788 10.6816 316.592 10.8571 316.433 11.0986C316.278 11.3402 316.159 11.6569 316.077 12.0488C315.995 12.4408 315.954 12.917 315.954 13.4775V15.4121C315.954 15.8587 315.979 16.2529 316.029 16.5947C316.084 16.9365 316.164 17.2327 316.269 17.4834C316.373 17.7295 316.501 17.9323 316.651 18.0918C316.802 18.2513 316.975 18.3698 317.171 18.4473C317.371 18.5202 317.592 18.5566 317.834 18.5566C318.144 18.5566 318.415 18.4974 318.647 18.3789C318.88 18.2604 319.074 18.0758 319.229 17.8252C319.388 17.57 319.507 17.2441 319.584 16.8477C319.661 16.4466 319.7 15.9681 319.7 15.4121Z" fill="white"/>
<path d="M206.025 14.708V15.7471H202.689V14.708H206.025ZM213.853 16.1094V17.1484H206.661V16.4033L211.118 9.50586H212.15L211.043 11.502L208.097 16.1094H213.853ZM212.465 9.50586V19.459H211.2V9.50586H212.465ZM221.249 13.6895V15.207C221.249 16.0228 221.176 16.7109 221.03 17.2715C220.884 17.832 220.675 18.2832 220.401 18.625C220.128 18.9668 219.798 19.2152 219.41 19.3701C219.027 19.5205 218.594 19.5957 218.111 19.5957C217.729 19.5957 217.375 19.5479 217.052 19.4521C216.728 19.3564 216.437 19.2038 216.177 18.9941C215.922 18.7799 215.703 18.502 215.521 18.1602C215.338 17.8184 215.199 17.4036 215.104 16.916C215.008 16.4284 214.96 15.8587 214.96 15.207V13.6895C214.96 12.8737 215.033 12.1901 215.179 11.6387C215.329 11.0872 215.541 10.6452 215.814 10.3125C216.088 9.97526 216.416 9.73372 216.799 9.58789C217.186 9.44206 217.619 9.36914 218.098 9.36914C218.485 9.36914 218.84 9.41699 219.164 9.5127C219.492 9.60384 219.784 9.75195 220.039 9.95703C220.294 10.1576 220.511 10.4264 220.688 10.7637C220.871 11.0964 221.01 11.5042 221.105 11.9873C221.201 12.4704 221.249 13.0378 221.249 13.6895ZM219.978 15.4121V13.4775C219.978 13.0309 219.95 12.639 219.896 12.3018C219.845 11.96 219.77 11.6683 219.67 11.4268C219.57 11.1852 219.442 10.9893 219.287 10.8389C219.137 10.6885 218.961 10.5791 218.761 10.5107C218.565 10.4378 218.344 10.4014 218.098 10.4014C217.797 10.4014 217.53 10.4583 217.298 10.5723C217.065 10.6816 216.869 10.8571 216.71 11.0986C216.555 11.3402 216.437 11.6569 216.354 12.0488C216.272 12.4408 216.231 12.917 216.231 13.4775V15.4121C216.231 15.8587 216.257 16.2529 216.307 16.5947C216.361 16.9365 216.441 17.2327 216.546 17.4834C216.651 17.7295 216.778 17.9323 216.929 18.0918C217.079 18.2513 217.252 18.3698 217.448 18.4473C217.649 18.5202 217.87 18.5566 218.111 18.5566C218.421 18.5566 218.692 18.4974 218.925 18.3789C219.157 18.2604 219.351 18.0758 219.506 17.8252C219.665 17.57 219.784 17.2441 219.861 16.8477C219.939 16.4466 219.978 15.9681 219.978 15.4121ZM229.124 13.6895V15.207C229.124 16.0228 229.051 16.7109 228.905 17.2715C228.759 17.832 228.55 18.2832 228.276 18.625C228.003 18.9668 227.673 19.2152 227.285 19.3701C226.902 19.5205 226.469 19.5957 225.986 19.5957C225.604 19.5957 225.25 19.5479 224.927 19.4521C224.603 19.3564 224.312 19.2038 224.052 18.9941C223.797 18.7799 223.578 18.502 223.396 18.1602C223.213 17.8184 223.074 17.4036 222.979 16.916C222.883 16.4284 222.835 15.8587 222.835 15.207V13.6895C222.835 12.8737 222.908 12.1901 223.054 11.6387C223.204 11.0872 223.416 10.6452 223.689 10.3125C223.963 9.97526 224.291 9.73372 224.674 9.58789C225.061 9.44206 225.494 9.36914 225.973 9.36914C226.36 9.36914 226.715 9.41699 227.039 9.5127C227.367 9.60384 227.659 9.75195 227.914 9.95703C228.169 10.1576 228.386 10.4264 228.563 10.7637C228.746 11.0964 228.885 11.5042 228.98 11.9873C229.076 12.4704 229.124 13.0378 229.124 13.6895ZM227.853 15.4121V13.4775C227.853 13.0309 227.825 12.639 227.771 12.3018C227.72 11.96 227.645 11.6683 227.545 11.4268C227.445 11.1852 227.317 10.9893 227.162 10.8389C227.012 10.6885 226.836 10.5791 226.636 10.5107C226.44 10.4378 226.219 10.4014 225.973 10.4014C225.672 10.4014 225.405 10.4583 225.173 10.5723C224.94 10.6816 224.744 10.8571 224.585 11.0986C224.43 11.3402 224.312 11.6569 224.229 12.0488C224.147 12.4408 224.106 12.917 224.106 13.4775V15.4121C224.106 15.8587 224.132 16.2529 224.182 16.5947C224.236 16.9365 224.316 17.2327 224.421 17.4834C224.526 17.7295 224.653 17.9323 224.804 18.0918C224.954 18.2513 225.127 18.3698 225.323 18.4473C225.524 18.5202 225.745 18.5566 225.986 18.5566C226.296 18.5566 226.567 18.4974 226.8 18.3789C227.032 18.2604 227.226 18.0758 227.381 17.8252C227.54 17.57 227.659 17.2441 227.736 16.8477C227.814 16.4466 227.853 15.9681 227.853 15.4121Z" fill="white"/>
<path d="M114.18 14.708V15.7471H110.844V14.708H114.18ZM116.88 14.7217L115.868 14.4619L116.367 9.50586H121.474V10.6748H117.44L117.14 13.3818C117.322 13.277 117.552 13.179 117.83 13.0879C118.113 12.9967 118.436 12.9512 118.801 12.9512C119.261 12.9512 119.674 13.0309 120.038 13.1904C120.403 13.3454 120.713 13.5687 120.968 13.8604C121.228 14.152 121.426 14.5029 121.562 14.9131C121.699 15.3232 121.768 15.7812 121.768 16.2871C121.768 16.7656 121.701 17.2054 121.569 17.6064C121.442 18.0075 121.248 18.3584 120.988 18.6592C120.729 18.9554 120.4 19.1855 120.004 19.3496C119.612 19.5137 119.149 19.5957 118.616 19.5957C118.215 19.5957 117.835 19.541 117.475 19.4316C117.119 19.3177 116.8 19.1468 116.518 18.9189C116.24 18.6865 116.012 18.3994 115.834 18.0576C115.661 17.7113 115.551 17.3057 115.506 16.8408H116.709C116.764 17.2145 116.873 17.529 117.037 17.7842C117.201 18.0394 117.415 18.2331 117.68 18.3652C117.949 18.4928 118.261 18.5566 118.616 18.5566C118.917 18.5566 119.184 18.5042 119.416 18.3994C119.648 18.2946 119.844 18.1442 120.004 17.9482C120.163 17.7523 120.284 17.5153 120.366 17.2373C120.453 16.9593 120.496 16.6471 120.496 16.3008C120.496 15.9863 120.453 15.6947 120.366 15.4258C120.28 15.1569 120.15 14.9222 119.977 14.7217C119.808 14.5212 119.601 14.3662 119.354 14.2568C119.108 14.1429 118.826 14.0859 118.507 14.0859C118.083 14.0859 117.762 14.1429 117.543 14.2568C117.329 14.3708 117.108 14.5257 116.88 14.7217ZM129.403 13.6895V15.207C129.403 16.0228 129.33 16.7109 129.185 17.2715C129.039 17.832 128.829 18.2832 128.556 18.625C128.282 18.9668 127.952 19.2152 127.564 19.3701C127.182 19.5205 126.749 19.5957 126.266 19.5957C125.883 19.5957 125.53 19.5479 125.206 19.4521C124.882 19.3564 124.591 19.2038 124.331 18.9941C124.076 18.7799 123.857 18.502 123.675 18.1602C123.493 17.8184 123.354 17.4036 123.258 16.916C123.162 16.4284 123.114 15.8587 123.114 15.207V13.6895C123.114 12.8737 123.187 12.1901 123.333 11.6387C123.483 11.0872 123.695 10.6452 123.969 10.3125C124.242 9.97526 124.57 9.73372 124.953 9.58789C125.34 9.44206 125.773 9.36914 126.252 9.36914C126.639 9.36914 126.995 9.41699 127.318 9.5127C127.646 9.60384 127.938 9.75195 128.193 9.95703C128.449 10.1576 128.665 10.4264 128.843 10.7637C129.025 11.0964 129.164 11.5042 129.26 11.9873C129.355 12.4704 129.403 13.0378 129.403 13.6895ZM128.132 15.4121V13.4775C128.132 13.0309 128.104 12.639 128.05 12.3018C128 11.96 127.924 11.6683 127.824 11.4268C127.724 11.1852 127.596 10.9893 127.441 10.8389C127.291 10.6885 127.116 10.5791 126.915 10.5107C126.719 10.4378 126.498 10.4014 126.252 10.4014C125.951 10.4014 125.685 10.4583 125.452 10.5723C125.22 10.6816 125.024 10.8571 124.864 11.0986C124.709 11.3402 124.591 11.6569 124.509 12.0488C124.427 12.4408 124.386 12.917 124.386 13.4775V15.4121C124.386 15.8587 124.411 16.2529 124.461 16.5947C124.516 16.9365 124.595 17.2327 124.7 17.4834C124.805 17.7295 124.933 17.9323 125.083 18.0918C125.233 18.2513 125.407 18.3698 125.603 18.4473C125.803 18.5202 126.024 18.5566 126.266 18.5566C126.576 18.5566 126.847 18.4974 127.079 18.3789C127.312 18.2604 127.505 18.0758 127.66 17.8252C127.82 17.57 127.938 17.2441 128.016 16.8477C128.093 16.4466 128.132 15.9681 128.132 15.4121ZM137.278 13.6895V15.207C137.278 16.0228 137.205 16.7109 137.06 17.2715C136.914 17.832 136.704 18.2832 136.431 18.625C136.157 18.9668 135.827 19.2152 135.439 19.3701C135.057 19.5205 134.624 19.5957 134.141 19.5957C133.758 19.5957 133.405 19.5479 133.081 19.4521C132.757 19.3564 132.466 19.2038 132.206 18.9941C131.951 18.7799 131.732 18.502 131.55 18.1602C131.368 17.8184 131.229 17.4036 131.133 16.916C131.037 16.4284 130.989 15.8587 130.989 15.207V13.6895C130.989 12.8737 131.062 12.1901 131.208 11.6387C131.358 11.0872 131.57 10.6452 131.844 10.3125C132.117 9.97526 132.445 9.73372 132.828 9.58789C133.215 9.44206 133.648 9.36914 134.127 9.36914C134.514 9.36914 134.87 9.41699 135.193 9.5127C135.521 9.60384 135.813 9.75195 136.068 9.95703C136.324 10.1576 136.54 10.4264 136.718 10.7637C136.9 11.0964 137.039 11.5042 137.135 11.9873C137.23 12.4704 137.278 13.0378 137.278 13.6895ZM136.007 15.4121V13.4775C136.007 13.0309 135.979 12.639 135.925 12.3018C135.875 11.96 135.799 11.6683 135.699 11.4268C135.599 11.1852 135.471 10.9893 135.316 10.8389C135.166 10.6885 134.991 10.5791 134.79 10.5107C134.594 10.4378 134.373 10.4014 134.127 10.4014C133.826 10.4014 133.56 10.4583 133.327 10.5723C133.095 10.6816 132.899 10.8571 132.739 11.0986C132.584 11.3402 132.466 11.6569 132.384 12.0488C132.302 12.4408 132.261 12.917 132.261 13.4775V15.4121C132.261 15.8587 132.286 16.2529 132.336 16.5947C132.391 16.9365 132.47 17.2327 132.575 17.4834C132.68 17.7295 132.808 17.9323 132.958 18.0918C133.108 18.2513 133.282 18.3698 133.478 18.4473C133.678 18.5202 133.899 18.5566 134.141 18.5566C134.451 18.5566 134.722 18.4974 134.954 18.3789C135.187 18.2604 135.38 18.0758 135.535 17.8252C135.695 17.57 135.813 17.2441 135.891 16.8477C135.968 16.4466 136.007 15.9681 136.007 15.4121Z" fill="white"/>
<path d="M22.334 14.708V15.7471H18.998V14.708H22.334ZM28.2881 9.49219H28.3975V10.5654H28.2881C27.6182 10.5654 27.0576 10.6748 26.6064 10.8936C26.1553 11.1077 25.7975 11.3971 25.5332 11.7617C25.2689 12.1217 25.0775 12.5273 24.959 12.9785C24.8451 13.4297 24.7881 13.8877 24.7881 14.3525V15.8154C24.7881 16.2575 24.8405 16.6494 24.9453 16.9912C25.0501 17.3285 25.1937 17.6133 25.376 17.8457C25.5583 18.0781 25.7633 18.2536 25.9912 18.3721C26.2236 18.4906 26.4652 18.5498 26.7158 18.5498C27.0075 18.5498 27.2673 18.4951 27.4951 18.3857C27.723 18.2718 27.9144 18.1146 28.0693 17.9141C28.2288 17.709 28.3496 17.4674 28.4316 17.1895C28.5137 16.9115 28.5547 16.6061 28.5547 16.2734C28.5547 15.9772 28.5182 15.6924 28.4453 15.4189C28.3724 15.141 28.2607 14.8949 28.1104 14.6807C27.96 14.4619 27.7708 14.291 27.543 14.168C27.3197 14.0404 27.0531 13.9766 26.7432 13.9766C26.3923 13.9766 26.0641 14.0632 25.7588 14.2363C25.458 14.4049 25.2096 14.6283 25.0137 14.9062C24.8223 15.1797 24.7129 15.4782 24.6855 15.8018L24.0156 15.7949C24.0794 15.2845 24.1979 14.8493 24.3711 14.4893C24.5488 14.1247 24.7676 13.8285 25.0273 13.6006C25.2917 13.3682 25.5856 13.1995 25.9092 13.0947C26.2373 12.9854 26.5837 12.9307 26.9482 12.9307C27.445 12.9307 27.8734 13.0241 28.2334 13.2109C28.5934 13.3978 28.8896 13.6484 29.1221 13.9629C29.3545 14.2728 29.5254 14.6237 29.6348 15.0156C29.7487 15.403 29.8057 15.8018 29.8057 16.2119C29.8057 16.6813 29.7396 17.1211 29.6074 17.5312C29.4753 17.9414 29.277 18.3014 29.0127 18.6113C28.7529 18.9212 28.4316 19.1628 28.0488 19.3359C27.666 19.5091 27.2217 19.5957 26.7158 19.5957C26.1781 19.5957 25.7087 19.4863 25.3076 19.2676C24.9066 19.0443 24.5739 18.748 24.3096 18.3789C24.0452 18.0098 23.847 17.5996 23.7148 17.1484C23.5827 16.6973 23.5166 16.2393 23.5166 15.7744V15.1797C23.5166 14.4779 23.5872 13.7897 23.7285 13.1152C23.8698 12.4408 24.1136 11.8301 24.46 11.2832C24.8109 10.7363 25.2962 10.3011 25.916 9.97754C26.5358 9.65397 27.3265 9.49219 28.2881 9.49219ZM37.5576 13.6895V15.207C37.5576 16.0228 37.4847 16.7109 37.3389 17.2715C37.193 17.832 36.9834 18.2832 36.71 18.625C36.4365 18.9668 36.1061 19.2152 35.7188 19.3701C35.3359 19.5205 34.903 19.5957 34.4199 19.5957C34.0371 19.5957 33.6839 19.5479 33.3604 19.4521C33.0368 19.3564 32.7451 19.2038 32.4854 18.9941C32.2301 18.7799 32.0114 18.502 31.8291 18.1602C31.6468 17.8184 31.5078 17.4036 31.4121 16.916C31.3164 16.4284 31.2686 15.8587 31.2686 15.207V13.6895C31.2686 12.8737 31.3415 12.1901 31.4873 11.6387C31.6377 11.0872 31.8496 10.6452 32.123 10.3125C32.3965 9.97526 32.7246 9.73372 33.1074 9.58789C33.4948 9.44206 33.9277 9.36914 34.4062 9.36914C34.7936 9.36914 35.1491 9.41699 35.4727 9.5127C35.8008 9.60384 36.0924 9.75195 36.3477 9.95703C36.6029 10.1576 36.8193 10.4264 36.9971 10.7637C37.1794 11.0964 37.3184 11.5042 37.4141 11.9873C37.5098 12.4704 37.5576 13.0378 37.5576 13.6895ZM36.2861 15.4121V13.4775C36.2861 13.0309 36.2588 12.639 36.2041 12.3018C36.154 11.96 36.0788 11.6683 35.9785 11.4268C35.8783 11.1852 35.7507 10.9893 35.5957 10.8389C35.4453 10.6885 35.2699 10.5791 35.0693 10.5107C34.8734 10.4378 34.6523 10.4014 34.4062 10.4014C34.1055 10.4014 33.8389 10.4583 33.6064 10.5723C33.374 10.6816 33.1781 10.8571 33.0186 11.0986C32.8636 11.3402 32.7451 11.6569 32.6631 12.0488C32.5811 12.4408 32.54 12.917 32.54 13.4775V15.4121C32.54 15.8587 32.5651 16.2529 32.6152 16.5947C32.6699 16.9365 32.7497 17.2327 32.8545 17.4834C32.9593 17.7295 33.0869 17.9323 33.2373 18.0918C33.3877 18.2513 33.5609 18.3698 33.7568 18.4473C33.9574 18.5202 34.1784 18.5566 34.4199 18.5566C34.7298 18.5566 35.001 18.4974 35.2334 18.3789C35.4658 18.2604 35.6595 18.0758 35.8145 17.8252C35.974 17.57 36.0924 17.2441 36.1699 16.8477C36.2474 16.4466 36.2861 15.9681 36.2861 15.4121ZM45.4326 13.6895V15.207C45.4326 16.0228 45.3597 16.7109 45.2139 17.2715C45.068 17.832 44.8584 18.2832 44.585 18.625C44.3115 18.9668 43.9811 19.2152 43.5938 19.3701C43.2109 19.5205 42.778 19.5957 42.2949 19.5957C41.9121 19.5957 41.5589 19.5479 41.2354 19.4521C40.9118 19.3564 40.6201 19.2038 40.3604 18.9941C40.1051 18.7799 39.8864 18.502 39.7041 18.1602C39.5218 17.8184 39.3828 17.4036 39.2871 16.916C39.1914 16.4284 39.1436 15.8587 39.1436 15.207V13.6895C39.1436 12.8737 39.2165 12.1901 39.3623 11.6387C39.5127 11.0872 39.7246 10.6452 39.998 10.3125C40.2715 9.97526 40.5996 9.73372 40.9824 9.58789C41.3698 9.44206 41.8027 9.36914 42.2812 9.36914C42.6686 9.36914 43.0241 9.41699 43.3477 9.5127C43.6758 9.60384 43.9674 9.75195 44.2227 9.95703C44.4779 10.1576 44.6943 10.4264 44.8721 10.7637C45.0544 11.0964 45.1934 11.5042 45.2891 11.9873C45.3848 12.4704 45.4326 13.0378 45.4326 13.6895ZM44.1611 15.4121V13.4775C44.1611 13.0309 44.1338 12.639 44.0791 12.3018C44.029 11.96 43.9538 11.6683 43.8535 11.4268C43.7533 11.1852 43.6257 10.9893 43.4707 10.8389C43.3203 10.6885 43.1449 10.5791 42.9443 10.5107C42.7484 10.4378 42.5273 10.4014 42.2812 10.4014C41.9805 10.4014 41.7139 10.4583 41.4814 10.5723C41.249 10.6816 41.0531 10.8571 40.8936 11.0986C40.7386 11.3402 40.6201 11.6569 40.5381 12.0488C40.4561 12.4408 40.415 12.917 40.415 13.4775V15.4121C40.415 15.8587 40.4401 16.2529 40.4902 16.5947C40.5449 16.9365 40.6247 17.2327 40.7295 17.4834C40.8343 17.7295 40.9619 17.9323 41.1123 18.0918C41.2627 18.2513 41.4359 18.3698 41.6318 18.4473C41.8324 18.5202 42.0534 18.5566 42.2949 18.5566C42.6048 18.5566 42.876 18.4974 43.1084 18.3789C43.3408 18.2604 43.5345 18.0758 43.6895 17.8252C43.849 17.57 43.9674 17.2441 44.0449 16.8477C44.1224 16.4466 44.1611 15.9681 44.1611 15.4121Z" fill="white"/>
<path d="M760.856 18.4199V19.459H754.342V18.5498L757.603 14.9199C758.004 14.4733 758.313 14.0951 758.532 13.7852C758.756 13.4707 758.91 13.1904 758.997 12.9443C759.088 12.6937 759.134 12.4385 759.134 12.1787C759.134 11.8506 759.065 11.5544 758.929 11.29C758.797 11.0212 758.601 10.807 758.341 10.6475C758.081 10.488 757.767 10.4082 757.397 10.4082C756.955 10.4082 756.586 10.4948 756.29 10.668C755.998 10.8366 755.78 11.0736 755.634 11.3789C755.488 11.6842 755.415 12.0352 755.415 12.4316H754.15C754.15 11.8711 754.273 11.3584 754.52 10.8936C754.766 10.4287 755.13 10.0596 755.613 9.78613C756.096 9.50814 756.691 9.36914 757.397 9.36914C758.026 9.36914 758.564 9.48079 759.011 9.7041C759.457 9.92285 759.799 10.2327 760.036 10.6338C760.278 11.0303 760.398 11.4951 760.398 12.0283C760.398 12.32 760.348 12.6162 760.248 12.917C760.152 13.2132 760.018 13.5094 759.845 13.8057C759.676 14.1019 759.478 14.3936 759.25 14.6807C759.027 14.9678 758.787 15.2503 758.532 15.5283L755.866 18.4199H760.856ZM768.458 13.6895V15.207C768.458 16.0228 768.385 16.7109 768.239 17.2715C768.093 17.832 767.884 18.2832 767.61 18.625C767.337 18.9668 767.007 19.2152 766.619 19.3701C766.236 19.5205 765.803 19.5957 765.32 19.5957C764.938 19.5957 764.584 19.5479 764.261 19.4521C763.937 19.3564 763.646 19.2038 763.386 18.9941C763.131 18.7799 762.912 18.502 762.729 18.1602C762.547 17.8184 762.408 17.4036 762.312 16.916C762.217 16.4284 762.169 15.8587 762.169 15.207V13.6895C762.169 12.8737 762.242 12.1901 762.388 11.6387C762.538 11.0872 762.75 10.6452 763.023 10.3125C763.297 9.97526 763.625 9.73372 764.008 9.58789C764.395 9.44206 764.828 9.36914 765.307 9.36914C765.694 9.36914 766.049 9.41699 766.373 9.5127C766.701 9.60384 766.993 9.75195 767.248 9.95703C767.503 10.1576 767.72 10.4264 767.897 10.7637C768.08 11.0964 768.219 11.5042 768.314 11.9873C768.41 12.4704 768.458 13.0378 768.458 13.6895ZM767.187 15.4121V13.4775C767.187 13.0309 767.159 12.639 767.104 12.3018C767.054 11.96 766.979 11.6683 766.879 11.4268C766.779 11.1852 766.651 10.9893 766.496 10.8389C766.346 10.6885 766.17 10.5791 765.97 10.5107C765.774 10.4378 765.553 10.4014 765.307 10.4014C765.006 10.4014 764.739 10.4583 764.507 10.5723C764.274 10.6816 764.078 10.8571 763.919 11.0986C763.764 11.3402 763.646 11.6569 763.563 12.0488C763.481 12.4408 763.44 12.917 763.44 13.4775V15.4121C763.44 15.8587 763.465 16.2529 763.516 16.5947C763.57 16.9365 763.65 17.2327 763.755 17.4834C763.86 17.7295 763.987 17.9323 764.138 18.0918C764.288 18.2513 764.461 18.3698 764.657 18.4473C764.858 18.5202 765.079 18.5566 765.32 18.5566C765.63 18.5566 765.901 18.4974 766.134 18.3789C766.366 18.2604 766.56 18.0758 766.715 17.8252C766.874 17.57 766.993 17.2441 767.07 16.8477C767.148 16.4466 767.187 15.9681 767.187 15.4121ZM776.333 13.6895V15.207C776.333 16.0228 776.26 16.7109 776.114 17.2715C775.968 17.832 775.759 18.2832 775.485 18.625C775.212 18.9668 774.882 19.2152 774.494 19.3701C774.111 19.5205 773.678 19.5957 773.195 19.5957C772.812 19.5957 772.459 19.5479 772.136 19.4521C771.812 19.3564 771.521 19.2038 771.261 18.9941C771.006 18.7799 770.787 18.502 770.604 18.1602C770.422 17.8184 770.283 17.4036 770.188 16.916C770.092 16.4284 770.044 15.8587 770.044 15.207V13.6895C770.044 12.8737 770.117 12.1901 770.263 11.6387C770.413 11.0872 770.625 10.6452 770.898 10.3125C771.172 9.97526 771.5 9.73372 771.883 9.58789C772.27 9.44206 772.703 9.36914 773.182 9.36914C773.569 9.36914 773.924 9.41699 774.248 9.5127C774.576 9.60384 774.868 9.75195 775.123 9.95703C775.378 10.1576 775.595 10.4264 775.772 10.7637C775.955 11.0964 776.094 11.5042 776.189 11.9873C776.285 12.4704 776.333 13.0378 776.333 13.6895ZM775.062 15.4121V13.4775C775.062 13.0309 775.034 12.639 774.979 12.3018C774.929 11.96 774.854 11.6683 774.754 11.4268C774.654 11.1852 774.526 10.9893 774.371 10.8389C774.221 10.6885 774.045 10.5791 773.845 10.5107C773.649 10.4378 773.428 10.4014 773.182 10.4014C772.881 10.4014 772.614 10.4583 772.382 10.5723C772.149 10.6816 771.953 10.8571 771.794 11.0986C771.639 11.3402 771.521 11.6569 771.438 12.0488C771.356 12.4408 771.315 12.917 771.315 13.4775V15.4121C771.315 15.8587 771.34 16.2529 771.391 16.5947C771.445 16.9365 771.525 17.2327 771.63 17.4834C771.735 17.7295 771.862 17.9323 772.013 18.0918C772.163 18.2513 772.336 18.3698 772.532 18.4473C772.733 18.5202 772.954 18.5566 773.195 18.5566C773.505 18.5566 773.776 18.4974 774.009 18.3789C774.241 18.2604 774.435 18.0758 774.59 17.8252C774.749 17.57 774.868 17.2441 774.945 16.8477C775.023 16.4466 775.062 15.9681 775.062 15.4121Z" fill="white"/>
<path d="M848.026 13.8604H848.929C849.371 13.8604 849.735 13.7874 850.022 13.6416C850.314 13.4912 850.531 13.2884 850.672 13.0332C850.818 12.7734 850.891 12.4818 850.891 12.1582C850.891 11.7754 850.827 11.4541 850.699 11.1943C850.572 10.9346 850.38 10.7386 850.125 10.6064C849.87 10.4743 849.546 10.4082 849.154 10.4082C848.799 10.4082 848.484 10.4788 848.211 10.6201C847.942 10.7568 847.73 10.9528 847.575 11.208C847.425 11.4632 847.35 11.764 847.35 12.1104H846.085C846.085 11.6045 846.213 11.1442 846.468 10.7295C846.723 10.3148 847.081 9.98438 847.541 9.73828C848.006 9.49219 848.544 9.36914 849.154 9.36914C849.756 9.36914 850.282 9.47624 850.733 9.69043C851.185 9.90007 851.535 10.2145 851.786 10.6338C852.037 11.0485 852.162 11.5658 852.162 12.1855C852.162 12.4362 852.103 12.7051 851.984 12.9922C851.87 13.2747 851.69 13.5391 851.444 13.7852C851.203 14.0312 850.888 14.234 850.501 14.3936C850.114 14.5485 849.649 14.626 849.106 14.626H848.026V13.8604ZM848.026 14.8994V14.1406H849.106C849.74 14.1406 850.264 14.2158 850.679 14.3662C851.093 14.5166 851.419 14.7171 851.656 14.9678C851.898 15.2184 852.066 15.4941 852.162 15.7949C852.262 16.0911 852.312 16.3874 852.312 16.6836C852.312 17.1484 852.233 17.5609 852.073 17.9209C851.918 18.2809 851.697 18.5863 851.41 18.8369C851.128 19.0876 850.795 19.2767 850.412 19.4043C850.029 19.5319 849.612 19.5957 849.161 19.5957C848.728 19.5957 848.32 19.5342 847.938 19.4111C847.559 19.2881 847.224 19.1104 846.933 18.8779C846.641 18.641 846.413 18.3516 846.249 18.0098C846.085 17.6634 846.003 17.2692 846.003 16.8271H847.268C847.268 17.1735 847.343 17.4766 847.493 17.7363C847.648 17.9961 847.867 18.1989 848.149 18.3447C848.437 18.486 848.774 18.5566 849.161 18.5566C849.549 18.5566 849.881 18.4906 850.159 18.3584C850.442 18.2217 850.658 18.0166 850.809 17.7432C850.964 17.4697 851.041 17.1257 851.041 16.7109C851.041 16.2962 850.954 15.9567 850.781 15.6924C850.608 15.4235 850.362 15.2253 850.043 15.0977C849.729 14.9655 849.357 14.8994 848.929 14.8994H848.026ZM860.304 13.6895V15.207C860.304 16.0228 860.231 16.7109 860.085 17.2715C859.939 17.832 859.729 18.2832 859.456 18.625C859.183 18.9668 858.852 19.2152 858.465 19.3701C858.082 19.5205 857.649 19.5957 857.166 19.5957C856.783 19.5957 856.43 19.5479 856.106 19.4521C855.783 19.3564 855.491 19.2038 855.231 18.9941C854.976 18.7799 854.757 18.502 854.575 18.1602C854.393 17.8184 854.254 17.4036 854.158 16.916C854.062 16.4284 854.015 15.8587 854.015 15.207V13.6895C854.015 12.8737 854.088 12.1901 854.233 11.6387C854.384 11.0872 854.596 10.6452 854.869 10.3125C855.143 9.97526 855.471 9.73372 855.854 9.58789C856.241 9.44206 856.674 9.36914 857.152 9.36914C857.54 9.36914 857.895 9.41699 858.219 9.5127C858.547 9.60384 858.839 9.75195 859.094 9.95703C859.349 10.1576 859.565 10.4264 859.743 10.7637C859.925 11.0964 860.064 11.5042 860.16 11.9873C860.256 12.4704 860.304 13.0378 860.304 13.6895ZM859.032 15.4121V13.4775C859.032 13.0309 859.005 12.639 858.95 12.3018C858.9 11.96 858.825 11.6683 858.725 11.4268C858.624 11.1852 858.497 10.9893 858.342 10.8389C858.191 10.6885 858.016 10.5791 857.815 10.5107C857.619 10.4378 857.398 10.4014 857.152 10.4014C856.852 10.4014 856.585 10.4583 856.353 10.5723C856.12 10.6816 855.924 10.8571 855.765 11.0986C855.61 11.3402 855.491 11.6569 855.409 12.0488C855.327 12.4408 855.286 12.917 855.286 13.4775V15.4121C855.286 15.8587 855.311 16.2529 855.361 16.5947C855.416 16.9365 855.496 17.2327 855.601 17.4834C855.705 17.7295 855.833 17.9323 855.983 18.0918C856.134 18.2513 856.307 18.3698 856.503 18.4473C856.703 18.5202 856.924 18.5566 857.166 18.5566C857.476 18.5566 857.747 18.4974 857.979 18.3789C858.212 18.2604 858.406 18.0758 858.561 17.8252C858.72 17.57 858.839 17.2441 858.916 16.8477C858.993 16.4466 859.032 15.9681 859.032 15.4121ZM868.179 13.6895V15.207C868.179 16.0228 868.106 16.7109 867.96 17.2715C867.814 17.832 867.604 18.2832 867.331 18.625C867.058 18.9668 866.727 19.2152 866.34 19.3701C865.957 19.5205 865.524 19.5957 865.041 19.5957C864.658 19.5957 864.305 19.5479 863.981 19.4521C863.658 19.3564 863.366 19.2038 863.106 18.9941C862.851 18.7799 862.632 18.502 862.45 18.1602C862.268 17.8184 862.129 17.4036 862.033 16.916C861.938 16.4284 861.89 15.8587 861.89 15.207V13.6895C861.89 12.8737 861.963 12.1901 862.108 11.6387C862.259 11.0872 862.471 10.6452 862.744 10.3125C863.018 9.97526 863.346 9.73372 863.729 9.58789C864.116 9.44206 864.549 9.36914 865.027 9.36914C865.415 9.36914 865.77 9.41699 866.094 9.5127C866.422 9.60384 866.714 9.75195 866.969 9.95703C867.224 10.1576 867.44 10.4264 867.618 10.7637C867.8 11.0964 867.939 11.5042 868.035 11.9873C868.131 12.4704 868.179 13.0378 868.179 13.6895ZM866.907 15.4121V13.4775C866.907 13.0309 866.88 12.639 866.825 12.3018C866.775 11.96 866.7 11.6683 866.6 11.4268C866.499 11.1852 866.372 10.9893 866.217 10.8389C866.066 10.6885 865.891 10.5791 865.69 10.5107C865.494 10.4378 865.273 10.4014 865.027 10.4014C864.727 10.4014 864.46 10.4583 864.228 10.5723C863.995 10.6816 863.799 10.8571 863.64 11.0986C863.485 11.3402 863.366 11.6569 863.284 12.0488C863.202 12.4408 863.161 12.917 863.161 13.4775V15.4121C863.161 15.8587 863.186 16.2529 863.236 16.5947C863.291 16.9365 863.371 17.2327 863.476 17.4834C863.58 17.7295 863.708 17.9323 863.858 18.0918C864.009 18.2513 864.182 18.3698 864.378 18.4473C864.578 18.5202 864.799 18.5566 865.041 18.5566C865.351 18.5566 865.622 18.4974 865.854 18.3789C866.087 18.2604 866.281 18.0758 866.436 17.8252C866.595 17.57 866.714 17.2441 866.791 16.8477C866.868 16.4466 866.907 15.9681 866.907 15.4121Z" fill="white"/>
<path d="M944.753 16.1094V17.1484H937.562V16.4033L942.019 9.50586H943.051L941.943 11.502L938.997 16.1094H944.753ZM943.365 9.50586V19.459H942.101V9.50586H943.365ZM952.149 13.6895V15.207C952.149 16.0228 952.076 16.7109 951.931 17.2715C951.785 17.832 951.575 18.2832 951.302 18.625C951.028 18.9668 950.698 19.2152 950.311 19.3701C949.928 19.5205 949.495 19.5957 949.012 19.5957C948.629 19.5957 948.276 19.5479 947.952 19.4521C947.629 19.3564 947.337 19.2038 947.077 18.9941C946.822 18.7799 946.603 18.502 946.421 18.1602C946.239 17.8184 946.1 17.4036 946.004 16.916C945.908 16.4284 945.86 15.8587 945.86 15.207V13.6895C945.86 12.8737 945.933 12.1901 946.079 11.6387C946.229 11.0872 946.441 10.6452 946.715 10.3125C946.988 9.97526 947.316 9.73372 947.699 9.58789C948.087 9.44206 948.52 9.36914 948.998 9.36914C949.385 9.36914 949.741 9.41699 950.064 9.5127C950.393 9.60384 950.684 9.75195 950.939 9.95703C951.195 10.1576 951.411 10.4264 951.589 10.7637C951.771 11.0964 951.91 11.5042 952.006 11.9873C952.102 12.4704 952.149 13.0378 952.149 13.6895ZM950.878 15.4121V13.4775C950.878 13.0309 950.851 12.639 950.796 12.3018C950.746 11.96 950.671 11.6683 950.57 11.4268C950.47 11.1852 950.342 10.9893 950.188 10.8389C950.037 10.6885 949.862 10.5791 949.661 10.5107C949.465 10.4378 949.244 10.4014 948.998 10.4014C948.697 10.4014 948.431 10.4583 948.198 10.5723C947.966 10.6816 947.77 10.8571 947.61 11.0986C947.455 11.3402 947.337 11.6569 947.255 12.0488C947.173 12.4408 947.132 12.917 947.132 13.4775V15.4121C947.132 15.8587 947.157 16.2529 947.207 16.5947C947.262 16.9365 947.341 17.2327 947.446 17.4834C947.551 17.7295 947.679 17.9323 947.829 18.0918C947.979 18.2513 948.153 18.3698 948.349 18.4473C948.549 18.5202 948.77 18.5566 949.012 18.5566C949.322 18.5566 949.593 18.4974 949.825 18.3789C950.058 18.2604 950.251 18.0758 950.406 17.8252C950.566 17.57 950.684 17.2441 950.762 16.8477C950.839 16.4466 950.878 15.9681 950.878 15.4121ZM960.024 13.6895V15.207C960.024 16.0228 959.951 16.7109 959.806 17.2715C959.66 17.832 959.45 18.2832 959.177 18.625C958.903 18.9668 958.573 19.2152 958.186 19.3701C957.803 19.5205 957.37 19.5957 956.887 19.5957C956.504 19.5957 956.151 19.5479 955.827 19.4521C955.504 19.3564 955.212 19.2038 954.952 18.9941C954.697 18.7799 954.478 18.502 954.296 18.1602C954.114 17.8184 953.975 17.4036 953.879 16.916C953.783 16.4284 953.735 15.8587 953.735 15.207V13.6895C953.735 12.8737 953.808 12.1901 953.954 11.6387C954.104 11.0872 954.316 10.6452 954.59 10.3125C954.863 9.97526 955.191 9.73372 955.574 9.58789C955.962 9.44206 956.395 9.36914 956.873 9.36914C957.26 9.36914 957.616 9.41699 957.939 9.5127C958.268 9.60384 958.559 9.75195 958.814 9.95703C959.07 10.1576 959.286 10.4264 959.464 10.7637C959.646 11.0964 959.785 11.5042 959.881 11.9873C959.977 12.4704 960.024 13.0378 960.024 13.6895ZM958.753 15.4121V13.4775C958.753 13.0309 958.726 12.639 958.671 12.3018C958.621 11.96 958.546 11.6683 958.445 11.4268C958.345 11.1852 958.217 10.9893 958.062 10.8389C957.912 10.6885 957.737 10.5791 957.536 10.5107C957.34 10.4378 957.119 10.4014 956.873 10.4014C956.572 10.4014 956.306 10.4583 956.073 10.5723C955.841 10.6816 955.645 10.8571 955.485 11.0986C955.33 11.3402 955.212 11.6569 955.13 12.0488C955.048 12.4408 955.007 12.917 955.007 13.4775V15.4121C955.007 15.8587 955.032 16.2529 955.082 16.5947C955.137 16.9365 955.216 17.2327 955.321 17.4834C955.426 17.7295 955.554 17.9323 955.704 18.0918C955.854 18.2513 956.028 18.3698 956.224 18.4473C956.424 18.5202 956.645 18.5566 956.887 18.5566C957.197 18.5566 957.468 18.4974 957.7 18.3789C957.933 18.2604 958.126 18.0758 958.281 17.8252C958.441 17.57 958.559 17.2441 958.637 16.8477C958.714 16.4466 958.753 15.9681 958.753 15.4121Z" fill="white"/>
<path d="M1031.47 14.7217L1030.46 14.4619L1030.96 9.50586H1036.07V10.6748H1032.03L1031.73 13.3818C1031.92 13.277 1032.15 13.179 1032.42 13.0879C1032.71 12.9967 1033.03 12.9512 1033.39 12.9512C1033.85 12.9512 1034.27 13.0309 1034.63 13.1904C1035 13.3454 1035.31 13.5687 1035.56 13.8604C1035.82 14.152 1036.02 14.5029 1036.16 14.9131C1036.29 15.3232 1036.36 15.7812 1036.36 16.2871C1036.36 16.7656 1036.3 17.2054 1036.16 17.6064C1036.04 18.0075 1035.84 18.3584 1035.58 18.6592C1035.32 18.9554 1034.99 19.1855 1034.6 19.3496C1034.21 19.5137 1033.74 19.5957 1033.21 19.5957C1032.81 19.5957 1032.43 19.541 1032.07 19.4316C1031.71 19.3177 1031.39 19.1468 1031.11 18.9189C1030.83 18.6865 1030.61 18.3994 1030.43 18.0576C1030.25 17.7113 1030.15 17.3057 1030.1 16.8408H1031.3C1031.36 17.2145 1031.47 17.529 1031.63 17.7842C1031.79 18.0394 1032.01 18.2331 1032.27 18.3652C1032.54 18.4928 1032.85 18.5566 1033.21 18.5566C1033.51 18.5566 1033.78 18.5042 1034.01 18.3994C1034.24 18.2946 1034.44 18.1442 1034.6 17.9482C1034.76 17.7523 1034.88 17.5153 1034.96 17.2373C1035.05 16.9593 1035.09 16.6471 1035.09 16.3008C1035.09 15.9863 1035.05 15.6947 1034.96 15.4258C1034.87 15.1569 1034.74 14.9222 1034.57 14.7217C1034.4 14.5212 1034.19 14.3662 1033.95 14.2568C1033.7 14.1429 1033.42 14.0859 1033.1 14.0859C1032.68 14.0859 1032.36 14.1429 1032.14 14.2568C1031.92 14.3708 1031.7 14.5257 1031.47 14.7217ZM1044 13.6895V15.207C1044 16.0228 1043.92 16.7109 1043.78 17.2715C1043.63 17.832 1043.42 18.2832 1043.15 18.625C1042.88 18.9668 1042.55 19.2152 1042.16 19.3701C1041.78 19.5205 1041.34 19.5957 1040.86 19.5957C1040.48 19.5957 1040.12 19.5479 1039.8 19.4521C1039.48 19.3564 1039.18 19.2038 1038.92 18.9941C1038.67 18.7799 1038.45 18.502 1038.27 18.1602C1038.09 17.8184 1037.95 17.4036 1037.85 16.916C1037.76 16.4284 1037.71 15.8587 1037.71 15.207V13.6895C1037.71 12.8737 1037.78 12.1901 1037.93 11.6387C1038.08 11.0872 1038.29 10.6452 1038.56 10.3125C1038.84 9.97526 1039.16 9.73372 1039.55 9.58789C1039.93 9.44206 1040.37 9.36914 1040.85 9.36914C1041.23 9.36914 1041.59 9.41699 1041.91 9.5127C1042.24 9.60384 1042.53 9.75195 1042.79 9.95703C1043.04 10.1576 1043.26 10.4264 1043.44 10.7637C1043.62 11.0964 1043.76 11.5042 1043.85 11.9873C1043.95 12.4704 1044 13.0378 1044 13.6895ZM1042.73 15.4121V13.4775C1042.73 13.0309 1042.7 12.639 1042.64 12.3018C1042.59 11.96 1042.52 11.6683 1042.42 11.4268C1042.32 11.1852 1042.19 10.9893 1042.04 10.8389C1041.88 10.6885 1041.71 10.5791 1041.51 10.5107C1041.31 10.4378 1041.09 10.4014 1040.85 10.4014C1040.54 10.4014 1040.28 10.4583 1040.05 10.5723C1039.81 10.6816 1039.62 10.8571 1039.46 11.0986C1039.3 11.3402 1039.18 11.6569 1039.1 12.0488C1039.02 12.4408 1038.98 12.917 1038.98 13.4775V15.4121C1038.98 15.8587 1039 16.2529 1039.05 16.5947C1039.11 16.9365 1039.19 17.2327 1039.29 17.4834C1039.4 17.7295 1039.53 17.9323 1039.68 18.0918C1039.83 18.2513 1040 18.3698 1040.2 18.4473C1040.4 18.5202 1040.62 18.5566 1040.86 18.5566C1041.17 18.5566 1041.44 18.4974 1041.67 18.3789C1041.91 18.2604 1042.1 18.0758 1042.25 17.8252C1042.41 17.57 1042.53 17.2441 1042.61 16.8477C1042.69 16.4466 1042.73 15.9681 1042.73 15.4121ZM1051.87 13.6895V15.207C1051.87 16.0228 1051.8 16.7109 1051.65 17.2715C1051.51 17.832 1051.3 18.2832 1051.02 18.625C1050.75 18.9668 1050.42 19.2152 1050.03 19.3701C1049.65 19.5205 1049.22 19.5957 1048.73 19.5957C1048.35 19.5957 1048 19.5479 1047.67 19.4521C1047.35 19.3564 1047.06 19.2038 1046.8 18.9941C1046.54 18.7799 1046.33 18.502 1046.14 18.1602C1045.96 17.8184 1045.82 17.4036 1045.73 16.916C1045.63 16.4284 1045.58 15.8587 1045.58 15.207V13.6895C1045.58 12.8737 1045.66 12.1901 1045.8 11.6387C1045.95 11.0872 1046.16 10.6452 1046.44 10.3125C1046.71 9.97526 1047.04 9.73372 1047.42 9.58789C1047.81 9.44206 1048.24 9.36914 1048.72 9.36914C1049.11 9.36914 1049.46 9.41699 1049.79 9.5127C1050.12 9.60384 1050.41 9.75195 1050.66 9.95703C1050.92 10.1576 1051.13 10.4264 1051.31 10.7637C1051.49 11.0964 1051.63 11.5042 1051.73 11.9873C1051.82 12.4704 1051.87 13.0378 1051.87 13.6895ZM1050.6 15.4121V13.4775C1050.6 13.0309 1050.57 12.639 1050.52 12.3018C1050.47 11.96 1050.39 11.6683 1050.29 11.4268C1050.19 11.1852 1050.07 10.9893 1049.91 10.8389C1049.76 10.6885 1049.58 10.5791 1049.38 10.5107C1049.19 10.4378 1048.97 10.4014 1048.72 10.4014C1048.42 10.4014 1048.15 10.4583 1047.92 10.5723C1047.69 10.6816 1047.49 10.8571 1047.33 11.0986C1047.18 11.3402 1047.06 11.6569 1046.98 12.0488C1046.9 12.4408 1046.85 12.917 1046.85 13.4775V15.4121C1046.85 15.8587 1046.88 16.2529 1046.93 16.5947C1046.98 16.9365 1047.06 17.2327 1047.17 17.4834C1047.27 17.7295 1047.4 17.9323 1047.55 18.0918C1047.7 18.2513 1047.88 18.3698 1048.07 18.4473C1048.27 18.5202 1048.49 18.5566 1048.73 18.5566C1049.04 18.5566 1049.32 18.4974 1049.55 18.3789C1049.78 18.2604 1049.97 18.0758 1050.13 17.8252C1050.29 17.57 1050.41 17.2441 1050.48 16.8477C1050.56 16.4466 1050.6 15.9681 1050.6 15.4121Z" fill="white"/>
<path d="M1126.57 9.49219H1126.68V10.5654H1126.57C1125.9 10.5654 1125.34 10.6748 1124.89 10.8936C1124.44 11.1077 1124.08 11.3971 1123.82 11.7617C1123.55 12.1217 1123.36 12.5273 1123.24 12.9785C1123.13 13.4297 1123.07 13.8877 1123.07 14.3525V15.8154C1123.07 16.2575 1123.13 16.6494 1123.23 16.9912C1123.34 17.3285 1123.48 17.6133 1123.66 17.8457C1123.84 18.0781 1124.05 18.2536 1124.28 18.3721C1124.51 18.4906 1124.75 18.5498 1125 18.5498C1125.29 18.5498 1125.55 18.4951 1125.78 18.3857C1126.01 18.2718 1126.2 18.1146 1126.35 17.9141C1126.51 17.709 1126.63 17.4674 1126.72 17.1895C1126.8 16.9115 1126.84 16.6061 1126.84 16.2734C1126.84 15.9772 1126.8 15.6924 1126.73 15.4189C1126.66 15.141 1126.55 14.8949 1126.4 14.6807C1126.25 14.4619 1126.06 14.291 1125.83 14.168C1125.6 14.0404 1125.34 13.9766 1125.03 13.9766C1124.68 13.9766 1124.35 14.0632 1124.04 14.2363C1123.74 14.4049 1123.49 14.6283 1123.3 14.9062C1123.11 15.1797 1123 15.4782 1122.97 15.8018L1122.3 15.7949C1122.36 15.2845 1122.48 14.8493 1122.66 14.4893C1122.83 14.1247 1123.05 13.8285 1123.31 13.6006C1123.58 13.3682 1123.87 13.1995 1124.19 13.0947C1124.52 12.9854 1124.87 12.9307 1125.23 12.9307C1125.73 12.9307 1126.16 13.0241 1126.52 13.2109C1126.88 13.3978 1127.17 13.6484 1127.41 13.9629C1127.64 14.2728 1127.81 14.6237 1127.92 15.0156C1128.03 15.403 1128.09 15.8018 1128.09 16.2119C1128.09 16.6813 1128.02 17.1211 1127.89 17.5312C1127.76 17.9414 1127.56 18.3014 1127.3 18.6113C1127.04 18.9212 1126.72 19.1628 1126.33 19.3359C1125.95 19.5091 1125.51 19.5957 1125 19.5957C1124.46 19.5957 1123.99 19.4863 1123.59 19.2676C1123.19 19.0443 1122.86 18.748 1122.59 18.3789C1122.33 18.0098 1122.13 17.5996 1122 17.1484C1121.87 16.6973 1121.8 16.2393 1121.8 15.7744V15.1797C1121.8 14.4779 1121.87 13.7897 1122.01 13.1152C1122.15 12.4408 1122.4 11.8301 1122.75 11.2832C1123.1 10.7363 1123.58 10.3011 1124.2 9.97754C1124.82 9.65397 1125.61 9.49219 1126.57 9.49219ZM1135.84 13.6895V15.207C1135.84 16.0228 1135.77 16.7109 1135.62 17.2715C1135.48 17.832 1135.27 18.2832 1135 18.625C1134.72 18.9668 1134.39 19.2152 1134 19.3701C1133.62 19.5205 1133.19 19.5957 1132.71 19.5957C1132.32 19.5957 1131.97 19.5479 1131.65 19.4521C1131.32 19.3564 1131.03 19.2038 1130.77 18.9941C1130.52 18.7799 1130.3 18.502 1130.11 18.1602C1129.93 17.8184 1129.79 17.4036 1129.7 16.916C1129.6 16.4284 1129.55 15.8587 1129.55 15.207V13.6895C1129.55 12.8737 1129.63 12.1901 1129.77 11.6387C1129.92 11.0872 1130.13 10.6452 1130.41 10.3125C1130.68 9.97526 1131.01 9.73372 1131.39 9.58789C1131.78 9.44206 1132.21 9.36914 1132.69 9.36914C1133.08 9.36914 1133.43 9.41699 1133.76 9.5127C1134.09 9.60384 1134.38 9.75195 1134.63 9.95703C1134.89 10.1576 1135.1 10.4264 1135.28 10.7637C1135.46 11.0964 1135.6 11.5042 1135.7 11.9873C1135.79 12.4704 1135.84 13.0378 1135.84 13.6895ZM1134.57 15.4121V13.4775C1134.57 13.0309 1134.54 12.639 1134.49 12.3018C1134.44 11.96 1134.36 11.6683 1134.26 11.4268C1134.16 11.1852 1134.04 10.9893 1133.88 10.8389C1133.73 10.6885 1133.56 10.5791 1133.35 10.5107C1133.16 10.4378 1132.94 10.4014 1132.69 10.4014C1132.39 10.4014 1132.12 10.4583 1131.89 10.5723C1131.66 10.6816 1131.46 10.8571 1131.3 11.0986C1131.15 11.3402 1131.03 11.6569 1130.95 12.0488C1130.87 12.4408 1130.83 12.917 1130.83 13.4775V15.4121C1130.83 15.8587 1130.85 16.2529 1130.9 16.5947C1130.96 16.9365 1131.03 17.2327 1131.14 17.4834C1131.24 17.7295 1131.37 17.9323 1131.52 18.0918C1131.67 18.2513 1131.85 18.3698 1132.04 18.4473C1132.24 18.5202 1132.46 18.5566 1132.71 18.5566C1133.01 18.5566 1133.29 18.4974 1133.52 18.3789C1133.75 18.2604 1133.94 18.0758 1134.1 17.8252C1134.26 17.57 1134.38 17.2441 1134.46 16.8477C1134.53 16.4466 1134.57 15.9681 1134.57 15.4121ZM1143.72 13.6895V15.207C1143.72 16.0228 1143.64 16.7109 1143.5 17.2715C1143.35 17.832 1143.14 18.2832 1142.87 18.625C1142.6 18.9668 1142.27 19.2152 1141.88 19.3701C1141.5 19.5205 1141.06 19.5957 1140.58 19.5957C1140.2 19.5957 1139.84 19.5479 1139.52 19.4521C1139.2 19.3564 1138.91 19.2038 1138.65 18.9941C1138.39 18.7799 1138.17 18.502 1137.99 18.1602C1137.81 17.8184 1137.67 17.4036 1137.57 16.916C1137.48 16.4284 1137.43 15.8587 1137.43 15.207V13.6895C1137.43 12.8737 1137.5 12.1901 1137.65 11.6387C1137.8 11.0872 1138.01 10.6452 1138.28 10.3125C1138.56 9.97526 1138.88 9.73372 1139.27 9.58789C1139.65 9.44206 1140.09 9.36914 1140.57 9.36914C1140.95 9.36914 1141.31 9.41699 1141.63 9.5127C1141.96 9.60384 1142.25 9.75195 1142.51 9.95703C1142.76 10.1576 1142.98 10.4264 1143.16 10.7637C1143.34 11.0964 1143.48 11.5042 1143.57 11.9873C1143.67 12.4704 1143.72 13.0378 1143.72 13.6895ZM1142.45 15.4121V13.4775C1142.45 13.0309 1142.42 12.639 1142.36 12.3018C1142.31 11.96 1142.24 11.6683 1142.14 11.4268C1142.04 11.1852 1141.91 10.9893 1141.76 10.8389C1141.61 10.6885 1141.43 10.5791 1141.23 10.5107C1141.03 10.4378 1140.81 10.4014 1140.57 10.4014C1140.27 10.4014 1140 10.4583 1139.77 10.5723C1139.53 10.6816 1139.34 10.8571 1139.18 11.0986C1139.02 11.3402 1138.91 11.6569 1138.82 12.0488C1138.74 12.4408 1138.7 12.917 1138.7 13.4775V15.4121C1138.7 15.8587 1138.73 16.2529 1138.78 16.5947C1138.83 16.9365 1138.91 17.2327 1139.01 17.4834C1139.12 17.7295 1139.25 17.9323 1139.4 18.0918C1139.55 18.2513 1139.72 18.3698 1139.92 18.4473C1140.12 18.5202 1140.34 18.5566 1140.58 18.5566C1140.89 18.5566 1141.16 18.4974 1141.39 18.3789C1141.63 18.2604 1141.82 18.0758 1141.97 17.8252C1142.13 17.57 1142.25 17.2441 1142.33 16.8477C1142.41 16.4466 1142.45 15.9681 1142.45 15.4121Z" fill="white"/>
</svg>
