<svg width="102" height="154" viewBox="0 0 102 154" fill="none" xmlns="http://www.w3.org/2000/svg">
<rect x="4.24219" y="51.3613" width="93.5152" height="98.1387" stroke="white" stroke-width="8"/>
<path d="M55 4C55 1.79086 53.2091 0 51 0C48.7909 0 47 1.79086 47 4L55 4ZM48.1716 107.495C49.7337 109.057 52.2663 109.057 53.8284 107.495L79.2843 82.0388C80.8464 80.4767 80.8464 77.944 79.2843 76.3819C77.7222 74.8198 75.1895 74.8198 73.6274 76.3819L51 99.0093L28.3726 76.3819C26.8105 74.8198 24.2778 74.8198 22.7157 76.3819C21.1536 77.944 21.1536 80.4767 22.7157 82.0388L48.1716 107.495ZM47 4L47 104.666H55L55 4L47 4Z" fill="white"/>
</svg>
