<svg width="20" height="587" viewBox="0 0 20 587" fill="none" xmlns="http://www.w3.org/2000/svg">
<line y1="-1" x2="6" y2="-1" transform="matrix(-1 0 0 1 19.5 360.383)" stroke="white" stroke-width="2"/>
<line y1="-1" x2="6" y2="-1" transform="matrix(-1 0 0 1 19.5 341.52)" stroke="white" stroke-width="2"/>
<line y1="-1" x2="6" y2="-1" transform="matrix(-1 0 0 1 19.5 322.656)" stroke="white" stroke-width="2"/>
<line y1="-1" x2="6" y2="-1" transform="matrix(-1 0 0 1 19.5 303.795)" stroke="white" stroke-width="2"/>
<line y1="-1" x2="6" y2="-1" transform="matrix(-1 0 0 1 19.5 284.934)" stroke="white" stroke-width="2"/>
<line y1="-1" x2="6" y2="-1" transform="matrix(-1 0 0 1 19.5 266.072)" stroke="white" stroke-width="2"/>
<line y1="-1" x2="6" y2="-1" transform="matrix(-1 0 0 1 19.5 247.207)" stroke="white" stroke-width="2"/>
<line y1="-1" x2="6" y2="-1" transform="matrix(-1 0 0 1 19.5 228.346)" stroke="white" stroke-width="2"/>
<line y1="-1" x2="6" y2="-1" transform="matrix(-1 0 0 1 19.5 209.483)" stroke="white" stroke-width="2"/>
<line y1="-1" x2="6" y2="-1" transform="matrix(-1 0 0 1 19.5 190.622)" stroke="white" stroke-width="2"/>
<line y1="-1" x2="6" y2="-1" transform="matrix(-1 0 0 1 19.5 171.761)" stroke="white" stroke-width="2"/>
<line y1="-1" x2="6" y2="-1" transform="matrix(-1 0 0 1 19.5 152.898)" stroke="white" stroke-width="2"/>
<line y1="-1" x2="6" y2="-1" transform="matrix(-1 0 0 1 19.5 134.034)" stroke="white" stroke-width="2"/>
<line y1="-1" x2="6" y2="-1" transform="matrix(-1 0 0 1 19.5 115.173)" stroke="white" stroke-width="2"/>
<line y1="-1" x2="6" y2="-1" transform="matrix(-1 0 0 1 19.5 96.3105)" stroke="white" stroke-width="2"/>
<line y1="-1" x2="6" y2="-1" transform="matrix(-1 0 0 1 19.5 77.4492)" stroke="white" stroke-width="2"/>
<line y1="-1" x2="6" y2="-1" transform="matrix(-1 0 0 1 19.5 58.5879)" stroke="white" stroke-width="2"/>
<line y1="-1" x2="6" y2="-1" transform="matrix(-1 0 0 1 19.5 39.7227)" stroke="white" stroke-width="2"/>
<line y1="-1" x2="6" y2="-1" transform="matrix(-1 0 0 1 19.5 20.8613)" stroke="white" stroke-width="2"/>
<line y1="-1" x2="6" y2="-1" transform="matrix(-1 0 0 1 19.5 2)" stroke="white" stroke-width="2"/>
<line y1="-1" x2="6" y2="-1" transform="matrix(-1 0 0 1 19.5 586.729)" stroke="white" stroke-width="2"/>
<line y1="-1" x2="6" y2="-1" transform="matrix(-1 0 0 1 19.5 567.867)" stroke="white" stroke-width="2"/>
<line y1="-1" x2="6" y2="-1" transform="matrix(-1 0 0 1 19.5 549.002)" stroke="white" stroke-width="2"/>
<line y1="-1" x2="6" y2="-1" transform="matrix(-1 0 0 1 19.5 530.141)" stroke="white" stroke-width="2"/>
<line y1="-1" x2="6" y2="-1" transform="matrix(-1 0 0 1 19.5 511.279)" stroke="white" stroke-width="2"/>
<line y1="-1" x2="6" y2="-1" transform="matrix(-1 0 0 1 19.5 492.418)" stroke="white" stroke-width="2"/>
<line y1="-1" x2="6" y2="-1" transform="matrix(-1 0 0 1 19.5 473.557)" stroke="white" stroke-width="2"/>
<line y1="-1" x2="6" y2="-1" transform="matrix(-1 0 0 1 19.5 454.693)" stroke="white" stroke-width="2"/>
<line y1="-1" x2="6" y2="-1" transform="matrix(-1 0 0 1 19.5 435.83)" stroke="white" stroke-width="2"/>
<line y1="-1" x2="6" y2="-1" transform="matrix(-1 0 0 1 19.5 416.967)" stroke="white" stroke-width="2"/>
<line y1="-1" x2="6" y2="-1" transform="matrix(-1 0 0 1 19.5 398.105)" stroke="white" stroke-width="2"/>
<line y1="-1" x2="6" y2="-1" transform="matrix(-1 0 0 1 19.5 379.244)" stroke="white" stroke-width="2"/>
<path d="M6.26953 354.165H4.75195C3.9362 354.165 3.24805 354.238 2.6875 354.384C2.12695 354.53 1.67578 354.739 1.33398 355.013C0.992188 355.286 0.743815 355.617 0.588867 356.004C0.438477 356.387 0.363281 356.82 0.363281 357.303C0.363281 357.686 0.411133 358.039 0.506836 358.362C0.602539 358.686 0.755208 358.978 0.964844 359.237C1.17904 359.493 1.45703 359.711 1.79883 359.894C2.14062 360.076 2.55534 360.215 3.04297 360.311C3.5306 360.406 4.10026 360.454 4.75195 360.454H6.26953C7.08529 360.454 7.76888 360.381 8.32031 360.235C8.87174 360.085 9.3138 359.873 9.64648 359.6C9.98372 359.326 10.2253 358.998 10.3711 358.615C10.5169 358.228 10.5898 357.795 10.5898 357.316C10.5898 356.929 10.542 356.574 10.4463 356.25C10.3551 355.922 10.207 355.63 10.002 355.375C9.80143 355.12 9.53255 354.903 9.19531 354.726C8.86263 354.543 8.45475 354.404 7.97168 354.309C7.48861 354.213 6.92122 354.165 6.26953 354.165ZM4.54688 355.437H6.48145C6.92806 355.437 7.31999 355.464 7.65723 355.519C7.99902 355.569 8.29069 355.644 8.53223 355.744C8.77376 355.844 8.96973 355.972 9.12012 356.127C9.27051 356.277 9.37988 356.453 9.44824 356.653C9.52116 356.849 9.55762 357.07 9.55762 357.316C9.55762 357.617 9.50065 357.884 9.38672 358.116C9.27734 358.349 9.10189 358.545 8.86035 358.704C8.61882 358.859 8.30208 358.978 7.91016 359.06C7.51823 359.142 7.04199 359.183 6.48145 359.183H4.54688C4.10026 359.183 3.70605 359.158 3.36426 359.107C3.02246 359.053 2.72624 358.973 2.47559 358.868C2.22949 358.763 2.02669 358.636 1.86719 358.485C1.70768 358.335 1.58919 358.162 1.51172 357.966C1.4388 357.765 1.40234 357.544 1.40234 357.303C1.40234 356.993 1.46159 356.722 1.58008 356.489C1.69857 356.257 1.88314 356.063 2.13379 355.908C2.389 355.749 2.71484 355.63 3.11133 355.553C3.51237 355.475 3.99089 355.437 4.54688 355.437Z" fill="white"/>
<path d="M10.5078 261.946H0.5V263.211H8.92871L7.99902 265.761H9.14062L10.5078 262.145V261.946ZM6.26953 251.979H4.75195C3.9362 251.979 3.24805 252.052 2.6875 252.198C2.12695 252.344 1.67578 252.554 1.33398 252.827C0.992188 253.101 0.743815 253.431 0.588867 253.818C0.438477 254.201 0.363281 254.634 0.363281 255.117C0.363281 255.5 0.411133 255.853 0.506836 256.177C0.602539 256.5 0.755208 256.792 0.964844 257.052C1.17904 257.307 1.45703 257.526 1.79883 257.708C2.14062 257.89 2.55534 258.029 3.04297 258.125C3.5306 258.221 4.10026 258.269 4.75195 258.269H6.26953C7.08529 258.269 7.76888 258.196 8.32031 258.05C8.87174 257.899 9.3138 257.688 9.64648 257.414C9.98372 257.141 10.2253 256.812 10.3711 256.43C10.5169 256.042 10.5898 255.609 10.5898 255.131C10.5898 254.743 10.542 254.388 10.4463 254.064C10.3551 253.736 10.207 253.445 10.002 253.189C9.80143 252.934 9.53255 252.718 9.19531 252.54C8.86263 252.358 8.45475 252.219 7.97168 252.123C7.48861 252.027 6.92122 251.979 6.26953 251.979ZM4.54688 253.251H6.48145C6.92806 253.251 7.31999 253.278 7.65723 253.333C7.99902 253.383 8.29069 253.458 8.53223 253.559C8.77376 253.659 8.96973 253.786 9.12012 253.941C9.27051 254.092 9.37988 254.267 9.44824 254.468C9.52116 254.664 9.55762 254.885 9.55762 255.131C9.55762 255.432 9.50065 255.698 9.38672 255.931C9.27734 256.163 9.10189 256.359 8.86035 256.519C8.61882 256.674 8.30208 256.792 7.91016 256.874C7.51823 256.956 7.04199 256.997 6.48145 256.997H4.54688C4.10026 256.997 3.70605 256.972 3.36426 256.922C3.02246 256.867 2.72624 256.787 2.47559 256.683C2.22949 256.578 2.02669 256.45 1.86719 256.3C1.70768 256.149 1.58919 255.976 1.51172 255.78C1.4388 255.58 1.40234 255.359 1.40234 255.117C1.40234 254.807 1.46159 254.536 1.58008 254.304C1.69857 254.071 1.88314 253.878 2.13379 253.723C2.389 253.563 2.71484 253.445 3.11133 253.367C3.51237 253.29 3.99089 253.251 4.54688 253.251ZM6.26953 244.104H4.75195C3.9362 244.104 3.24805 244.177 2.6875 244.323C2.12695 244.469 1.67578 244.679 1.33398 244.952C0.992187 245.226 0.743815 245.556 0.588867 245.943C0.438477 246.326 0.363281 246.759 0.363281 247.242C0.363281 247.625 0.411133 247.978 0.506836 248.302C0.602539 248.625 0.755208 248.917 0.964844 249.177C1.17904 249.432 1.45703 249.651 1.79883 249.833C2.14062 250.015 2.55534 250.154 3.04297 250.25C3.5306 250.346 4.10026 250.394 4.75195 250.394H6.26953C7.08529 250.394 7.76888 250.321 8.32031 250.175C8.87174 250.024 9.3138 249.812 9.64648 249.539C9.98372 249.266 10.2253 248.938 10.3711 248.555C10.5169 248.167 10.5898 247.734 10.5898 247.256C10.5898 246.868 10.542 246.513 10.4463 246.189C10.3551 245.861 10.207 245.57 10.002 245.314C9.80143 245.059 9.53255 244.843 9.19531 244.665C8.86263 244.483 8.45475 244.344 7.97168 244.248C7.48861 244.152 6.92122 244.104 6.26953 244.104ZM4.54687 245.376H6.48145C6.92806 245.376 7.31999 245.403 7.65723 245.458C7.99902 245.508 8.29069 245.583 8.53223 245.684C8.77376 245.784 8.96973 245.911 9.12012 246.066C9.27051 246.217 9.37988 246.392 9.44824 246.593C9.52116 246.789 9.55762 247.01 9.55762 247.256C9.55762 247.557 9.50065 247.823 9.38672 248.056C9.27734 248.288 9.10189 248.484 8.86035 248.644C8.61882 248.799 8.30208 248.917 7.91016 248.999C7.51823 249.081 7.04199 249.122 6.48145 249.122H4.54687C4.10026 249.122 3.70605 249.097 3.36426 249.047C3.02246 248.992 2.72624 248.912 2.47559 248.808C2.22949 248.703 2.02669 248.575 1.86719 248.425C1.70768 248.274 1.58919 248.101 1.51172 247.905C1.4388 247.705 1.40234 247.484 1.40234 247.242C1.40234 246.932 1.46159 246.661 1.58008 246.429C1.69857 246.196 1.88314 246.003 2.13379 245.848C2.389 245.688 2.71484 245.57 3.11133 245.492C3.51237 245.415 3.99089 245.376 4.54687 245.376Z" fill="white"/>
<path d="M5.25098 451.1H4.21191V454.436H5.25098V451.1ZM10.5078 445.843H0.5V447.107H8.92871L7.99902 449.657H9.14062L10.5078 446.041V445.843ZM6.26953 435.876H4.75195C3.9362 435.876 3.24805 435.949 2.6875 436.095C2.12695 436.241 1.67578 436.45 1.33398 436.724C0.992187 436.997 0.743815 437.327 0.588867 437.715C0.438477 438.098 0.363281 438.531 0.363281 439.014C0.363281 439.396 0.411133 439.75 0.506836 440.073C0.602539 440.397 0.755208 440.688 0.964844 440.948C1.17904 441.203 1.45703 441.422 1.79883 441.604C2.14062 441.787 2.55534 441.926 3.04297 442.021C3.5306 442.117 4.10026 442.165 4.75195 442.165H6.26953C7.08529 442.165 7.76888 442.092 8.32031 441.946C8.87174 441.796 9.3138 441.584 9.64648 441.311C9.98372 441.037 10.2253 440.709 10.3711 440.326C10.5169 439.939 10.5898 439.506 10.5898 439.027C10.5898 438.64 10.542 438.285 10.4463 437.961C10.3551 437.633 10.207 437.341 10.002 437.086C9.80143 436.831 9.53255 436.614 9.19531 436.437C8.86263 436.254 8.45475 436.115 7.97168 436.02C7.48861 435.924 6.92122 435.876 6.26953 435.876ZM4.54687 437.147H6.48145C6.92806 437.147 7.31999 437.175 7.65723 437.229C7.99902 437.28 8.29069 437.355 8.53223 437.455C8.77376 437.555 8.96973 437.683 9.12012 437.838C9.27051 437.988 9.37988 438.164 9.44824 438.364C9.52116 438.56 9.55762 438.781 9.55762 439.027C9.55762 439.328 9.50065 439.595 9.38672 439.827C9.27734 440.06 9.10189 440.256 8.86035 440.415C8.61882 440.57 8.30208 440.688 7.91016 440.771C7.51823 440.853 7.04199 440.894 6.48145 440.894H4.54688C4.10026 440.894 3.70605 440.868 3.36426 440.818C3.02246 440.764 2.72624 440.684 2.47559 440.579C2.22949 440.474 2.02669 440.347 1.86719 440.196C1.70768 440.046 1.58919 439.873 1.51172 439.677C1.4388 439.476 1.40234 439.255 1.40234 439.014C1.40234 438.704 1.46159 438.433 1.58008 438.2C1.69857 437.968 1.88314 437.774 2.13379 437.619C2.389 437.46 2.71484 437.341 3.11133 437.264C3.51237 437.186 3.99089 437.147 4.54687 437.147ZM6.26953 428.001H4.75195C3.9362 428.001 3.24805 428.074 2.6875 428.22C2.12695 428.366 1.67578 428.575 1.33398 428.849C0.992187 429.122 0.743815 429.452 0.588867 429.84C0.438477 430.223 0.363281 430.656 0.363281 431.139C0.363281 431.521 0.411133 431.875 0.506836 432.198C0.602539 432.522 0.755208 432.813 0.964844 433.073C1.17904 433.328 1.45703 433.547 1.79883 433.729C2.14062 433.912 2.55534 434.051 3.04297 434.146C3.5306 434.242 4.10026 434.29 4.75195 434.29H6.26953C7.08529 434.29 7.76888 434.217 8.32031 434.071C8.87174 433.921 9.3138 433.709 9.64648 433.436C9.98372 433.162 10.2253 432.834 10.3711 432.451C10.5169 432.064 10.5898 431.631 10.5898 431.152C10.5898 430.765 10.542 430.41 10.4463 430.086C10.3551 429.758 10.207 429.466 10.002 429.211C9.80143 428.956 9.53255 428.739 9.19531 428.562C8.86263 428.379 8.45475 428.24 7.97168 428.145C7.48861 428.049 6.92122 428.001 6.26953 428.001ZM4.54687 429.272H6.48145C6.92806 429.272 7.31999 429.3 7.65723 429.354C7.99902 429.405 8.29069 429.48 8.53223 429.58C8.77376 429.68 8.96973 429.808 9.12012 429.963C9.27051 430.113 9.37988 430.289 9.44824 430.489C9.52116 430.685 9.55762 430.906 9.55762 431.152C9.55762 431.453 9.50065 431.72 9.38672 431.952C9.27734 432.185 9.10189 432.381 8.86035 432.54C8.61882 432.695 8.30208 432.813 7.91016 432.896C7.51823 432.978 7.04199 433.019 6.48145 433.019H4.54687C4.10026 433.019 3.70605 432.993 3.36426 432.943C3.02246 432.889 2.72624 432.809 2.47559 432.704C2.22949 432.599 2.02669 432.472 1.86719 432.321C1.70768 432.171 1.58919 431.998 1.51172 431.802C1.4388 431.601 1.40234 431.38 1.40234 431.139C1.40234 430.829 1.46159 430.558 1.58008 430.325C1.69857 430.093 1.88314 429.899 2.13379 429.744C2.389 429.585 2.71484 429.466 3.11133 429.389C3.51237 429.311 3.99089 429.272 4.54687 429.272Z" fill="white"/>
<path d="M5.25098 545.41H4.21191V548.746H5.25098V545.41ZM1.53906 537.788H0.5V544.303H1.40918L5.03906 541.042C5.48568 540.641 5.86393 540.331 6.17383 540.112C6.48828 539.889 6.76855 539.734 7.01465 539.647C7.2653 539.556 7.52051 539.511 7.78027 539.511C8.1084 539.511 8.40462 539.579 8.66895 539.716C8.93783 539.848 9.15202 540.044 9.31152 540.304C9.47103 540.563 9.55078 540.878 9.55078 541.247C9.55078 541.689 9.46419 542.058 9.29102 542.354C9.1224 542.646 8.88542 542.865 8.58008 543.011C8.27474 543.157 7.92383 543.229 7.52734 543.229V544.494C8.08789 544.494 8.60059 544.371 9.06543 544.125C9.53027 543.879 9.89941 543.514 10.1729 543.031C10.4508 542.548 10.5898 541.953 10.5898 541.247C10.5898 540.618 10.4782 540.08 10.2549 539.634C10.0361 539.187 9.72624 538.845 9.3252 538.608C8.92871 538.367 8.46387 538.246 7.93066 538.246C7.639 538.246 7.34277 538.296 7.04199 538.396C6.74577 538.492 6.44954 538.627 6.15332 538.8C5.8571 538.968 5.56543 539.167 5.27832 539.395C4.99121 539.618 4.70866 539.857 4.43066 540.112L1.53906 542.778V537.788ZM6.26953 530.187H4.75195C3.9362 530.187 3.24805 530.259 2.6875 530.405C2.12695 530.551 1.67578 530.761 1.33398 531.034C0.992187 531.308 0.743815 531.638 0.588867 532.025C0.438477 532.408 0.363281 532.841 0.363281 533.324C0.363281 533.707 0.411133 534.06 0.506836 534.384C0.602539 534.707 0.755208 534.999 0.964844 535.259C1.17904 535.514 1.45703 535.733 1.79883 535.915C2.14062 536.097 2.55534 536.236 3.04297 536.332C3.5306 536.428 4.10026 536.476 4.75195 536.476H6.26953C7.08529 536.476 7.76888 536.403 8.32031 536.257C8.87174 536.106 9.3138 535.895 9.64648 535.621C9.98372 535.348 10.2253 535.02 10.3711 534.637C10.5169 534.249 10.5898 533.816 10.5898 533.338C10.5898 532.951 10.542 532.595 10.4463 532.271C10.3551 531.943 10.207 531.652 10.002 531.396C9.80143 531.141 9.53255 530.925 9.19531 530.747C8.86263 530.565 8.45475 530.426 7.97168 530.33C7.48861 530.234 6.92122 530.187 6.26953 530.187ZM4.54687 531.458H6.48145C6.92806 531.458 7.31999 531.485 7.65723 531.54C7.99902 531.59 8.29069 531.665 8.53223 531.766C8.77376 531.866 8.96973 531.993 9.12012 532.148C9.27051 532.299 9.37988 532.474 9.44824 532.675C9.52116 532.871 9.55762 533.092 9.55762 533.338C9.55762 533.639 9.50065 533.905 9.38672 534.138C9.27734 534.37 9.10189 534.566 8.86035 534.726C8.61882 534.881 8.30208 534.999 7.91016 535.081C7.51823 535.163 7.04199 535.204 6.48145 535.204H4.54688C4.10026 535.204 3.70605 535.179 3.36426 535.129C3.02246 535.074 2.72624 534.994 2.47559 534.89C2.22949 534.785 2.02669 534.657 1.86719 534.507C1.70768 534.356 1.58919 534.183 1.51172 533.987C1.4388 533.787 1.40234 533.566 1.40234 533.324C1.40234 533.014 1.46159 532.743 1.58008 532.511C1.69857 532.278 1.88314 532.085 2.13379 531.93C2.389 531.77 2.71484 531.652 3.11133 531.574C3.51237 531.497 3.99089 531.458 4.54687 531.458ZM6.26953 522.312H4.75195C3.9362 522.312 3.24805 522.384 2.6875 522.53C2.12695 522.676 1.67578 522.886 1.33398 523.159C0.992187 523.433 0.743815 523.763 0.588867 524.15C0.438477 524.533 0.363281 524.966 0.363281 525.449C0.363281 525.832 0.411133 526.185 0.506836 526.509C0.602539 526.832 0.755208 527.124 0.964844 527.384C1.17904 527.639 1.45703 527.858 1.79883 528.04C2.14062 528.222 2.55534 528.361 3.04297 528.457C3.5306 528.553 4.10026 528.601 4.75195 528.601H6.26953C7.08529 528.601 7.76888 528.528 8.32031 528.382C8.87174 528.231 9.3138 528.02 9.64648 527.746C9.98372 527.473 10.2253 527.145 10.3711 526.762C10.5169 526.374 10.5898 525.941 10.5898 525.463C10.5898 525.076 10.542 524.72 10.4463 524.396C10.3551 524.068 10.207 523.777 10.002 523.521C9.80143 523.266 9.53255 523.05 9.19531 522.872C8.86263 522.69 8.45475 522.551 7.97168 522.455C7.48861 522.359 6.92122 522.312 6.26953 522.312ZM4.54687 523.583H6.48145C6.92806 523.583 7.31999 523.61 7.65723 523.665C7.99902 523.715 8.29069 523.79 8.53223 523.891C8.77376 523.991 8.96973 524.118 9.12012 524.273C9.27051 524.424 9.37988 524.599 9.44824 524.8C9.52116 524.996 9.55762 525.217 9.55762 525.463C9.55762 525.764 9.50065 526.03 9.38672 526.263C9.27734 526.495 9.10189 526.691 8.86035 526.851C8.61882 527.006 8.30208 527.124 7.91016 527.206C7.51823 527.288 7.04199 527.329 6.48145 527.329H4.54687C4.10026 527.329 3.70605 527.304 3.36426 527.254C3.02246 527.199 2.72624 527.119 2.47559 527.015C2.22949 526.91 2.02669 526.782 1.86719 526.632C1.70768 526.481 1.58919 526.308 1.51172 526.112C1.4388 525.912 1.40234 525.691 1.40234 525.449C1.40234 525.139 1.46159 524.868 1.58008 524.636C1.69857 524.403 1.88314 524.21 2.13379 524.055C2.389 523.895 2.71484 523.777 3.11133 523.699C3.51237 523.622 3.99089 523.583 4.54687 523.583Z" fill="white"/>
<path d="M1.53906 164.412H0.5V170.927H1.40918L5.03906 167.666C5.48568 167.265 5.86393 166.955 6.17383 166.736C6.48828 166.513 6.76855 166.358 7.01465 166.271C7.2653 166.18 7.52051 166.135 7.78027 166.135C8.1084 166.135 8.40462 166.203 8.66895 166.34C8.93783 166.472 9.15202 166.668 9.31152 166.928C9.47103 167.188 9.55078 167.502 9.55078 167.871C9.55078 168.313 9.46419 168.682 9.29102 168.979C9.1224 169.27 8.88542 169.489 8.58008 169.635C8.27474 169.781 7.92383 169.854 7.52734 169.854V171.118C8.08789 171.118 8.60059 170.995 9.06543 170.749C9.53027 170.503 9.89941 170.138 10.1729 169.655C10.4508 169.172 10.5898 168.577 10.5898 167.871C10.5898 167.242 10.4782 166.704 10.2549 166.258C10.0361 165.811 9.72624 165.469 9.3252 165.232C8.92871 164.991 8.46387 164.87 7.93066 164.87C7.639 164.87 7.34277 164.92 7.04199 165.021C6.74577 165.116 6.44954 165.251 6.15332 165.424C5.8571 165.592 5.56543 165.791 5.27832 166.019C4.99121 166.242 4.70866 166.481 4.43066 166.736L1.53906 169.402V164.412ZM6.26953 156.811H4.75195C3.9362 156.811 3.24805 156.883 2.6875 157.029C2.12695 157.175 1.67578 157.385 1.33398 157.658C0.992188 157.932 0.743815 158.262 0.588867 158.649C0.438477 159.032 0.363281 159.465 0.363281 159.948C0.363281 160.331 0.411133 160.684 0.506836 161.008C0.602539 161.331 0.755208 161.623 0.964844 161.883C1.17904 162.138 1.45703 162.357 1.79883 162.539C2.14062 162.721 2.55534 162.86 3.04297 162.956C3.5306 163.052 4.10026 163.1 4.75195 163.1H6.26953C7.08529 163.1 7.76888 163.027 8.32031 162.881C8.87174 162.73 9.3138 162.519 9.64648 162.245C9.98372 161.972 10.2253 161.644 10.3711 161.261C10.5169 160.873 10.5898 160.44 10.5898 159.962C10.5898 159.575 10.542 159.219 10.4463 158.896C10.3551 158.567 10.207 158.276 10.002 158.021C9.80143 157.765 9.53255 157.549 9.19531 157.371C8.86263 157.189 8.45475 157.05 7.97168 156.954C7.48861 156.858 6.92122 156.811 6.26953 156.811ZM4.54688 158.082H6.48145C6.92806 158.082 7.31999 158.109 7.65723 158.164C7.99902 158.214 8.29069 158.289 8.53223 158.39C8.77376 158.49 8.96973 158.618 9.12012 158.772C9.27051 158.923 9.37988 159.098 9.44824 159.299C9.52116 159.495 9.55762 159.716 9.55762 159.962C9.55762 160.263 9.50065 160.529 9.38672 160.762C9.27734 160.994 9.10189 161.19 8.86035 161.35C8.61882 161.505 8.30208 161.623 7.91016 161.705C7.51823 161.787 7.04199 161.828 6.48145 161.828H4.54688C4.10026 161.828 3.70605 161.803 3.36426 161.753C3.02246 161.698 2.72624 161.618 2.47559 161.514C2.22949 161.409 2.02669 161.281 1.86719 161.131C1.70768 160.98 1.58919 160.807 1.51172 160.611C1.4388 160.411 1.40234 160.19 1.40234 159.948C1.40234 159.638 1.46159 159.367 1.58008 159.135C1.69857 158.902 1.88314 158.709 2.13379 158.554C2.389 158.394 2.71484 158.276 3.11133 158.198C3.51237 158.121 3.99089 158.082 4.54688 158.082ZM6.26953 148.936H4.75195C3.9362 148.936 3.24805 149.008 2.6875 149.154C2.12695 149.3 1.67578 149.51 1.33398 149.783C0.992187 150.057 0.743815 150.387 0.588867 150.774C0.438477 151.157 0.363281 151.59 0.363281 152.073C0.363281 152.456 0.411133 152.809 0.506836 153.133C0.602539 153.456 0.755208 153.748 0.964844 154.008C1.17904 154.263 1.45703 154.482 1.79883 154.664C2.14062 154.846 2.55534 154.985 3.04297 155.081C3.5306 155.177 4.10026 155.225 4.75195 155.225H6.26953C7.08529 155.225 7.76888 155.152 8.32031 155.006C8.87174 154.855 9.3138 154.644 9.64648 154.37C9.98372 154.097 10.2253 153.769 10.3711 153.386C10.5169 152.998 10.5898 152.565 10.5898 152.087C10.5898 151.7 10.542 151.344 10.4463 151.021C10.3551 150.692 10.207 150.401 10.002 150.146C9.80143 149.89 9.53255 149.674 9.19531 149.496C8.86263 149.314 8.45475 149.175 7.97168 149.079C7.48861 148.983 6.92122 148.936 6.26953 148.936ZM4.54687 150.207H6.48145C6.92806 150.207 7.31999 150.234 7.65723 150.289C7.99902 150.339 8.29069 150.414 8.53223 150.515C8.77376 150.615 8.96973 150.743 9.12012 150.897C9.27051 151.048 9.37988 151.223 9.44824 151.424C9.52116 151.62 9.55762 151.841 9.55762 152.087C9.55762 152.388 9.50065 152.654 9.38672 152.887C9.27734 153.119 9.10189 153.315 8.86035 153.475C8.61882 153.63 8.30208 153.748 7.91016 153.83C7.51823 153.912 7.04199 153.953 6.48145 153.953H4.54687C4.10026 153.953 3.70605 153.928 3.36426 153.878C3.02246 153.823 2.72624 153.743 2.47559 153.639C2.22949 153.534 2.02669 153.406 1.86719 153.256C1.70768 153.105 1.58919 152.932 1.51172 152.736C1.4388 152.536 1.40234 152.315 1.40234 152.073C1.40234 151.763 1.46159 151.492 1.58008 151.26C1.69857 151.027 1.88314 150.834 2.13379 150.679C2.389 150.519 2.71484 150.401 3.11133 150.323C3.51237 150.246 3.99089 150.207 4.54687 150.207Z" fill="white"/>
<path d="M6.09863 74.7773V73.875C6.09863 73.4329 6.17155 73.0684 6.31738 72.7812C6.46777 72.4896 6.67057 72.2731 6.92578 72.1318C7.18555 71.986 7.47721 71.9131 7.80078 71.9131C8.18359 71.9131 8.50488 71.9769 8.76465 72.1045C9.02441 72.2321 9.22038 72.4235 9.35254 72.6787C9.4847 72.9339 9.55078 73.2575 9.55078 73.6494C9.55078 74.0049 9.48014 74.3193 9.33887 74.5928C9.20215 74.8617 9.00618 75.0736 8.75098 75.2285C8.49577 75.3789 8.19499 75.4541 7.84863 75.4541V76.7188C8.35449 76.7188 8.81478 76.5911 9.22949 76.3359C9.64421 76.0807 9.97461 75.723 10.2207 75.2627C10.4668 74.7979 10.5898 74.2601 10.5898 73.6494C10.5898 73.0479 10.4827 72.5215 10.2686 72.0703C10.0589 71.6191 9.74447 71.2682 9.3252 71.0176C8.91048 70.7669 8.39323 70.6416 7.77344 70.6416C7.52279 70.6416 7.25391 70.7008 6.9668 70.8193C6.68424 70.9333 6.41992 71.1133 6.17383 71.3594C5.92773 71.6009 5.72493 71.9154 5.56543 72.3027C5.41048 72.6901 5.33301 73.1549 5.33301 73.6973V74.7773H6.09863ZM5.05957 74.7773H5.81836V73.6973C5.81836 73.0638 5.74316 72.5397 5.59277 72.125C5.44238 71.7103 5.24186 71.3844 4.99121 71.1475C4.74056 70.9059 4.46484 70.7373 4.16406 70.6416C3.86784 70.5413 3.57161 70.4912 3.27539 70.4912C2.81055 70.4912 2.39811 70.571 2.03809 70.7305C1.67806 70.8854 1.37272 71.1064 1.12207 71.3936C0.871419 71.6761 0.682292 72.0088 0.554688 72.3916C0.427083 72.7744 0.363281 73.1914 0.363281 73.6426C0.363281 74.0755 0.424805 74.4834 0.547852 74.8662C0.670898 75.2445 0.848633 75.5794 1.08105 75.8711C1.31803 76.1628 1.60742 76.3906 1.94922 76.5547C2.29557 76.7188 2.68978 76.8008 3.13184 76.8008V75.5361C2.78548 75.5361 2.48242 75.4609 2.22266 75.3105C1.96289 75.1556 1.76009 74.9368 1.61426 74.6543C1.47298 74.3672 1.40234 74.0299 1.40234 73.6426C1.40234 73.2552 1.46842 72.9225 1.60059 72.6445C1.7373 72.362 1.94238 72.1455 2.21582 71.9951C2.48926 71.8402 2.83333 71.7627 3.24805 71.7627C3.66276 71.7627 4.00228 71.8493 4.2666 72.0225C4.53548 72.1956 4.73372 72.4417 4.86133 72.7607C4.99349 73.0752 5.05957 73.4466 5.05957 73.875V74.7773ZM6.26953 62.5H4.75195C3.9362 62.5 3.24805 62.5729 2.6875 62.7188C2.12695 62.8646 1.67578 63.0742 1.33398 63.3477C0.992188 63.6211 0.743815 63.9515 0.588867 64.3389C0.438477 64.7217 0.363281 65.1546 0.363281 65.6377C0.363281 66.0205 0.411133 66.3737 0.506836 66.6973C0.602539 67.0208 0.755208 67.3125 0.964844 67.5723C1.17904 67.8275 1.45703 68.0462 1.79883 68.2285C2.14062 68.4108 2.55534 68.5498 3.04297 68.6455C3.5306 68.7412 4.10026 68.7891 4.75195 68.7891H6.26953C7.08529 68.7891 7.76888 68.7161 8.32031 68.5703C8.87174 68.4199 9.3138 68.208 9.64648 67.9346C9.98372 67.6611 10.2253 67.333 10.3711 66.9502C10.5169 66.5628 10.5898 66.1299 10.5898 65.6514C10.5898 65.264 10.542 64.9085 10.4463 64.585C10.3551 64.2568 10.207 63.9652 10.002 63.71C9.80143 63.4548 9.53255 63.2383 9.19531 63.0605C8.86263 62.8783 8.45475 62.7393 7.97168 62.6436C7.48861 62.5479 6.92122 62.5 6.26953 62.5ZM4.54688 63.7715H6.48145C6.92806 63.7715 7.31999 63.7988 7.65723 63.8535C7.99902 63.9036 8.29069 63.9788 8.53223 64.0791C8.77376 64.1794 8.96973 64.307 9.12012 64.4619C9.27051 64.6123 9.37988 64.7878 9.44824 64.9883C9.52116 65.1842 9.55762 65.4053 9.55762 65.6514C9.55762 65.9521 9.50065 66.2188 9.38672 66.4512C9.27734 66.6836 9.10189 66.8796 8.86035 67.0391C8.61882 67.194 8.30208 67.3125 7.91016 67.3945C7.51823 67.4766 7.04199 67.5176 6.48145 67.5176H4.54688C4.10026 67.5176 3.70605 67.4925 3.36426 67.4424C3.02246 67.3877 2.72624 67.3079 2.47559 67.2031C2.22949 67.0983 2.02669 66.9707 1.86719 66.8203C1.70768 66.6699 1.58919 66.4967 1.51172 66.3008C1.4388 66.1003 1.40234 65.8792 1.40234 65.6377C1.40234 65.3278 1.46159 65.0566 1.58008 64.8242C1.69857 64.5918 1.88314 64.3981 2.13379 64.2432C2.389 64.0837 2.71484 63.9652 3.11133 63.8877C3.51237 63.8102 3.99089 63.7715 4.54688 63.7715ZM6.26953 54.625H4.75195C3.9362 54.625 3.24805 54.6979 2.6875 54.8438C2.12695 54.9896 1.67578 55.1992 1.33398 55.4727C0.992187 55.7461 0.743815 56.0765 0.588867 56.4639C0.438477 56.8467 0.363281 57.2796 0.363281 57.7627C0.363281 58.1455 0.411133 58.4987 0.506836 58.8223C0.602539 59.1458 0.755208 59.4375 0.964844 59.6973C1.17904 59.9525 1.45703 60.1712 1.79883 60.3535C2.14062 60.5358 2.55534 60.6748 3.04297 60.7705C3.5306 60.8662 4.10026 60.9141 4.75195 60.9141H6.26953C7.08529 60.9141 7.76888 60.8411 8.32031 60.6953C8.87174 60.5449 9.3138 60.333 9.64648 60.0596C9.98372 59.7861 10.2253 59.458 10.3711 59.0752C10.5169 58.6878 10.5898 58.2549 10.5898 57.7764C10.5898 57.389 10.542 57.0335 10.4463 56.71C10.3551 56.3818 10.207 56.0902 10.002 55.835C9.80143 55.5798 9.53255 55.3633 9.19531 55.1855C8.86263 55.0033 8.45475 54.8643 7.97168 54.7686C7.48861 54.6729 6.92122 54.625 6.26953 54.625ZM4.54687 55.8965H6.48145C6.92806 55.8965 7.31999 55.9238 7.65723 55.9785C7.99902 56.0286 8.29069 56.1038 8.53223 56.2041C8.77376 56.3044 8.96973 56.432 9.12012 56.5869C9.27051 56.7373 9.37988 56.9128 9.44824 57.1133C9.52116 57.3092 9.55762 57.5303 9.55762 57.7764C9.55762 58.0771 9.50065 58.3438 9.38672 58.5762C9.27734 58.8086 9.10189 59.0046 8.86035 59.1641C8.61882 59.319 8.30208 59.4375 7.91016 59.5195C7.51823 59.6016 7.04199 59.6426 6.48145 59.6426H4.54687C4.10026 59.6426 3.70605 59.6175 3.36426 59.5674C3.02246 59.5127 2.72624 59.4329 2.47559 59.3281C2.22949 59.2233 2.02669 59.0957 1.86719 58.9453C1.70768 58.7949 1.58919 58.6217 1.51172 58.4258C1.4388 58.2253 1.40234 58.0042 1.40234 57.7627C1.40234 57.4528 1.46159 57.1816 1.58008 56.9492C1.69857 56.7168 1.88314 56.5231 2.13379 56.3682C2.389 56.2087 2.71484 56.0902 3.11133 56.0127C3.51237 55.9352 3.99089 55.8965 4.54687 55.8965Z" fill="white"/>
</svg>
