<svg width="1200" height="856" viewBox="0 0 1200 856" fill="none" xmlns="http://www.w3.org/2000/svg">
<ellipse cx="600" cy="508.378" rx="600" ry="347.62" fill="url(#paint0_linear_232_3390)"/>
<rect y="350.75" width="1200" height="162.849" fill="url(#paint1_linear_232_3390)"/>
<ellipse cx="600" cy="347.62" rx="600" ry="347.62" fill="url(#paint2_linear_232_3390)"/>
<ellipse cx="598.954" cy="338.225" rx="586.411" ry="338.225" fill="url(#paint3_radial_232_3390)"/>
<path d="M926.061 320.667C926.085 321.329 926.102 321.992 926.114 322.656C925.839 322.66 925.618 322.886 925.622 323.162C925.629 323.659 925.632 324.156 925.632 324.654C925.632 325.151 925.629 325.648 925.622 326.145C925.618 326.42 925.839 326.647 926.114 326.651C926.102 327.315 926.085 327.978 926.061 328.64C925.785 328.629 925.553 328.844 925.542 329.119C925.503 330.109 925.45 331.097 925.383 332.083C925.365 332.358 925.573 332.596 925.848 332.615C925.801 333.274 925.748 333.931 925.689 334.588C925.415 334.562 925.171 334.764 925.146 335.039C925.053 336.026 924.947 337.012 924.828 337.995C924.795 338.269 924.99 338.518 925.263 338.551C925.181 339.208 925.093 339.863 924.999 340.518C924.726 340.478 924.472 340.666 924.432 340.939C924.287 341.918 924.129 342.895 923.958 343.87C923.911 344.142 924.092 344.401 924.364 344.449C924.247 345.099 924.124 345.748 923.996 346.396C923.726 346.342 923.463 346.517 923.408 346.787C923.212 347.758 923.003 348.726 922.781 349.691C922.719 349.96 922.887 350.228 923.155 350.29C923.004 350.935 922.848 351.578 922.686 352.221C922.419 352.153 922.147 352.314 922.078 352.581C921.832 353.538 921.574 354.493 921.303 355.445C921.228 355.71 921.382 355.986 921.647 356.062C921.464 356.696 921.275 357.329 921.081 357.961C920.818 357.879 920.538 358.027 920.456 358.29C920.161 359.236 919.854 360.179 919.535 361.12C919.447 361.382 919.586 361.665 919.847 361.754C919.633 362.378 919.413 363.002 919.188 363.624C918.929 363.53 918.642 363.663 918.547 363.922C918.208 364.848 917.856 365.772 917.493 366.693C917.392 366.949 917.518 367.239 917.774 367.341C917.529 367.956 917.279 368.569 917.024 369.182C916.769 369.075 916.477 369.194 916.37 369.449C915.985 370.362 915.588 371.273 915.18 372.181C915.067 372.433 915.179 372.729 915.43 372.842C915.159 373.439 914.883 374.035 914.602 374.63C914.353 374.512 914.055 374.617 913.937 374.866C913.511 375.759 913.075 376.648 912.627 377.535C912.503 377.782 912.601 378.082 912.847 378.207C912.545 378.8 912.239 379.391 911.927 379.982C911.683 379.853 911.381 379.945 911.252 380.188C910.789 381.057 910.316 381.923 909.833 382.786C909.698 383.026 909.784 383.331 910.024 383.466C909.7 384.039 909.372 384.611 909.039 385.181C908.801 385.042 908.495 385.121 908.355 385.359C907.853 386.214 907.339 387.067 906.816 387.916C906.671 388.151 906.744 388.459 906.979 388.604C906.63 389.165 906.277 389.725 905.92 390.284C905.688 390.135 905.379 390.203 905.23 390.434C904.697 391.261 904.155 392.085 903.603 392.907C903.449 393.136 903.51 393.446 903.738 393.6C903.368 394.148 902.993 394.694 902.614 395.239C902.387 395.081 902.076 395.136 901.918 395.362C901.347 396.178 900.766 396.991 900.175 397.801C900.013 398.024 900.062 398.336 900.284 398.499C899.898 399.025 899.508 399.55 899.115 400.074C898.894 399.908 898.581 399.951 898.415 400.171C897.819 400.957 897.215 401.741 896.602 402.522C896.431 402.739 896.469 403.053 896.685 403.224C896.273 403.745 895.858 404.265 895.438 404.783C895.224 404.61 894.909 404.642 894.735 404.856C894.11 405.624 893.476 406.389 892.833 407.151C892.655 407.362 892.682 407.677 892.893 407.855C892.47 408.354 892.043 408.851 891.613 409.347C891.405 409.166 891.09 409.188 890.908 409.396C890.258 410.142 889.6 410.884 888.933 411.624C888.749 411.829 888.765 412.145 888.97 412.33C888.522 412.824 888.07 413.318 887.615 413.809C887.413 413.622 887.097 413.633 886.909 413.835C886.239 414.556 885.56 415.274 884.874 415.988C884.683 416.188 884.69 416.504 884.888 416.695C884.433 417.167 883.974 417.638 883.512 418.107C883.316 417.914 883 417.915 882.806 418.112C882.108 418.816 881.404 419.518 880.691 420.218C880.494 420.411 880.491 420.727 880.684 420.924C880.206 421.391 879.724 421.857 879.239 422.322C879.048 422.123 878.732 422.115 878.532 422.305C877.823 422.981 877.106 423.655 876.383 424.325C876.18 424.513 876.168 424.829 876.355 425.031C875.872 425.477 875.386 425.921 874.896 426.364C874.711 426.16 874.396 426.143 874.191 426.328C873.453 426.993 872.708 427.655 871.956 428.314C871.749 428.496 871.728 428.811 871.91 429.019C871.408 429.457 870.903 429.893 870.395 430.329C870.216 430.119 869.901 430.094 869.691 430.273C868.945 430.91 868.192 431.544 867.432 432.175C867.22 432.352 867.191 432.667 867.367 432.879C866.86 433.299 866.35 433.717 865.837 434.134C865.664 433.92 865.349 433.887 865.135 434.061C864.362 434.687 863.583 435.31 862.798 435.929C862.581 436.1 862.544 436.415 862.715 436.631C862.193 437.042 861.667 437.452 861.139 437.86C860.971 437.641 860.657 437.601 860.438 437.769C859.66 438.368 858.876 438.964 858.086 439.557C857.866 439.723 857.821 440.036 857.987 440.257C857.459 440.651 856.929 441.044 856.397 441.436C856.234 441.214 855.921 441.166 855.698 441.329C854.897 441.917 854.089 442.502 853.275 443.084C853.05 443.244 852.999 443.556 853.159 443.781C852.617 444.167 852.073 444.552 851.526 444.935C851.368 444.709 851.056 444.654 850.83 444.812C850.025 445.374 849.214 445.933 848.398 446.49C848.17 446.646 848.111 446.956 848.267 447.185C847.722 447.554 847.176 447.923 846.626 448.29C846.473 448.061 846.163 447.999 845.933 448.152C845.106 448.703 844.274 449.251 843.436 449.797C843.205 449.947 843.139 450.257 843.29 450.488C842.73 450.852 842.167 451.214 841.602 451.574C841.454 451.341 841.145 451.273 840.912 451.421C840.084 451.948 839.25 452.472 838.412 452.993C838.178 453.139 838.106 453.447 838.252 453.682C837.693 454.028 837.132 454.373 836.569 454.716C836.426 454.48 836.118 454.405 835.882 454.549C835.034 455.065 834.18 455.578 833.322 456.088C833.085 456.229 833.007 456.536 833.148 456.773C832.573 457.114 831.995 457.453 831.416 457.791C831.277 457.553 830.971 457.472 830.732 457.61C829.881 458.105 829.026 458.597 828.166 459.086C827.926 459.222 827.842 459.527 827.978 459.767C827.408 460.091 826.835 460.413 826.26 460.733C826.126 460.492 825.822 460.405 825.58 460.54C824.714 461.021 823.843 461.501 822.967 461.977C822.725 462.109 822.635 462.413 822.767 462.655C822.181 462.973 821.593 463.289 821.003 463.604C820.873 463.36 820.57 463.268 820.327 463.398C819.452 463.863 818.574 464.326 817.691 464.785C817.446 464.913 817.351 465.215 817.478 465.46C816.897 465.761 816.315 466.061 815.73 466.36C815.605 466.114 815.304 466.016 815.058 466.141C814.176 466.591 813.29 467.037 812.4 467.481C812.153 467.604 812.052 467.905 812.175 468.152C811.581 468.447 810.984 468.741 810.385 469.035C810.264 468.786 809.965 468.683 809.717 468.804C808.82 469.242 807.919 469.677 807.013 470.109C806.764 470.228 806.658 470.526 806.777 470.775C806.188 471.056 805.598 471.334 805.005 471.612C804.888 471.362 804.591 471.254 804.341 471.371C803.446 471.789 802.547 472.204 801.644 472.617C801.393 472.732 801.283 473.028 801.398 473.279C800.795 473.554 800.191 473.827 799.586 474.099C799.473 473.847 799.177 473.734 798.925 473.846C798.015 474.254 797.101 474.658 796.183 475.06C795.93 475.17 795.814 475.465 795.925 475.718C795.32 475.982 794.714 476.244 794.106 476.506C793.997 476.252 793.704 476.134 793.45 476.243C792.544 476.631 791.634 477.016 790.721 477.398C790.467 477.505 790.347 477.798 790.453 478.053C789.845 478.307 789.235 478.559 788.624 478.811C788.519 478.556 788.227 478.433 787.972 478.538C787.052 478.915 786.128 479.29 785.201 479.661C784.945 479.764 784.82 480.055 784.923 480.311C784.302 480.559 783.68 480.806 783.057 481.051C782.956 480.794 782.666 480.668 782.409 480.769C781.492 481.128 780.572 481.485 779.649 481.839C779.391 481.938 779.262 482.227 779.361 482.485C778.748 482.719 778.133 482.953 777.517 483.185C777.42 482.926 777.132 482.795 776.873 482.892C775.945 483.241 775.013 483.586 774.079 483.929C773.819 484.024 773.686 484.312 773.781 484.571C773.157 484.799 772.531 485.026 771.904 485.252C771.81 484.992 771.524 484.857 771.264 484.95C770.327 485.287 769.385 485.62 768.441 485.951C768.181 486.043 768.043 486.328 768.135 486.588C767.518 486.804 766.899 487.018 766.28 487.232C766.19 486.97 765.906 486.831 765.645 486.921C764.709 487.241 763.771 487.559 762.83 487.875C762.568 487.962 762.427 488.245 762.515 488.507C761.887 488.717 761.258 488.925 760.628 489.132C760.542 488.869 760.26 488.726 759.997 488.812C759.05 489.122 758.1 489.429 757.147 489.734C756.884 489.818 756.739 490.099 756.823 490.362C756.192 490.563 755.559 490.763 754.925 490.962C754.842 490.698 754.562 490.551 754.299 490.634C753.358 490.927 752.414 491.218 751.467 491.507C751.203 491.587 751.054 491.867 751.135 492.131C750.505 492.322 749.874 492.512 749.241 492.701C749.163 492.436 748.884 492.286 748.62 492.364C747.668 492.648 746.713 492.928 745.756 493.206C745.491 493.283 745.338 493.56 745.415 493.825C744.775 494.01 744.135 494.194 743.493 494.376C743.417 494.111 743.141 493.957 742.876 494.032C741.92 494.302 740.962 494.57 740.002 494.835C739.736 494.909 739.58 495.184 739.653 495.45C739.021 495.624 738.389 495.796 737.755 495.967C737.683 495.701 737.409 495.543 737.142 495.615C736.186 495.872 735.228 496.127 734.267 496.379C734 496.449 733.84 496.722 733.91 496.989C733.27 497.157 732.628 497.323 731.985 497.488C731.917 497.22 731.644 497.059 731.377 497.127C730.411 497.374 729.443 497.618 728.472 497.86C728.204 497.927 728.041 498.198 728.108 498.466C727.465 498.625 726.822 498.783 726.178 498.939C726.113 498.671 725.843 498.507 725.574 498.571C724.615 498.804 723.654 499.033 722.69 499.26C722.422 499.324 722.255 499.593 722.318 499.862C721.677 500.012 721.035 500.161 720.392 500.309C720.33 500.04 720.062 499.872 719.793 499.934C718.825 500.156 717.854 500.375 716.881 500.592C716.612 500.652 716.442 500.919 716.502 501.188C715.853 501.332 715.202 501.475 714.551 501.616C714.492 501.347 714.226 501.175 713.956 501.234C712.985 501.444 712.011 501.651 711.035 501.856C710.765 501.913 710.591 502.178 710.648 502.448C710.007 502.582 709.364 502.715 708.721 502.847C708.666 502.576 708.402 502.402 708.131 502.457C707.161 502.655 706.189 502.85 705.215 503.042C704.944 503.096 704.768 503.359 704.822 503.629C704.173 503.757 703.523 503.883 702.872 504.009C702.82 503.737 702.558 503.56 702.287 503.612C701.309 503.799 700.328 503.984 699.346 504.166C699.074 504.216 698.895 504.477 698.945 504.748C698.291 504.868 697.637 504.988 696.981 505.106C696.932 504.834 696.672 504.654 696.401 504.702C695.832 504.804 695.262 504.905 694.692 505.005C694.289 505.076 693.885 505.147 693.482 505.217C693.209 505.264 693.027 505.522 693.074 505.795C692.426 505.906 691.777 506.016 691.126 506.126C691.081 505.854 690.823 505.67 690.551 505.715C689.572 505.879 688.591 506.04 687.609 506.199C687.336 506.243 687.151 506.499 687.195 506.772C686.54 506.877 685.883 506.981 685.226 507.084C685.184 506.811 684.928 506.624 684.656 506.667C683.669 506.82 682.681 506.971 681.691 507.119C681.418 507.159 681.23 507.414 681.271 507.687C680.622 507.784 679.972 507.879 679.322 507.973C679.283 507.699 679.029 507.51 678.756 507.549C677.777 507.69 676.797 507.828 675.814 507.964C675.541 508.002 675.35 508.254 675.387 508.527C674.733 508.617 674.079 508.706 673.423 508.793C673.387 508.519 673.136 508.327 672.862 508.363C671.876 508.493 670.889 508.621 669.9 508.747C669.626 508.781 669.432 509.031 669.466 509.305C668.806 509.388 668.145 509.47 667.483 509.551C667.45 509.277 667.201 509.081 666.927 509.115C665.943 509.234 664.956 509.35 663.969 509.464C663.694 509.496 663.498 509.743 663.529 510.018C662.877 510.092 662.224 510.166 661.57 510.238C661.54 509.964 661.293 509.766 661.019 509.796C660.034 509.904 659.047 510.01 658.059 510.113C657.784 510.141 657.585 510.387 657.614 510.662C656.955 510.73 656.296 510.796 655.637 510.862C655.61 510.587 655.365 510.387 655.09 510.414C654.099 510.511 653.106 510.607 652.112 510.699C651.837 510.725 651.635 510.969 651.661 511.243C650.999 511.304 650.337 511.364 649.674 511.423C649.649 511.148 649.407 510.944 649.132 510.969C648.148 511.055 647.163 511.138 646.176 511.22C645.901 511.242 645.696 511.483 645.719 511.759C645.063 511.812 644.406 511.864 643.749 511.915C643.728 511.64 643.487 511.434 643.212 511.455C642.223 511.531 641.232 511.604 640.239 511.675C639.964 511.695 639.757 511.934 639.776 512.21C639.115 512.256 638.453 512.301 637.79 512.346C637.772 512.07 637.534 511.862 637.259 511.88C636.886 511.904 636.513 511.929 636.14 511.952C635.517 511.992 634.894 512.031 634.27 512.069C633.994 512.086 633.784 512.322 633.801 512.598C633.143 512.637 632.484 512.676 631.826 512.713C631.81 512.437 631.574 512.226 631.299 512.241C630.311 512.295 629.322 512.347 628.332 512.397C628.057 512.411 627.844 512.645 627.858 512.921C627.199 512.953 626.54 512.984 625.88 513.014C625.868 512.739 625.634 512.525 625.358 512.537C624.366 512.582 623.372 512.623 622.377 512.662C622.101 512.673 621.886 512.906 621.897 513.182C621.233 513.207 620.569 513.231 619.905 513.255C619.896 512.979 619.664 512.762 619.388 512.772C618.392 512.806 617.395 512.837 616.397 512.866C616.121 512.874 615.903 513.104 615.911 513.38C615.255 513.398 614.599 513.415 613.942 513.431C613.936 513.155 613.707 512.937 613.431 512.943C612.441 512.966 611.45 512.987 610.457 513.005C610.181 513.01 609.962 513.238 609.967 513.514C609.306 513.526 608.646 513.536 607.984 513.545C607.981 513.269 607.754 513.048 607.478 513.052C606.483 513.065 605.488 513.075 604.491 513.083C604.215 513.085 603.993 513.311 603.995 513.587C603.331 513.591 602.665 513.595 602 513.597C601.999 513.321 601.775 513.098 601.498 513.099C600.999 513.1 600.499 513.101 600 513.101C599.5 513.101 599.001 513.1 598.501 513.099C598.225 513.098 598.001 513.321 598 513.597C597.335 513.595 596.669 513.591 596.005 513.587C596.007 513.311 595.785 513.085 595.509 513.083C594.512 513.075 593.517 513.065 592.522 513.052C592.246 513.048 592.019 513.269 592.016 513.545C591.354 513.536 590.694 513.526 590.033 513.514C590.038 513.238 589.819 513.01 589.542 513.005C588.55 512.987 587.559 512.966 586.569 512.943C586.293 512.937 586.064 513.155 586.058 513.431C585.401 513.415 584.744 513.398 584.089 513.38C584.096 513.104 583.879 512.874 583.603 512.866C582.605 512.837 581.608 512.806 580.612 512.772C580.336 512.763 580.104 512.979 580.095 513.255C579.43 513.231 578.766 513.207 578.103 513.182C578.114 512.906 577.899 512.673 577.623 512.662C576.628 512.623 575.634 512.582 574.641 512.537C574.366 512.525 574.132 512.739 574.12 513.014C573.46 512.984 572.801 512.953 572.142 512.921C572.156 512.645 571.943 512.411 571.667 512.397C570.677 512.347 569.689 512.295 568.701 512.241C568.425 512.226 568.19 512.437 568.174 512.713C567.515 512.676 566.857 512.637 566.199 512.598C566.216 512.322 566.006 512.086 565.73 512.069C564.733 512.009 563.736 511.946 562.741 511.88C562.466 511.862 562.228 512.07 562.209 512.346C561.547 512.301 560.885 512.256 560.223 512.209C560.243 511.934 560.036 511.695 559.76 511.675C558.768 511.604 557.777 511.531 556.788 511.455C556.512 511.434 556.272 511.64 556.251 511.915C555.594 511.864 554.937 511.812 554.281 511.759C554.303 511.484 554.099 511.242 553.823 511.22C552.837 511.138 551.852 511.055 550.868 510.969C550.593 510.945 550.35 511.148 550.326 511.423C549.663 511.364 549.001 511.304 548.339 511.243C548.364 510.968 548.162 510.725 547.887 510.699C546.893 510.607 545.901 510.512 544.909 510.414C544.635 510.387 544.39 510.587 544.363 510.862C543.703 510.797 543.044 510.73 542.386 510.662C542.415 510.387 542.215 510.141 541.941 510.113C540.953 510.01 539.966 509.904 538.981 509.796C538.707 509.766 538.46 509.964 538.43 510.238C537.776 510.166 537.123 510.093 536.47 510.018C536.502 509.744 536.305 509.496 536.031 509.464C535.043 509.35 534.057 509.234 533.073 509.115C532.799 509.081 532.549 509.277 532.516 509.551C531.855 509.47 531.194 509.388 530.533 509.305C530.568 509.031 530.374 508.781 530.1 508.747C529.111 508.621 528.123 508.493 527.138 508.363C526.864 508.327 526.613 508.519 526.576 508.793C525.921 508.705 525.266 508.617 524.612 508.527C524.65 508.254 524.459 508.002 524.185 507.964C523.203 507.828 522.222 507.69 521.243 507.549C520.97 507.51 520.717 507.7 520.677 507.973C520.027 507.879 519.378 507.783 518.729 507.687C518.77 507.414 518.581 507.16 518.308 507.119C517.318 506.971 516.33 506.82 515.344 506.667C515.071 506.624 514.816 506.811 514.773 507.084C514.116 506.981 513.46 506.877 512.805 506.772C512.849 506.499 512.663 506.243 512.391 506.199C511.408 506.04 510.427 505.879 509.449 505.715C509.176 505.67 508.919 505.854 508.873 506.126C508.223 506.017 507.574 505.906 506.925 505.794C506.972 505.522 506.79 505.264 506.518 505.217C505.543 505.048 504.57 504.876 503.599 504.702C503.327 504.654 503.067 504.834 503.019 505.106C502.363 504.988 501.708 504.869 501.054 504.748C501.104 504.477 500.925 504.216 500.654 504.166C499.671 503.984 498.691 503.799 497.713 503.612C497.442 503.56 497.18 503.737 497.128 504.009C496.477 503.883 495.827 503.757 495.178 503.629C495.231 503.359 495.055 503.096 494.784 503.042C493.81 502.85 492.838 502.655 491.868 502.457C491.598 502.402 491.334 502.577 491.278 502.847C490.635 502.715 489.993 502.582 489.351 502.448C489.408 502.178 489.235 501.913 488.965 501.857C487.989 501.652 487.015 501.444 486.043 501.234C485.773 501.175 485.507 501.347 485.449 501.616C484.797 501.475 484.147 501.332 483.497 501.188C483.557 500.919 483.387 500.652 483.118 500.592C482.145 500.375 481.175 500.156 480.207 499.934C479.938 499.872 479.669 500.04 479.608 500.309C478.964 500.161 478.322 500.012 477.681 499.862C477.744 499.593 477.578 499.324 477.309 499.26C476.345 499.033 475.384 498.804 474.425 498.572C474.157 498.507 473.887 498.671 473.821 498.939C473.177 498.783 472.534 498.625 471.892 498.466C471.958 498.198 471.795 497.927 471.527 497.86C470.556 497.619 469.588 497.374 468.622 497.128C468.355 497.059 468.083 497.22 468.014 497.488C467.371 497.323 466.73 497.157 466.089 496.989C466.159 496.722 465.999 496.449 465.732 496.379C464.771 496.127 463.813 495.872 462.857 495.615C462.591 495.543 462.316 495.701 462.244 495.967C461.611 495.796 460.978 495.624 460.346 495.45C460.419 495.184 460.263 494.909 459.997 494.835C459.037 494.57 458.079 494.302 457.124 494.032C456.858 493.957 456.582 494.111 456.506 494.376C455.865 494.194 455.224 494.01 454.584 493.825C454.661 493.56 454.509 493.283 454.243 493.206C453.286 492.928 452.331 492.648 451.379 492.364C451.115 492.286 450.837 492.436 450.758 492.701C450.125 492.512 449.494 492.322 448.864 492.131C448.945 491.867 448.796 491.587 448.532 491.507C447.585 491.218 446.642 490.927 445.701 490.634C445.437 490.551 445.157 490.698 445.074 490.962C444.44 490.763 443.808 490.563 443.176 490.362C443.26 490.099 443.115 489.818 442.852 489.734C441.899 489.429 440.949 489.122 440.002 488.812C439.739 488.726 439.457 488.869 439.371 489.132C438.741 488.925 438.112 488.716 437.485 488.507C437.572 488.245 437.431 487.962 437.169 487.875C436.228 487.559 435.29 487.241 434.355 486.921C434.093 486.831 433.809 486.97 433.72 487.231C433.1 487.018 432.482 486.804 431.865 486.588C431.956 486.328 431.818 486.043 431.558 485.951C430.614 485.62 429.673 485.287 428.735 484.95C428.475 484.857 428.189 484.992 428.095 485.252C427.468 485.026 426.842 484.799 426.218 484.571C426.313 484.311 426.18 484.024 425.921 483.929C424.986 483.586 424.054 483.241 423.126 482.892C422.867 482.795 422.579 482.926 422.482 483.185C421.866 482.953 421.252 482.719 420.638 482.485C420.737 482.227 420.608 481.938 420.351 481.839C419.427 481.485 418.507 481.128 417.59 480.769C417.333 480.668 417.043 480.794 416.942 481.051C416.319 480.806 415.697 480.559 415.076 480.311C415.179 480.055 415.054 479.764 414.798 479.661C413.871 479.29 412.948 478.915 412.027 478.538C411.772 478.433 411.48 478.555 411.375 478.811C410.764 478.559 410.154 478.306 409.546 478.052C409.652 477.798 409.532 477.505 409.278 477.398C408.365 477.016 407.455 476.631 406.549 476.243C406.296 476.134 406.002 476.252 405.893 476.505C405.285 476.244 404.679 475.982 404.074 475.718C404.185 475.465 404.069 475.17 403.816 475.06C402.898 474.658 401.984 474.254 401.074 473.846C400.822 473.734 400.526 473.846 400.414 474.098C399.808 473.826 399.204 473.553 398.602 473.279C398.716 473.028 398.606 472.731 398.355 472.617C397.452 472.204 396.553 471.789 395.659 471.371C395.408 471.254 395.111 471.362 394.994 471.612C394.402 471.334 393.811 471.055 393.222 470.775C393.341 470.526 393.235 470.228 392.986 470.109C392.081 469.677 391.18 469.242 390.283 468.804C390.034 468.683 389.735 468.786 389.614 469.034C389.016 468.741 388.419 468.447 387.824 468.151C387.947 467.904 387.846 467.604 387.599 467.481C386.709 467.037 385.823 466.591 384.941 466.141C384.695 466.016 384.394 466.114 384.269 466.359C383.684 466.061 383.102 465.761 382.521 465.459C382.649 465.215 382.553 464.913 382.309 464.785C381.425 464.326 380.547 463.863 379.673 463.398C379.429 463.268 379.126 463.36 378.996 463.604C378.406 463.289 377.818 462.972 377.233 462.655C377.364 462.412 377.275 462.109 377.032 461.977C376.156 461.501 375.285 461.021 374.419 460.54C374.178 460.405 373.873 460.492 373.739 460.733C373.164 460.412 372.592 460.09 372.021 459.767C372.157 459.527 372.073 459.222 371.833 459.086C370.973 458.597 370.118 458.105 369.267 457.61C369.028 457.472 368.723 457.553 368.584 457.791C368.004 457.453 367.427 457.114 366.852 456.773C366.992 456.536 366.914 456.229 366.677 456.088C365.819 455.578 364.965 455.065 364.117 454.549C363.881 454.406 363.574 454.48 363.43 454.716C362.867 454.372 362.306 454.027 361.748 453.681C361.893 453.447 361.821 453.139 361.587 452.993C360.749 452.472 359.916 451.948 359.087 451.421C358.854 451.273 358.546 451.341 358.397 451.574C357.832 451.213 357.27 450.851 356.71 450.488C356.86 450.257 356.795 449.947 356.563 449.797C355.725 449.251 354.893 448.703 354.066 448.152C353.836 447.999 353.526 448.061 353.373 448.29C352.824 447.923 352.277 447.554 351.733 447.185C351.888 446.956 351.829 446.646 351.601 446.49C350.785 445.933 349.974 445.374 349.169 444.812C348.943 444.654 348.632 444.709 348.473 444.935C347.926 444.552 347.382 444.167 346.84 443.781C347.001 443.556 346.949 443.244 346.724 443.084C345.911 442.502 345.103 441.917 344.301 441.329C344.078 441.166 343.766 441.214 343.602 441.436C343.07 441.044 342.54 440.651 342.013 440.257C342.178 440.036 342.134 439.723 341.913 439.557C341.123 438.964 340.339 438.368 339.561 437.769C339.342 437.601 339.028 437.641 338.86 437.86C338.332 437.452 337.807 437.042 337.284 436.631C337.455 436.415 337.418 436.101 337.201 435.93C336.416 435.31 335.637 434.687 334.865 434.061C334.65 433.887 334.336 433.92 334.162 434.134C333.649 433.717 333.139 433.299 332.632 432.879C332.808 432.667 332.779 432.352 332.567 432.176C331.808 431.544 331.055 430.91 330.308 430.273C330.098 430.094 329.783 430.119 329.604 430.329C329.096 429.893 328.591 429.457 328.09 429.019C328.271 428.811 328.251 428.496 328.043 428.314C327.291 427.655 326.547 426.993 325.809 426.328C325.604 426.143 325.288 426.16 325.103 426.364C324.614 425.921 324.127 425.477 323.644 425.031C323.831 424.829 323.819 424.513 323.617 424.325C322.893 423.655 322.177 422.982 321.467 422.306C321.267 422.115 320.951 422.123 320.761 422.322C320.276 421.858 319.794 421.392 319.315 420.924C319.508 420.727 319.505 420.411 319.308 420.218C318.596 419.519 317.891 418.817 317.194 418.112C317 417.916 316.683 417.914 316.487 418.107C316.025 417.638 315.566 417.167 315.111 416.695C315.31 416.504 315.316 416.188 315.125 415.989C314.439 415.274 313.761 414.556 313.09 413.836C312.903 413.634 312.586 413.622 312.384 413.81C311.929 413.318 311.478 412.825 311.03 412.33C311.234 412.145 311.251 411.829 311.066 411.624C310.399 410.885 309.741 410.142 309.091 409.396C308.91 409.188 308.594 409.167 308.386 409.348C307.956 408.851 307.53 408.354 307.107 407.855C307.317 407.677 307.344 407.362 307.166 407.151C306.524 406.389 305.89 405.624 305.265 404.856C305.09 404.642 304.776 404.61 304.562 404.784C304.142 404.265 303.726 403.745 303.314 403.224C303.531 403.053 303.568 402.739 303.398 402.522C302.784 401.741 302.18 400.958 301.585 400.171C301.418 399.951 301.105 399.908 300.885 400.074C300.491 399.55 300.101 399.026 299.715 398.5C299.938 398.337 299.987 398.024 299.824 397.801C299.234 396.991 298.653 396.178 298.082 395.363C297.923 395.137 297.612 395.082 297.386 395.239C297.007 394.694 296.632 394.148 296.261 393.6C296.49 393.446 296.551 393.136 296.397 392.907C295.845 392.086 295.302 391.262 294.77 390.435C294.62 390.203 294.311 390.136 294.079 390.285C293.722 389.726 293.369 389.166 293.021 388.604C293.255 388.459 293.328 388.152 293.183 387.917C292.66 387.067 292.147 386.215 291.644 385.36C291.504 385.122 291.198 385.042 290.96 385.182C290.627 384.611 290.299 384.039 289.976 383.466C290.216 383.331 290.301 383.027 290.167 382.786C289.683 381.923 289.21 381.057 288.748 380.189C288.618 379.945 288.316 379.853 288.072 379.982C287.761 379.392 287.454 378.8 287.152 378.207C287.398 378.082 287.497 377.782 287.372 377.536C286.925 376.649 286.488 375.759 286.063 374.867C285.944 374.618 285.646 374.512 285.397 374.63C285.116 374.035 284.84 373.44 284.569 372.842C284.821 372.729 284.933 372.433 284.82 372.182C284.412 371.274 284.015 370.363 283.63 369.449C283.523 369.195 283.23 369.076 282.976 369.182C282.72 368.57 282.47 367.956 282.225 367.341C282.481 367.24 282.607 366.95 282.506 366.693C282.143 365.772 281.792 364.848 281.452 363.922C281.357 363.663 281.071 363.53 280.812 363.624C280.587 363.002 280.367 362.379 280.152 361.755C280.413 361.666 280.553 361.382 280.464 361.121C280.145 360.18 279.838 359.236 279.543 358.29C279.461 358.027 279.182 357.88 278.918 357.961C278.724 357.33 278.536 356.697 278.353 356.063C278.618 355.987 278.771 355.711 278.696 355.445C278.425 354.493 278.167 353.539 277.921 352.582C277.853 352.315 277.581 352.154 277.314 352.222C277.151 351.579 276.995 350.935 276.844 350.291C277.112 350.229 277.28 349.961 277.218 349.692C276.997 348.726 276.788 347.758 276.591 346.788C276.537 346.518 276.273 346.343 276.003 346.397C275.875 345.749 275.752 345.1 275.636 344.45C275.907 344.401 276.088 344.143 276.041 343.871C275.87 342.896 275.712 341.919 275.567 340.94C275.527 340.667 275.273 340.479 275 340.518C274.907 339.864 274.818 339.208 274.736 338.552C275.01 338.519 275.204 338.27 275.171 337.996C275.052 337.013 274.946 336.027 274.854 335.04C274.828 334.765 274.585 334.563 274.31 334.588C274.252 333.932 274.199 333.274 274.152 332.616C274.426 332.597 274.634 332.359 274.616 332.084C274.55 331.098 274.497 330.11 274.457 329.12C274.446 328.845 274.214 328.63 273.938 328.641C273.915 327.979 273.897 327.316 273.885 326.652C274.161 326.648 274.381 326.421 274.377 326.145C274.371 325.649 274.367 325.151 274.367 324.654C274.367 324.156 274.371 323.659 274.377 323.163C274.381 322.887 274.161 322.661 273.885 322.656C273.897 321.993 273.915 321.33 273.938 320.668C274.214 320.678 274.446 320.464 274.457 320.188C274.497 319.198 274.55 318.21 274.616 317.225C274.634 316.949 274.426 316.711 274.151 316.692C274.199 316.034 274.251 315.376 274.31 314.72C274.585 314.745 274.828 314.543 274.854 314.269C274.946 313.281 275.052 312.296 275.171 311.312C275.204 311.039 275.01 310.79 274.736 310.756C274.818 310.1 274.906 309.444 275 308.79C275.273 308.83 275.527 308.641 275.567 308.368C275.712 307.389 275.87 306.412 276.041 305.437C276.088 305.166 275.907 304.907 275.636 304.859C275.752 304.209 275.875 303.559 276.003 302.911C276.273 302.965 276.537 302.79 276.591 302.52C276.787 301.55 276.997 300.582 277.218 299.616C277.28 299.348 277.112 299.08 276.844 299.017C276.995 298.373 277.151 297.729 277.313 297.087C277.581 297.155 277.852 296.993 277.921 296.726C278.167 295.77 278.425 294.815 278.696 293.863C278.771 293.598 278.617 293.321 278.352 293.245C278.536 292.611 278.724 291.979 278.918 291.347C279.181 291.428 279.461 291.281 279.543 291.018C279.838 290.072 280.145 289.128 280.464 288.187C280.552 287.926 280.413 287.642 280.152 287.553C280.367 286.929 280.586 286.306 280.812 285.684C281.071 285.778 281.357 285.645 281.452 285.386C281.792 284.46 282.143 283.536 282.506 282.615C282.607 282.358 282.481 282.068 282.225 281.967C282.47 281.352 282.72 280.738 282.975 280.126C283.23 280.232 283.522 280.113 283.63 279.859C284.015 278.945 284.411 278.034 284.819 277.126C284.932 276.875 284.82 276.579 284.569 276.466C284.84 275.868 285.116 275.273 285.397 274.678C285.646 274.796 285.944 274.69 286.063 274.441C286.488 273.549 286.925 272.659 287.372 271.772C287.496 271.526 287.398 271.226 287.152 271.101C287.454 270.508 287.761 269.916 288.072 269.326C288.316 269.455 288.618 269.363 288.748 269.119C289.21 268.251 289.683 267.385 290.166 266.522C290.301 266.281 290.216 265.977 289.975 265.842C290.299 265.269 290.627 264.697 290.96 264.126C291.198 264.266 291.504 264.186 291.644 263.948C292.147 263.093 292.66 262.241 293.183 261.391C293.328 261.156 293.255 260.849 293.02 260.704C293.369 260.142 293.722 259.582 294.079 259.023C294.311 259.172 294.62 259.105 294.77 258.873C295.302 258.046 295.844 257.222 296.396 256.401C296.55 256.172 296.49 255.862 296.261 255.707C296.632 255.16 297.006 254.613 297.386 254.068C297.612 254.226 297.923 254.171 298.081 253.945C298.653 253.129 299.234 252.317 299.824 251.506C299.986 251.283 299.938 250.971 299.715 250.808C300.101 250.282 300.491 249.757 300.885 249.234C301.105 249.4 301.418 249.356 301.585 249.137C302.18 248.35 302.784 247.566 303.398 246.786C303.568 246.569 303.53 246.255 303.314 246.084C303.726 245.563 304.142 245.043 304.561 244.524C304.776 244.698 305.09 244.666 305.264 244.452C305.89 243.684 306.523 242.919 307.166 242.157C307.344 241.946 307.317 241.631 307.107 241.453C307.529 240.954 307.956 240.456 308.386 239.96C308.594 240.141 308.91 240.119 309.091 239.912C309.741 239.166 310.399 238.423 311.066 237.683C311.251 237.478 311.234 237.162 311.03 236.978C311.477 236.483 311.929 235.99 312.384 235.498C312.586 235.686 312.902 235.674 313.09 235.472C313.761 234.752 314.439 234.034 315.125 233.319C315.316 233.12 315.31 232.804 315.111 232.613C315.566 232.141 316.025 231.67 316.487 231.2C316.683 231.394 316.999 231.392 317.194 231.196C317.891 230.491 318.596 229.789 319.308 229.09C319.505 228.897 319.508 228.58 319.315 228.383C319.794 227.916 320.275 227.45 320.761 226.986C320.951 227.185 321.267 227.192 321.467 227.002C322.176 226.326 322.893 225.653 323.617 224.982C323.819 224.795 323.831 224.479 323.644 224.276C324.127 223.831 324.614 223.386 325.103 222.943C325.288 223.148 325.604 223.164 325.809 222.98C326.546 222.315 327.291 221.653 328.043 220.994C328.25 220.812 328.271 220.496 328.09 220.289C328.591 219.851 329.096 219.414 329.604 218.979C329.783 219.189 330.098 219.214 330.308 219.034C331.055 218.398 331.808 217.763 332.567 217.132C332.779 216.956 332.808 216.641 332.632 216.428C333.139 216.009 333.649 215.59 334.162 215.173C334.336 215.387 334.65 215.42 334.865 215.247C335.637 214.621 336.416 213.998 337.201 213.378C337.418 213.207 337.455 212.893 337.284 212.676C337.807 212.265 338.332 211.856 338.86 211.448C339.028 211.666 339.342 211.707 339.561 211.539C340.339 210.94 341.123 210.344 341.913 209.75C342.134 209.584 342.178 209.271 342.013 209.051C342.54 208.656 343.07 208.263 343.602 207.871C343.766 208.094 344.078 208.142 344.301 207.979C345.103 207.391 345.911 206.806 346.724 206.224C346.949 206.063 347.001 205.751 346.84 205.527C347.382 205.141 347.926 204.756 348.473 204.372C348.632 204.599 348.943 204.654 349.169 204.496C349.974 203.934 350.785 203.374 351.601 202.817C351.829 202.662 351.888 202.351 351.733 202.123C352.277 201.753 352.824 201.385 353.373 201.017C353.526 201.247 353.836 201.309 354.066 201.156C354.893 200.605 355.725 200.056 356.563 199.511C356.795 199.36 356.86 199.051 356.71 198.819C357.27 198.456 357.832 198.094 358.397 197.733C358.546 197.966 358.855 198.035 359.087 197.887C359.916 197.36 360.749 196.836 361.587 196.314C361.821 196.169 361.893 195.861 361.748 195.626C362.307 195.28 362.867 194.935 363.43 194.592C363.574 194.827 363.881 194.902 364.117 194.759C364.966 194.243 365.819 193.73 366.677 193.22C366.914 193.078 366.993 192.772 366.852 192.535C367.427 192.194 368.004 191.855 368.584 191.517C368.723 191.755 369.028 191.836 369.267 191.697C370.118 191.203 370.973 190.711 371.833 190.222C372.073 190.086 372.157 189.78 372.021 189.54C372.592 189.217 373.164 188.895 373.739 188.574C373.873 188.816 374.178 188.902 374.419 188.768C375.285 188.286 376.156 187.807 377.032 187.331C377.275 187.199 377.364 186.895 377.233 186.653C377.819 186.335 378.407 186.019 378.997 185.704C379.126 185.947 379.429 186.039 379.673 185.91C380.547 185.445 381.426 184.982 382.309 184.522C382.553 184.395 382.649 184.093 382.521 183.848C383.102 183.547 383.684 183.247 384.269 182.948C384.394 183.194 384.695 183.292 384.941 183.166C385.823 182.717 386.709 182.27 387.599 181.826C387.846 181.703 387.947 181.403 387.824 181.156C388.419 180.861 389.016 180.566 389.614 180.273C389.735 180.521 390.035 180.624 390.283 180.503C391.18 180.066 392.081 179.631 392.986 179.199C393.235 179.08 393.341 178.782 393.222 178.532C393.811 178.252 394.402 177.973 394.994 177.696C395.111 177.946 395.409 178.054 395.659 177.937C396.553 177.519 397.452 177.103 398.355 176.691C398.606 176.576 398.716 176.28 398.602 176.029C399.204 175.754 399.808 175.481 400.414 175.209C400.526 175.461 400.822 175.574 401.074 175.461C401.984 175.054 402.898 174.65 403.816 174.248C404.069 174.137 404.185 173.843 404.074 173.59C404.679 173.326 405.285 173.064 405.893 172.802C406.002 173.056 406.296 173.173 406.549 173.065C407.455 172.677 408.365 172.292 409.278 171.909C409.532 171.802 409.652 171.51 409.546 171.255C410.154 171.001 410.764 170.748 411.375 170.497C411.48 170.752 411.772 170.874 412.027 170.77C412.948 170.392 413.871 170.018 414.798 169.646C415.055 169.543 415.179 169.252 415.076 168.996C415.697 168.748 416.319 168.502 416.942 168.256C417.043 168.513 417.333 168.64 417.59 168.539C418.507 168.179 419.427 167.822 420.351 167.468C420.608 167.369 420.737 167.08 420.639 166.823C421.252 166.588 421.866 166.355 422.482 166.123C422.579 166.381 422.867 166.512 423.126 166.415C424.054 166.067 424.986 165.721 425.921 165.378C426.18 165.283 426.313 164.996 426.218 164.737C426.842 164.509 427.468 164.282 428.095 164.056C428.189 164.315 428.475 164.45 428.735 164.357C429.673 164.021 430.614 163.687 431.558 163.356C431.819 163.265 431.956 162.98 431.865 162.719C432.482 162.504 433.1 162.289 433.72 162.076C433.809 162.337 434.093 162.476 434.355 162.387C435.29 162.066 436.228 161.748 437.169 161.433C437.431 161.345 437.572 161.062 437.485 160.8C438.112 160.591 438.741 160.383 439.371 160.176C439.457 160.438 439.739 160.581 440.002 160.495C440.949 160.185 441.899 159.878 442.852 159.574C443.115 159.489 443.26 159.208 443.176 158.945C443.808 158.744 444.44 158.544 445.075 158.346C445.157 158.609 445.437 158.756 445.701 158.674C446.642 158.38 447.585 158.089 448.532 157.801C448.796 157.72 448.945 157.441 448.864 157.177C449.494 156.986 450.125 156.796 450.758 156.607C450.837 156.871 451.115 157.022 451.379 156.943C452.331 156.66 453.286 156.379 454.243 156.102C454.509 156.025 454.661 155.747 454.584 155.482C455.224 155.297 455.865 155.114 456.506 154.931C456.582 155.197 456.858 155.351 457.124 155.276C458.079 155.005 459.037 154.738 459.997 154.472C460.263 154.399 460.419 154.124 460.346 153.858C460.978 153.684 461.611 153.511 462.244 153.34C462.316 153.607 462.591 153.764 462.857 153.693C463.813 153.435 464.771 153.181 465.732 152.928C465.999 152.858 466.159 152.585 466.089 152.318C466.73 152.151 467.371 151.985 468.014 151.82C468.083 152.087 468.355 152.248 468.622 152.18C469.588 151.933 470.556 151.689 471.527 151.447C471.795 151.381 471.958 151.11 471.892 150.842C472.534 150.683 473.177 150.525 473.821 150.368C473.886 150.636 474.157 150.801 474.425 150.736C475.384 150.504 476.345 150.274 477.309 150.047C477.577 149.984 477.744 149.715 477.681 149.446C478.322 149.296 478.964 149.146 479.608 148.998C479.669 149.267 479.937 149.435 480.206 149.374C481.175 149.152 482.145 148.933 483.118 148.716C483.387 148.656 483.557 148.389 483.497 148.119C484.147 147.975 484.797 147.833 485.448 147.691C485.507 147.961 485.773 148.132 486.043 148.074C487.014 147.864 487.988 147.656 488.965 147.451C489.235 147.394 489.408 147.129 489.351 146.859C489.993 146.725 490.635 146.592 491.278 146.461C491.333 146.731 491.597 146.906 491.868 146.85C492.838 146.653 493.81 146.458 494.784 146.265C495.055 146.212 495.231 145.949 495.178 145.678C495.827 145.551 496.477 145.424 497.127 145.299C497.179 145.57 497.441 145.748 497.712 145.696C498.691 145.509 499.671 145.324 500.653 145.142C500.925 145.092 501.104 144.831 501.054 144.56C501.708 144.439 502.363 144.32 503.018 144.202C503.067 144.473 503.327 144.654 503.599 144.605C504.57 144.431 505.543 144.26 506.518 144.091C506.79 144.044 506.972 143.785 506.925 143.513C507.573 143.402 508.223 143.291 508.873 143.182C508.918 143.454 509.176 143.638 509.448 143.592C510.427 143.428 511.408 143.267 512.39 143.109C512.663 143.065 512.848 142.808 512.804 142.536C513.46 142.431 514.116 142.327 514.773 142.224C514.815 142.497 515.071 142.683 515.344 142.641C516.33 142.488 517.318 142.337 518.308 142.189C518.581 142.148 518.769 141.894 518.728 141.621C519.377 141.524 520.027 141.429 520.677 141.335C520.716 141.608 520.97 141.798 521.243 141.758C522.222 141.618 523.203 141.479 524.185 141.344C524.458 141.306 524.65 141.054 524.612 140.78C525.266 140.691 525.921 140.602 526.576 140.515C526.612 140.788 526.864 140.981 527.137 140.945C528.123 140.814 529.111 140.686 530.1 140.561C530.374 140.526 530.567 140.276 530.533 140.002C531.193 139.919 531.854 139.838 532.516 139.757C532.549 140.031 532.798 140.226 533.072 140.193C534.057 140.074 535.043 139.957 536.031 139.844C536.305 139.812 536.501 139.564 536.47 139.29C537.122 139.215 537.775 139.142 538.429 139.069C538.459 139.344 538.706 139.542 538.981 139.512C539.966 139.403 540.952 139.298 541.94 139.195C542.215 139.166 542.414 138.921 542.386 138.646C543.044 138.578 543.703 138.511 544.362 138.446C544.39 138.72 544.634 138.921 544.909 138.894C545.9 138.796 546.893 138.701 547.887 138.608C548.162 138.583 548.364 138.339 548.339 138.064C549 138.003 549.663 137.943 550.326 137.885C550.35 138.16 550.592 138.363 550.867 138.339C551.851 138.253 552.836 138.169 553.823 138.088C554.098 138.065 554.303 137.824 554.28 137.549C554.936 137.496 555.593 137.443 556.25 137.392C556.272 137.668 556.512 137.874 556.787 137.852C557.777 137.777 558.767 137.703 559.76 137.632C560.035 137.613 560.242 137.374 560.223 137.098C560.884 137.052 561.546 137.006 562.209 136.962C562.227 137.237 562.465 137.446 562.741 137.428C563.736 137.362 564.732 137.299 565.73 137.239C566.005 137.222 566.215 136.985 566.199 136.71C566.856 136.67 567.515 136.632 568.174 136.595C568.189 136.871 568.425 137.082 568.701 137.067C569.688 137.012 570.677 136.96 571.667 136.911C571.943 136.897 572.155 136.662 572.141 136.387C572.8 136.354 573.459 136.323 574.119 136.293C574.131 136.569 574.365 136.783 574.641 136.77C575.633 136.726 576.627 136.684 577.622 136.645C577.898 136.634 578.113 136.402 578.102 136.126C578.766 136.101 579.43 136.076 580.094 136.053C580.104 136.329 580.335 136.545 580.611 136.536C581.607 136.502 582.604 136.471 583.602 136.442C583.878 136.434 584.096 136.204 584.088 135.928C584.744 135.91 585.4 135.893 586.057 135.877C586.064 136.153 586.293 136.371 586.569 136.364C587.559 136.341 588.55 136.321 589.542 136.302C589.818 136.297 590.037 136.07 590.033 135.794C590.693 135.782 591.354 135.772 592.015 135.763C592.019 136.039 592.245 136.259 592.522 136.256C593.516 136.243 594.511 136.232 595.508 136.225C595.784 136.222 596.006 135.997 596.004 135.721C596.669 135.716 597.334 135.713 597.999 135.711C598 135.987 598.225 136.21 598.501 136.209C599 136.208 599.5 136.207 600 136.207C600.499 136.207 600.999 136.208 601.498 136.209C601.774 136.21 601.998 135.987 601.999 135.711C602.665 135.713 603.33 135.716 603.995 135.721C603.992 135.997 604.215 136.222 604.491 136.225C605.487 136.232 606.483 136.243 607.477 136.256C607.753 136.259 607.98 136.039 607.983 135.763C608.645 135.772 609.306 135.782 609.966 135.794C609.961 136.07 610.181 136.297 610.457 136.302C611.449 136.321 612.44 136.341 613.43 136.364C613.706 136.371 613.935 136.153 613.941 135.877C614.598 135.893 615.255 135.91 615.911 135.928C615.903 136.204 616.12 136.434 616.396 136.442C617.394 136.471 618.392 136.502 619.388 136.536C619.663 136.545 619.895 136.329 619.904 136.053C620.569 136.076 621.233 136.101 621.896 136.126C621.886 136.402 622.1 136.634 622.376 136.645C623.371 136.684 624.365 136.726 625.358 136.77C625.634 136.783 625.867 136.569 625.88 136.293C626.539 136.323 627.199 136.354 627.857 136.387C627.844 136.662 628.056 136.897 628.332 136.911C629.322 136.96 630.311 137.012 631.298 137.067C631.574 137.082 631.81 136.871 631.825 136.595C632.484 136.632 633.142 136.67 633.8 136.71C633.784 136.985 633.993 137.222 634.269 137.239C635.267 137.299 636.263 137.362 637.258 137.428C637.534 137.446 637.772 137.237 637.79 136.962C638.452 137.006 639.114 137.052 639.776 137.098C639.756 137.374 639.964 137.613 640.239 137.632C641.231 137.703 642.222 137.776 643.212 137.852C643.487 137.874 643.727 137.668 643.748 137.392C644.406 137.443 645.062 137.496 645.718 137.549C645.696 137.824 645.901 138.065 646.176 138.088C647.162 138.169 648.148 138.253 649.131 138.339C649.406 138.363 649.649 138.16 649.673 137.885C650.336 137.943 650.999 138.003 651.66 138.064C651.635 138.339 651.837 138.583 652.112 138.608C653.106 138.701 654.099 138.796 655.09 138.894C655.365 138.921 655.609 138.72 655.636 138.446C656.296 138.511 656.955 138.578 657.613 138.646C657.585 138.921 657.784 139.166 658.059 139.195C659.047 139.298 660.033 139.403 661.018 139.512C661.293 139.542 661.539 139.344 661.57 139.069C662.223 139.142 662.876 139.215 663.529 139.29C663.497 139.564 663.694 139.812 663.968 139.844C664.956 139.957 665.942 140.074 666.927 140.193C667.201 140.226 667.45 140.031 667.483 139.757C668.145 139.838 668.806 139.919 669.466 140.002C669.431 140.276 669.625 140.526 669.899 140.561C670.888 140.686 671.876 140.814 672.862 140.945C673.135 140.981 673.387 140.788 673.423 140.515C674.078 140.602 674.733 140.691 675.387 140.78C675.349 141.054 675.54 141.306 675.814 141.344C676.796 141.479 677.777 141.618 678.756 141.758C679.029 141.798 679.282 141.608 679.322 141.335C679.972 141.429 680.622 141.524 681.27 141.621C681.23 141.894 681.418 142.148 681.691 142.189C682.681 142.337 683.669 142.488 684.655 142.641C684.928 142.683 685.184 142.497 685.226 142.224C685.883 142.327 686.539 142.431 687.195 142.536C687.151 142.808 687.336 143.065 687.609 143.109C688.591 143.267 689.572 143.428 690.551 143.592C690.823 143.638 691.081 143.454 691.126 143.182C691.776 143.291 692.426 143.402 693.074 143.513C693.027 143.785 693.209 144.044 693.481 144.091C694.456 144.26 695.429 144.431 696.4 144.605C696.672 144.654 696.932 144.473 696.981 144.202C697.636 144.32 698.291 144.439 698.945 144.56C698.895 144.831 699.074 145.092 699.346 145.142C700.328 145.324 701.308 145.509 702.286 145.696C702.558 145.748 702.819 145.57 702.872 145.299C703.522 145.424 704.172 145.551 704.821 145.678C704.768 145.949 704.944 146.212 705.215 146.265C706.189 146.458 707.161 146.653 708.131 146.85C708.402 146.906 708.666 146.731 708.721 146.461C709.364 146.592 710.006 146.725 710.648 146.859C710.591 147.129 710.764 147.394 711.035 147.451C712.011 147.656 712.985 147.864 713.956 148.074C714.226 148.132 714.492 147.961 714.551 147.691C715.202 147.833 715.852 147.975 716.502 148.119C716.442 148.389 716.612 148.656 716.881 148.716C717.854 148.932 718.824 149.152 719.793 149.374C720.062 149.435 720.33 149.267 720.392 148.998C721.035 149.146 721.677 149.296 722.318 149.446C722.255 149.715 722.422 149.984 722.69 150.047C723.654 150.274 724.615 150.504 725.574 150.736C725.842 150.801 726.113 150.636 726.178 150.368C726.822 150.525 727.465 150.683 728.107 150.842C728.041 151.11 728.204 151.381 728.472 151.447C729.443 151.689 730.411 151.933 731.377 152.18C731.644 152.248 731.917 152.087 731.985 151.82C732.628 151.985 733.27 152.151 733.91 152.318C733.84 152.585 734 152.858 734.267 152.928C735.228 153.181 736.186 153.435 737.142 153.693C737.409 153.764 737.683 153.607 737.755 153.34C738.389 153.511 739.021 153.684 739.653 153.858C739.58 154.124 739.736 154.399 740.002 154.472C740.962 154.738 741.92 155.005 742.876 155.276C743.141 155.351 743.417 155.197 743.493 154.931C744.135 155.114 744.775 155.297 745.415 155.482C745.338 155.747 745.491 156.025 745.756 156.102C746.713 156.379 747.668 156.66 748.62 156.943C748.884 157.022 749.163 156.871 749.241 156.607C749.874 156.796 750.505 156.986 751.135 157.177C751.055 157.441 751.203 157.72 751.467 157.801C752.414 158.089 753.358 158.38 754.299 158.674C754.562 158.756 754.842 158.609 754.925 158.346C755.559 158.544 756.192 158.744 756.823 158.945C756.739 159.208 756.884 159.49 757.147 159.574C758.1 159.878 759.05 160.185 759.997 160.495C760.26 160.581 760.542 160.438 760.628 160.176C761.258 160.383 761.887 160.591 762.515 160.8C762.427 161.062 762.568 161.345 762.83 161.433C763.771 161.748 764.709 162.066 765.645 162.387C765.906 162.476 766.19 162.337 766.28 162.076C766.899 162.289 767.518 162.504 768.135 162.719C768.044 162.98 768.181 163.265 768.441 163.356C769.385 163.687 770.327 164.021 771.264 164.357C771.524 164.451 771.811 164.316 771.904 164.056C772.531 164.282 773.157 164.509 773.781 164.737C773.686 164.996 773.819 165.283 774.079 165.378C775.013 165.721 775.945 166.067 776.873 166.415C777.132 166.512 777.42 166.381 777.517 166.123C778.133 166.355 778.748 166.588 779.361 166.823C779.262 167.08 779.391 167.369 779.649 167.468C780.572 167.822 781.492 168.179 782.409 168.539C782.666 168.64 782.956 168.513 783.057 168.256C783.68 168.502 784.302 168.748 784.923 168.996C784.82 169.252 784.945 169.543 785.201 169.646C786.128 170.018 787.052 170.392 787.972 170.77C788.227 170.874 788.519 170.752 788.624 170.497C789.235 170.748 789.845 171.001 790.454 171.255C790.347 171.509 790.467 171.802 790.721 171.909C791.635 172.292 792.544 172.677 793.45 173.065C793.704 173.174 793.998 173.056 794.106 172.802C794.714 173.063 795.32 173.326 795.925 173.589C795.815 173.842 795.93 174.137 796.183 174.248C797.101 174.65 798.015 175.054 798.925 175.461C799.177 175.574 799.473 175.461 799.586 175.209C800.191 175.481 800.795 175.754 801.398 176.028C801.283 176.279 801.393 176.576 801.644 176.691C802.547 177.103 803.446 177.519 804.341 177.937C804.591 178.054 804.888 177.946 805.005 177.695C805.598 177.973 806.188 178.252 806.777 178.532C806.659 178.781 806.764 179.08 807.013 179.199C807.919 179.631 808.82 180.066 809.717 180.503C809.965 180.624 810.264 180.521 810.385 180.273C810.984 180.566 811.581 180.86 812.176 181.156C812.052 181.403 812.153 181.703 812.4 181.826C813.29 182.27 814.176 182.717 815.058 183.166C815.304 183.292 815.605 183.194 815.731 182.948C816.315 183.247 816.897 183.547 817.478 183.848C817.351 184.093 817.446 184.395 817.691 184.522C818.574 184.982 819.452 185.445 820.327 185.91C820.57 186.04 820.873 185.947 821.003 185.703C821.593 186.018 822.181 186.335 822.767 186.652C822.635 186.895 822.725 187.199 822.967 187.331C823.843 187.807 824.714 188.286 825.58 188.768C825.822 188.902 826.126 188.815 826.26 188.574C826.835 188.895 827.408 189.217 827.978 189.54C827.842 189.78 827.926 190.085 828.166 190.222C829.026 190.711 829.881 191.203 830.732 191.697C830.971 191.836 831.277 191.755 831.416 191.516C831.995 191.854 832.573 192.194 833.148 192.534C833.007 192.772 833.085 193.078 833.322 193.22C834.18 193.73 835.034 194.243 835.882 194.759C836.118 194.902 836.426 194.827 836.569 194.591C837.132 194.935 837.693 195.28 838.252 195.626C838.106 195.86 838.178 196.169 838.412 196.314C839.25 196.836 840.084 197.36 840.912 197.887C841.145 198.035 841.454 197.966 841.602 197.733C842.167 198.094 842.73 198.456 843.29 198.819C843.139 199.051 843.205 199.36 843.436 199.511C844.274 200.056 845.106 200.605 845.933 201.156C846.163 201.309 846.474 201.247 846.627 201.017C847.176 201.384 847.723 201.753 848.267 202.123C848.111 202.351 848.17 202.662 848.398 202.817C849.214 203.374 850.025 203.934 850.83 204.496C851.056 204.654 851.368 204.599 851.526 204.372C852.073 204.756 852.617 205.14 853.159 205.526C852.998 205.751 853.05 206.063 853.275 206.224C854.089 206.806 854.896 207.391 855.698 207.979C855.921 208.142 856.234 208.094 856.397 207.871C856.929 208.263 857.459 208.656 857.987 209.051C857.821 209.271 857.866 209.584 858.086 209.75C858.876 210.344 859.66 210.94 860.438 211.539C860.657 211.707 860.971 211.666 861.139 211.448C861.667 211.856 862.193 212.265 862.715 212.676C862.544 212.893 862.581 213.207 862.798 213.378C863.583 213.998 864.362 214.621 865.134 215.247C865.349 215.42 865.664 215.387 865.837 215.173C866.35 215.59 866.86 216.009 867.367 216.428C867.191 216.641 867.22 216.956 867.432 217.132C868.192 217.763 868.944 218.397 869.691 219.034C869.901 219.213 870.216 219.189 870.395 218.979C870.903 219.414 871.408 219.851 871.909 220.288C871.728 220.496 871.749 220.812 871.956 220.994C872.708 221.653 873.453 222.315 874.19 222.979C874.395 223.164 874.711 223.148 874.896 222.943C875.386 223.386 875.872 223.831 876.355 224.276C876.168 224.479 876.18 224.795 876.382 224.982C877.106 225.653 877.823 226.326 878.532 227.002C878.732 227.192 879.048 227.185 879.238 226.985C879.724 227.45 880.205 227.916 880.684 228.383C880.491 228.58 880.494 228.897 880.691 229.09C881.403 229.789 882.108 230.491 882.806 231.196C883 231.392 883.316 231.394 883.512 231.2C883.974 231.67 884.433 232.14 884.888 232.612C884.689 232.804 884.683 233.12 884.874 233.319C885.56 234.034 886.238 234.752 886.909 235.472C887.097 235.674 887.413 235.686 887.615 235.498C888.07 235.99 888.522 236.483 888.969 236.977C888.765 237.162 888.748 237.478 888.933 237.683C889.6 238.423 890.258 239.166 890.908 239.911C891.089 240.119 891.405 240.141 891.613 239.96C892.043 240.456 892.47 240.954 892.892 241.452C892.682 241.63 892.655 241.945 892.833 242.156C893.476 242.919 894.109 243.684 894.735 244.451C894.909 244.665 895.223 244.698 895.438 244.524C895.857 245.043 896.273 245.562 896.685 246.084C896.469 246.254 896.431 246.568 896.601 246.785C897.215 247.566 897.819 248.35 898.414 249.136C898.581 249.356 898.894 249.4 899.114 249.234C899.508 249.757 899.898 250.282 900.284 250.808C900.061 250.971 900.013 251.283 900.175 251.506C900.765 252.316 901.346 253.129 901.918 253.945C902.076 254.171 902.387 254.226 902.613 254.068C902.992 254.613 903.367 255.16 903.738 255.707C903.509 255.861 903.449 256.172 903.603 256.401C904.155 257.222 904.697 258.046 905.229 258.873C905.379 259.105 905.688 259.172 905.92 259.023C906.277 259.582 906.63 260.142 906.979 260.703C906.744 260.848 906.671 261.156 906.816 261.391C907.339 262.24 907.852 263.093 908.355 263.948C908.495 264.186 908.801 264.265 909.039 264.126C909.372 264.697 909.7 265.268 910.024 265.841C909.783 265.977 909.698 266.281 909.833 266.522C910.316 267.385 910.789 268.25 911.251 269.119C911.381 269.362 911.683 269.455 911.927 269.325C912.238 269.916 912.545 270.508 912.847 271.1C912.601 271.225 912.503 271.525 912.627 271.772C913.074 272.659 913.511 273.548 913.936 274.441C914.055 274.69 914.353 274.796 914.602 274.677C914.883 275.272 915.159 275.868 915.43 276.465C915.179 276.579 915.067 276.874 915.18 277.126C915.588 278.034 915.984 278.945 916.37 279.858C916.477 280.113 916.769 280.232 917.024 280.125C917.279 280.738 917.529 281.351 917.774 281.966C917.518 282.068 917.392 282.358 917.493 282.614C917.856 283.535 918.207 284.459 918.547 285.385C918.642 285.644 918.928 285.777 919.188 285.683C919.413 286.305 919.633 286.929 919.847 287.553C919.586 287.642 919.447 287.925 919.535 288.187C919.854 289.128 920.161 290.071 920.456 291.017C920.538 291.28 920.818 291.428 921.081 291.346C921.275 291.978 921.463 292.611 921.647 293.245C921.382 293.321 921.228 293.597 921.303 293.862C921.574 294.814 921.832 295.769 922.078 296.726C922.147 296.993 922.419 297.154 922.686 297.086C922.848 297.729 923.004 298.372 923.155 299.017C922.887 299.079 922.719 299.347 922.781 299.616C923.003 300.581 923.212 301.549 923.408 302.519C923.463 302.79 923.726 302.965 923.996 302.911C924.124 303.559 924.247 304.208 924.364 304.858C924.092 304.906 923.911 305.165 923.958 305.437C924.129 306.411 924.287 307.389 924.432 308.368C924.472 308.641 924.726 308.829 924.999 308.789C925.093 309.444 925.181 310.099 925.263 310.755C924.99 310.789 924.795 311.038 924.828 311.312C924.947 312.295 925.053 313.281 925.146 314.268C925.171 314.543 925.414 314.744 925.689 314.719C925.748 315.376 925.801 316.033 925.848 316.692C925.573 316.711 925.365 316.949 925.383 317.224C925.449 318.21 925.503 319.198 925.542 320.187C925.553 320.463 925.785 320.677 926.061 320.667Z" stroke="#FFFDFD" stroke-linecap="round" stroke-linejoin="round" stroke-dasharray="3 3"/>
<line x1="0.5" y1="-0.5" x2="991.024" y2="-0.5" transform="matrix(0.866579 -0.499041 0.500039 0.866003 169.338 584.584)" stroke="#D7D7D7" stroke-linecap="round" stroke-linejoin="round" stroke-dasharray="3 3"/>
<line x1="0.5" y1="-0.5" x2="991.024" y2="-0.5" transform="matrix(0.866579 0.499041 -0.500039 0.866003 169.338 89.7734)" stroke="#D7D7D7" stroke-linecap="round" stroke-linejoin="round" stroke-dasharray="3 3"/>
<path d="M1184.87 338.225C1184.87 431.369 1119.4 515.79 1013.36 576.953C907.329 638.109 760.816 675.95 598.954 675.95C437.093 675.95 290.579 638.109 184.549 576.953C78.5046 515.79 13.043 431.369 13.043 338.225C13.043 245.081 78.5046 160.66 184.549 99.497C290.579 38.3414 437.093 0.5 598.954 0.5C760.816 0.5 907.329 38.3414 1013.36 99.497C1119.4 160.66 1184.87 245.081 1184.87 338.225Z" stroke="#24FF00"/>
<path d="M598.711 335.075C597.997 335.495 597.76 336.414 598.181 337.128C598.602 337.841 599.522 338.079 600.236 337.659L598.711 335.075ZM695.404 281.143C695.611 280.341 695.128 279.523 694.326 279.316L681.247 275.936C680.445 275.729 679.626 276.211 679.419 277.012C679.212 277.814 679.695 278.632 680.497 278.839L692.122 281.843L689.121 293.455C688.914 294.257 689.397 295.074 690.2 295.282C691.002 295.489 691.821 295.008 692.028 294.206L695.404 281.143ZM600.236 337.659L694.713 282.059L693.188 279.476L598.711 335.075L600.236 337.659Z" fill="#FF0606"/>
<path d="M598.724 337.667C599.443 338.08 600.36 337.833 600.774 337.115C601.188 336.397 600.941 335.481 600.223 335.068L598.724 337.667ZM504.05 280.276C503.249 280.491 502.775 281.314 502.99 282.113L506.498 295.142C506.713 295.941 507.536 296.415 508.337 296.199C509.137 295.984 509.611 295.161 509.396 294.361L506.278 282.781L517.872 279.659C518.673 279.444 519.147 278.621 518.932 277.821C518.717 277.022 517.893 276.549 517.093 276.764L504.05 280.276ZM600.223 335.068L505.188 280.424L503.69 283.023L598.724 337.667L600.223 335.068Z" fill="#11D600"/>
<path d="M597.974 337.934C597.974 338.762 598.645 339.434 599.474 339.434C600.302 339.434 600.974 338.762 600.974 337.934H597.974ZM600.534 225.794C599.949 225.208 598.999 225.208 598.413 225.794L588.867 235.34C588.281 235.926 588.281 236.875 588.867 237.461C589.453 238.047 590.403 238.047 590.988 237.461L599.474 228.976L607.959 237.461C608.545 238.047 609.494 238.047 610.08 237.461C610.666 236.875 610.666 235.926 610.08 235.34L600.534 225.794ZM600.974 337.934V226.854H597.974V337.934H600.974Z" fill="#1A0ACF"/>
<defs>
<linearGradient id="paint0_linear_232_3390" x1="1.22802e-05" y1="515.685" x2="1200" y2="507.312" gradientUnits="userSpaceOnUse">
<stop stop-color="#2F2F2F"/>
<stop stop-color="#4E4C4C"/>
<stop offset="0.122829" stop-color="#353535"/>
<stop offset="0.419792" stop-color="#5B5B5B"/>
<stop offset="0.753125" stop-color="#343333" stop-opacity="0.84"/>
<stop offset="0.931352" stop-color="#666565"/>
<stop offset="0.9999" stop-color="#555555"/>
</linearGradient>
<linearGradient id="paint1_linear_232_3390" x1="0" y1="432.175" x2="1200" y2="432.175" gradientUnits="userSpaceOnUse">
<stop stop-color="#4E4D4D"/>
<stop offset="0.0656249" stop-color="#404040"/>
<stop offset="0.565625" stop-color="#5C5C5C"/>
<stop offset="0.841667" stop-color="#6B6A6A"/>
<stop offset="0.904167" stop-color="#696969"/>
<stop offset="1" stop-color="#585656"/>
</linearGradient>
<linearGradient id="paint2_linear_232_3390" x1="0" y1="346.576" x2="1200" y2="346.576" gradientUnits="userSpaceOnUse">
<stop stop-color="#454545"/>
<stop offset="1" stop-color="#7E7E7E"/>
</linearGradient>
<radialGradient id="paint3_radial_232_3390" cx="0" cy="0" r="1" gradientUnits="userSpaceOnUse" gradientTransform="translate(598.954 338.225) rotate(90) scale(338.225 586.411)">
<stop stop-color="#6A6A6A"/>
<stop offset="1" stop-color="#3D3C3C"/>
</radialGradient>
</defs>
</svg>
