<svg width="120" height="50" viewBox="0 0 120 50" fill="none" xmlns="http://www.w3.org/2000/svg">
<rect width="120" height="50" rx="10" fill="#FF2E2E"/>
<path d="M0 24C0 24 36.4699 33 60 33C83.5301 33 120 24 120 24V40C120 45.5228 115.523 50 110 50H10C4.47715 50 0 45.5228 0 40V24Z" fill="url(#paint0_linear_358_334)"/>
<mask id="mask0_358_334" style="mask-type:alpha" maskUnits="userSpaceOnUse" x="0" y="0" width="120" height="50">
<rect width="120" height="50" rx="10" fill="#FF2E2E"/>
<path d="M0 24C0 24 36.4699 33 60 33C83.5301 33 120 24 120 24V40C120 45.5228 115.523 50 110 50H10C4.47715 50 0 45.5228 0 40V24Z" fill="url(#paint1_linear_358_334)"/>
<path d="M25.6372 32H21.6294L21.6558 29.9302H25.6372C27.0083 29.9302 28.1509 29.6445 29.0649 29.0732C29.979 28.4932 30.6646 27.6846 31.1216 26.6475C31.5874 25.6016 31.8203 24.3799 31.8203 22.9824V21.8091C31.8203 20.7104 31.6885 19.7349 31.4248 18.8823C31.1611 18.021 30.7744 17.2959 30.2646 16.707C29.7549 16.1094 29.1309 15.6567 28.3926 15.3491C27.6631 15.0415 26.8237 14.8877 25.8745 14.8877H21.5503V12.8047H25.8745C27.1313 12.8047 28.2783 13.0156 29.3154 13.4375C30.3525 13.8506 31.2446 14.4526 31.9917 15.2437C32.7476 16.0259 33.3276 16.9751 33.7319 18.0913C34.1362 19.1987 34.3384 20.4468 34.3384 21.8354V22.9824C34.3384 24.3711 34.1362 25.6235 33.7319 26.7397C33.3276 27.8472 32.7432 28.792 31.9785 29.5742C31.2227 30.3564 30.3086 30.9585 29.2363 31.3804C28.1729 31.7935 26.9731 32 25.6372 32ZM22.9873 12.8047V32H20.4429V12.8047H22.9873ZM43.7119 32.2637C42.7188 32.2637 41.8179 32.0967 41.0093 31.7627C40.2095 31.4199 39.5195 30.9409 38.9395 30.3257C38.3682 29.7104 37.9287 28.981 37.6211 28.1372C37.3135 27.2935 37.1597 26.3706 37.1597 25.3687V24.8149C37.1597 23.6548 37.3311 22.6221 37.6738 21.7168C38.0166 20.8027 38.4824 20.0293 39.0713 19.3965C39.6602 18.7637 40.3281 18.2847 41.0752 17.9595C41.8223 17.6343 42.5957 17.4717 43.3955 17.4717C44.415 17.4717 45.2939 17.6475 46.0322 17.999C46.7793 18.3506 47.3901 18.8428 47.8647 19.4756C48.3394 20.0996 48.6909 20.8379 48.9194 21.6904C49.1479 22.5342 49.2622 23.457 49.2622 24.459V25.5532H38.6099V23.5625H46.8232V23.3779C46.7881 22.7451 46.6562 22.1299 46.4277 21.5322C46.208 20.9346 45.8564 20.4424 45.373 20.0557C44.8896 19.6689 44.2305 19.4756 43.3955 19.4756C42.8418 19.4756 42.332 19.5942 41.8662 19.8315C41.4004 20.0601 41.0005 20.4028 40.6665 20.8599C40.3325 21.3169 40.0732 21.875 39.8887 22.5342C39.7041 23.1934 39.6118 23.9536 39.6118 24.8149V25.3687C39.6118 26.0454 39.7041 26.6826 39.8887 27.2803C40.082 27.8691 40.3589 28.3877 40.7192 28.8359C41.0884 29.2842 41.5322 29.6357 42.0508 29.8906C42.5781 30.1455 43.1758 30.2729 43.8438 30.2729C44.7051 30.2729 45.4346 30.0972 46.0322 29.7456C46.6299 29.394 47.1528 28.9238 47.6011 28.335L49.0776 29.5083C48.77 29.9741 48.3789 30.418 47.9043 30.8398C47.4297 31.2617 46.8452 31.6045 46.1509 31.8682C45.4653 32.1318 44.6523 32.2637 43.7119 32.2637ZM54.7598 11.75V32H52.3076V11.75H54.7598ZM64.5947 32.2637C63.6016 32.2637 62.7007 32.0967 61.8921 31.7627C61.0923 31.4199 60.4023 30.9409 59.8223 30.3257C59.251 29.7104 58.8115 28.981 58.5039 28.1372C58.1963 27.2935 58.0425 26.3706 58.0425 25.3687V24.8149C58.0425 23.6548 58.2139 22.6221 58.5566 21.7168C58.8994 20.8027 59.3652 20.0293 59.9541 19.3965C60.543 18.7637 61.2109 18.2847 61.958 17.9595C62.7051 17.6343 63.4785 17.4717 64.2783 17.4717C65.2979 17.4717 66.1768 17.6475 66.915 17.999C67.6621 18.3506 68.2729 18.8428 68.7476 19.4756C69.2222 20.0996 69.5737 20.8379 69.8022 21.6904C70.0308 22.5342 70.145 23.457 70.145 24.459V25.5532H59.4927V23.5625H67.7061V23.3779C67.6709 22.7451 67.5391 22.1299 67.3105 21.5322C67.0908 20.9346 66.7393 20.4424 66.2559 20.0557C65.7725 19.6689 65.1133 19.4756 64.2783 19.4756C63.7246 19.4756 63.2148 19.5942 62.749 19.8315C62.2832 20.0601 61.8833 20.4028 61.5493 20.8599C61.2153 21.3169 60.9561 21.875 60.7715 22.5342C60.5869 23.1934 60.4946 23.9536 60.4946 24.8149V25.3687C60.4946 26.0454 60.5869 26.6826 60.7715 27.2803C60.9648 27.8691 61.2417 28.3877 61.6021 28.8359C61.9712 29.2842 62.415 29.6357 62.9336 29.8906C63.4609 30.1455 64.0586 30.2729 64.7266 30.2729C65.5879 30.2729 66.3174 30.0972 66.915 29.7456C67.5127 29.394 68.0356 28.9238 68.4839 28.335L69.9604 29.5083C69.6528 29.9741 69.2617 30.418 68.7871 30.8398C68.3125 31.2617 67.728 31.6045 67.0337 31.8682C66.3481 32.1318 65.5352 32.2637 64.5947 32.2637ZM78.9648 17.7354V19.6074H71.2524V17.7354H78.9648ZM73.8628 14.2681H76.3018V28.4668C76.3018 28.9502 76.3765 29.3149 76.5259 29.561C76.6753 29.8071 76.8687 29.9697 77.106 30.0488C77.3433 30.1279 77.5981 30.1675 77.8706 30.1675C78.0728 30.1675 78.2837 30.1499 78.5034 30.1147C78.7319 30.0708 78.9033 30.0356 79.0176 30.0093L79.0308 32C78.8374 32.0615 78.5825 32.1187 78.2661 32.1714C77.9585 32.2329 77.585 32.2637 77.1455 32.2637C76.5479 32.2637 75.9985 32.145 75.4976 31.9077C74.9966 31.6704 74.5967 31.2749 74.2979 30.7212C74.0078 30.1587 73.8628 29.4028 73.8628 28.4536V14.2681ZM87.7451 32.2637C86.752 32.2637 85.8511 32.0967 85.0425 31.7627C84.2427 31.4199 83.5527 30.9409 82.9727 30.3257C82.4014 29.7104 81.9619 28.981 81.6543 28.1372C81.3467 27.2935 81.1929 26.3706 81.1929 25.3687V24.8149C81.1929 23.6548 81.3643 22.6221 81.707 21.7168C82.0498 20.8027 82.5156 20.0293 83.1045 19.3965C83.6934 18.7637 84.3613 18.2847 85.1084 17.9595C85.8555 17.6343 86.6289 17.4717 87.4287 17.4717C88.4482 17.4717 89.3271 17.6475 90.0654 17.999C90.8125 18.3506 91.4233 18.8428 91.8979 19.4756C92.3726 20.0996 92.7241 20.8379 92.9526 21.6904C93.1812 22.5342 93.2954 23.457 93.2954 24.459V25.5532H82.6431V23.5625H90.8564V23.3779C90.8213 22.7451 90.6895 22.1299 90.4609 21.5322C90.2412 20.9346 89.8896 20.4424 89.4062 20.0557C88.9229 19.6689 88.2637 19.4756 87.4287 19.4756C86.875 19.4756 86.3652 19.5942 85.8994 19.8315C85.4336 20.0601 85.0337 20.4028 84.6997 20.8599C84.3657 21.3169 84.1064 21.875 83.9219 22.5342C83.7373 23.1934 83.645 23.9536 83.645 24.8149V25.3687C83.645 26.0454 83.7373 26.6826 83.9219 27.2803C84.1152 27.8691 84.3921 28.3877 84.7524 28.8359C85.1216 29.2842 85.5654 29.6357 86.084 29.8906C86.6113 30.1455 87.209 30.2729 87.877 30.2729C88.7383 30.2729 89.4678 30.0972 90.0654 29.7456C90.6631 29.394 91.186 28.9238 91.6343 28.335L93.1108 29.5083C92.8032 29.9741 92.4121 30.418 91.9375 30.8398C91.4629 31.2617 90.8784 31.6045 90.1841 31.8682C89.4985 32.1318 88.6855 32.2637 87.7451 32.2637Z" fill="white"/>
</mask>
<g mask="url(#mask0_358_334)">
<g filter="url(#filter0_f_358_334)">
<rect x="0.601562" y="0.414062" width="118.78" height="49" rx="9.5" stroke="white"/>
</g>
</g>
<defs>
<filter id="filter0_f_358_334" x="-3.89844" y="-4.08594" width="127.779" height="58" filterUnits="userSpaceOnUse" color-interpolation-filters="sRGB">
<feFlood flood-opacity="0" result="BackgroundImageFix"/>
<feBlend mode="normal" in="SourceGraphic" in2="BackgroundImageFix" result="shape"/>
<feGaussianBlur stdDeviation="2" result="effect1_foregroundBlur_358_334"/>
</filter>
<linearGradient id="paint0_linear_358_334" x1="60" y1="24" x2="60" y2="50" gradientUnits="userSpaceOnUse">
<stop stop-color="#D00000"/>
<stop offset="1" stop-color="#202020" stop-opacity="0"/>
</linearGradient>
<linearGradient id="paint1_linear_358_334" x1="60" y1="24" x2="60" y2="50" gradientUnits="userSpaceOnUse">
<stop stop-color="#D00000"/>
<stop offset="1" stop-color="#202020" stop-opacity="0"/>
</linearGradient>
</defs>
</svg>
