<svg width="70" height="28" viewBox="0 0 70 28" fill="none" xmlns="http://www.w3.org/2000/svg">
<rect width="69.1593" height="27.9163" rx="10" fill="#FF2E2E"/>
<path d="M0 13.4004C0 13.4004 21.0186 18.4253 34.5796 18.4253C48.1407 18.4253 69.1593 13.4004 69.1593 13.4004V17.9169C69.1593 23.4397 64.6821 27.9169 59.1593 27.9169H10C4.47716 27.9169 0 23.4397 0 17.9169L0 13.4004Z" fill="url(#paint0_linear_64_4040)"/>
<mask id="mask0_64_4040" style="mask-type:alpha" maskUnits="userSpaceOnUse" x="0" y="0" width="70" height="28">
<rect y="0.000976562" width="69.1593" height="27.9163" rx="10" fill="#FF2E2E"/>
<path d="M0 13.4014C0 13.4014 21.0186 18.4263 34.5796 18.4263C48.1407 18.4263 69.1593 13.4014 69.1593 13.4014V17.9178C69.1593 23.4407 64.6821 27.9178 59.1593 27.9178H10C4.47716 27.9178 0 23.4407 0 17.9178L0 13.4014Z" fill="url(#paint1_linear_64_4040)"/>
</mask>
<g mask="url(#mask0_64_4040)">
<g filter="url(#filter0_f_64_4040)">
<rect x="0.558594" y="0.455078" width="68.0326" height="26.9163" rx="9.5" stroke="white"/>
</g>
</g>
<defs>
<filter id="filter0_f_64_4040" x="-3.94141" y="-4.04492" width="77.0332" height="35.916" filterUnits="userSpaceOnUse" color-interpolation-filters="sRGB">
<feFlood flood-opacity="0" result="BackgroundImageFix"/>
<feBlend mode="normal" in="SourceGraphic" in2="BackgroundImageFix" result="shape"/>
<feGaussianBlur stdDeviation="2" result="effect1_foregroundBlur_64_4040"/>
</filter>
<linearGradient id="paint0_linear_64_4040" x1="34.5796" y1="13.4004" x2="34.5796" y2="27.9169" gradientUnits="userSpaceOnUse">
<stop stop-color="#D00000"/>
<stop offset="1" stop-color="#202020" stop-opacity="0"/>
</linearGradient>
<linearGradient id="paint1_linear_64_4040" x1="34.5796" y1="13.4014" x2="34.5796" y2="27.9178" gradientUnits="userSpaceOnUse">
<stop stop-color="#D00000"/>
<stop offset="1" stop-color="#202020" stop-opacity="0"/>
</linearGradient>
</defs>
</svg>
