<svg width="60" height="60" viewBox="0 0 60 60" fill="none" xmlns="http://www.w3.org/2000/svg">
<path fill-rule="evenodd" clip-rule="evenodd" d="M30.2562 50.9196C42.0755 50.9196 51.6569 41.3382 51.6569 29.5189C51.6569 17.6996 42.0755 8.11816 30.2562 8.11816C18.4369 8.11816 8.85547 17.6996 8.85547 29.5189C8.85547 41.3382 18.4369 50.9196 30.2562 50.9196ZM30.2559 37.6361C34.7391 37.6361 38.3734 34.0018 38.3734 29.5186C38.3734 25.0354 34.7391 21.4011 30.2559 21.4011C25.7727 21.4011 22.1384 25.0354 22.1384 29.5186C22.1384 34.0018 25.7727 37.6361 30.2559 37.6361Z" fill="white"/>
<path d="M23.0106 6.76677C22.5482 3.17832 25.3433 0 28.9614 0L32.2889 0C35.9071 0 38.7021 3.17832 38.2398 6.76677L38.1695 7.31202C37.7839 10.3046 35.236 12.5453 32.2187 12.5453H29.0316C26.0144 12.5453 23.4664 10.3046 23.0808 7.31202L23.0106 6.76677Z" fill="white"/>
<path d="M5.97413 35.8502C2.80602 37.5977 1.89371 41.7307 4.03178 44.6495L5.99815 47.3339C8.13622 50.2527 12.3519 50.6294 14.9736 48.1358L15.3719 47.757C17.5582 45.6775 17.8601 42.2979 16.0771 39.8638L14.1938 37.2928C12.4108 34.8587 9.09751 34.1273 6.45551 35.5846L5.97413 35.8502Z" fill="white"/>
<path d="M5.97413 22.892C2.80602 21.1445 1.89371 17.0115 4.03178 14.0927L5.99815 11.4083C8.13622 8.48945 12.3519 8.1128 14.9736 10.6063L15.3719 10.9852C17.5582 13.0647 17.8601 16.4443 16.0771 18.8784L14.1938 21.4494C12.4108 23.8835 9.09751 24.6149 6.45551 23.1575L5.97413 22.892Z" fill="white"/>
<path d="M54.0259 35.8502C57.194 37.5977 58.1063 41.7307 55.9682 44.6495L54.0018 47.3339C51.8638 50.2527 47.6481 50.6294 45.0264 48.1358L44.6281 47.757C42.4418 45.6775 42.1399 42.2979 43.9229 39.8638L45.8062 37.2928C47.5892 34.8587 50.9025 34.1273 53.5445 35.5846L54.0259 35.8502Z" fill="white"/>
<path d="M54.0259 22.892C57.194 21.1445 58.1063 17.0115 55.9682 14.0927L54.0018 11.4083C51.8638 8.48945 47.6481 8.1128 45.0264 10.6063L44.6281 10.9852C42.4418 13.0647 42.1399 16.4443 43.9229 18.8784L45.8062 21.4494C47.5892 23.8835 50.9025 24.6149 53.5445 23.1575L54.0259 22.892Z" fill="white"/>
<path d="M23.0106 53.0076C22.5482 56.5961 25.3433 59.7744 28.9614 59.7744H32.2889C35.9071 59.7744 38.7021 56.5961 38.2398 53.0076L38.1695 52.4624C37.7839 49.4699 35.236 47.2292 32.2187 47.2292H29.0316C26.0144 47.2292 23.4664 49.4699 23.0808 52.4624L23.0106 53.0076Z" fill="white"/>
</svg>
