<svg width="126" height="101" viewBox="0 0 126 101" fill="none" xmlns="http://www.w3.org/2000/svg">
<path fill-rule="evenodd" clip-rule="evenodd" d="M84.7622 69C100.778 69 113.762 56.0163 113.762 40C113.762 23.9837 100.778 11 84.7622 11C68.7459 11 55.7622 23.9837 55.7622 40C55.7622 56.0163 68.7459 69 84.7622 69ZM84.7622 51C90.8373 51 95.7622 46.0751 95.7622 40C95.7622 33.9249 90.8373 29 84.7622 29C78.6871 29 73.7622 33.9249 73.7622 40C73.7622 46.0751 78.6871 51 84.7622 51Z" fill="white"/>
<path d="M74.6341 6.76677C74.1717 3.17832 76.9668 0 80.5849 0H89.9395C93.5576 0 96.3527 3.17832 95.8903 6.76677L95.246 11.7668C94.8604 14.7593 92.3125 17 89.2952 17H81.2292C78.2119 17 75.664 14.7593 75.2784 11.7668L74.6341 6.76677Z" fill="white"/>
<path d="M49.7363 49.7515C46.5682 51.4991 45.6559 55.6321 47.794 58.5509L53.3219 66.0974C55.46 69.0162 59.6757 69.3929 62.2973 66.8993L65.9502 63.4249C68.1365 61.3454 68.4385 57.9659 66.6554 55.5318L61.8889 49.0247C60.1059 46.5906 56.7926 45.8593 54.1506 47.3166L49.7363 49.7515Z" fill="white"/>
<path d="M49.7363 29.85C46.5682 28.1025 45.6559 23.9695 47.794 21.0507L53.3219 13.5042C55.46 10.5854 59.6757 10.2087 62.2973 12.7022L65.9502 16.1767C68.1365 18.2561 68.4385 21.6357 66.6554 24.0698L61.8889 30.5768C60.1059 33.0109 56.7926 33.7423 54.1506 32.285L49.7363 29.85Z" fill="white"/>
<path d="M119.094 49.7515C122.262 51.4991 123.174 55.6321 121.036 58.5509L115.508 66.0974C113.37 69.0162 109.154 69.3929 106.533 66.8993L102.88 63.4249C100.694 61.3454 100.392 57.9659 102.175 55.5318L106.941 49.0247C108.724 46.5906 112.037 45.8593 114.679 47.3166L119.094 49.7515Z" fill="white"/>
<path d="M119.094 29.85C122.262 28.1025 123.174 23.9695 121.036 21.0507L115.508 13.5042C113.37 10.5854 109.154 10.2087 106.533 12.7022L102.88 16.1767C100.694 18.2561 100.392 21.6357 102.175 24.0698L106.941 30.5768C108.724 33.0109 112.037 33.7423 114.679 32.285L119.094 29.85Z" fill="white"/>
<path d="M74.6341 74.2332C74.1717 77.8217 76.9668 81 80.5849 81H89.9395C93.5576 81 96.3527 77.8217 95.8903 74.2332L95.246 69.2332C94.8604 66.2407 92.3125 64 89.2952 64H81.2292C78.2119 64 75.664 66.2407 75.2784 69.2332L74.6341 74.2332Z" fill="white"/>
<path fill-rule="evenodd" clip-rule="evenodd" d="M31.9788 86.6959C38.3147 83.0378 40.4856 74.9362 36.8276 68.6002C33.1695 62.2643 25.0678 60.0935 18.7319 63.7515C12.396 67.4096 10.2252 75.5113 13.8832 81.8472C17.5413 88.1831 25.6429 90.3539 31.9788 86.6959ZM27.8677 79.5752C30.271 78.1877 31.0944 75.1146 29.7069 72.7114C28.3194 70.3081 25.2463 69.4847 22.843 70.8722C20.4398 72.2597 19.6163 75.3328 21.0039 77.7361C22.3914 80.1393 25.4645 80.9627 27.8677 79.5752Z" fill="white"/>
<path d="M14.5458 65.4222C13.1256 63.5608 13.6636 60.8752 15.6913 59.7046L17.1427 58.8666C19.1704 57.6959 21.7652 58.5727 22.6671 60.7334V60.7334C23.4193 62.5352 22.7164 64.6154 21.0254 65.5916L19.574 66.4296C17.883 67.4059 15.7301 66.9746 14.5458 65.4222V65.4222Z" fill="white"/>
<path d="M14.397 85.9683C13.187 87.9727 14.013 90.5841 16.1556 91.5281L17.6893 92.2038C19.8319 93.1478 22.3164 91.9948 22.9788 89.7491V89.7491C23.5312 87.8763 22.6069 85.8847 20.8201 85.0975L19.2864 84.4218C17.4996 83.6346 15.4061 84.2967 14.397 85.9683V85.9683Z" fill="white"/>
<path d="M10.4792 79.1814C8.1383 79.2271 6.28975 77.206 6.54356 74.8785L6.72524 73.2124C6.97906 70.8849 9.21976 69.3097 11.4958 69.8589V69.8589C13.3939 70.3169 14.6566 72.1132 14.4449 74.0542L14.2632 75.7203C14.0516 77.6613 12.4314 79.1432 10.4792 79.1814V79.1814Z" fill="white"/>
<path d="M39.865 71.2639C42.2059 71.2182 44.0545 73.2393 43.8007 75.5668L43.619 77.2329C43.3652 79.5605 41.1245 81.1356 38.8484 80.5864V80.5864C36.9504 80.1284 35.6877 78.3321 35.8993 76.3911L36.081 74.725C36.2927 72.784 37.9129 71.3021 39.865 71.2639V71.2639Z" fill="white"/>
<path d="M35.9472 64.479C37.1573 62.4746 36.3313 59.8631 34.1886 58.9192L32.6549 58.2435C30.5123 57.2995 28.0278 58.4525 27.3654 60.6981V60.6981C26.813 62.5709 27.7373 64.5626 29.5241 65.3498L31.0578 66.0255C32.8446 66.8127 34.9381 66.1505 35.9472 64.479V64.479Z" fill="white"/>
<path d="M28.6669 89.8807C29.5688 92.0414 32.1636 92.9182 34.1913 91.7475L35.6427 90.9095C37.6704 89.7389 38.2084 87.0533 36.7882 85.1919V85.1919C35.6038 83.6395 33.4509 83.2082 31.76 84.1845L30.3086 85.0225C28.6176 85.9987 27.9147 88.0789 28.6669 89.8807V89.8807Z" fill="white"/>
</svg>
