<svg width="107" height="107" viewBox="0 0 107 107" fill="none" xmlns="http://www.w3.org/2000/svg">
<path d="M4.94975 97.1431C2.21608 94.4094 2.21608 89.9773 4.94975 87.2436L31.0739 61.1194C34.02 58.1733 38.8716 58.4371 41.4809 61.6853L45.1645 66.2707C47.3954 69.0478 47.185 73.0572 44.6758 75.5856L19.0999 101.356C16.3693 104.108 11.9226 104.116 9.18162 101.375L4.94975 97.1431Z" fill="white"/>
<path fill-rule="evenodd" clip-rule="evenodd" d="M86.3925 34.4804C86.9451 33.9278 87.4193 33.3265 87.815 32.6903L102.15 18.3553L106.774 22.979C106.012 32.3686 103.217 42.9753 98.6088 47.583C92.9422 53.2496 85.4119 55.9166 77.991 55.584L61.6417 38.6507L56.5619 43.6276C49.2811 32.9572 50.3748 18.2856 59.8431 8.81736C64.5943 4.06611 74.8094 0.89024 83.7947 0L88.3385 4.54382L73.5945 19.2878C73.1388 19.6103 72.7041 19.9757 72.2959 20.3838C68.4033 24.2765 72.2959 34.4804 72.2959 34.4804C72.2959 34.4804 82.4999 38.3731 86.3925 34.4804ZM57.937 45.4712C58.5293 46.1996 59.1647 46.9047 59.8431 47.583C64.0082 51.7482 69.1803 54.2927 74.5758 55.2166L61.6417 41.7657L57.937 45.4712Z" fill="white"/>
<path d="M102.757 83.562C105.101 85.9052 105.101 89.7042 102.757 92.0473L93.2291 101.576C90.886 103.919 87.087 103.919 84.7438 101.576L44.0723 60.904C43.6818 60.5135 43.6818 59.8804 44.0723 59.4898L60.6716 42.8905C61.0621 42.5 61.6953 42.5 62.0858 42.8905L102.757 83.562Z" fill="white"/>
<path d="M57.2916 48.5132C59.3876 50.6043 59.3895 53.9992 57.296 56.0927V56.0927C55.2025 58.1862 51.8076 58.1843 49.7165 56.0884L9.27024 15.5505C8.95853 15.2381 8.95882 14.7323 9.27088 14.4202V14.4202C9.62527 14.0658 9.57008 13.4765 9.15604 13.1941L2.78381 8.84742C2.26608 8.49426 2.19706 7.75736 2.64021 7.31421L8.48772 1.4667C8.94059 1.01383 9.6965 1.09747 10.0394 1.63838L14.2702 8.31204C14.5858 8.80983 15.3092 8.81816 15.6361 8.32777V8.32777C15.9211 7.90034 16.5257 7.84014 16.8894 8.20297L57.2916 48.5132Z" fill="white"/>
<path d="M46.0669 54.8472L41.083 60.4541L50.4279 69.7993L43.575 76.6522L31.1152 61.0771L41.706 50.4863L46.0669 54.8472Z" fill="white"/>
<path d="M66.6255 33.6656L61.6416 38.0265V38.6495L61.0186 39.2725L56.0347 44.2564L51.6738 39.8955L62.2646 29.3047L66.6255 33.6656Z" fill="white"/>
</svg>
