<svg width="126" height="72" viewBox="0 0 126 72" fill="none" xmlns="http://www.w3.org/2000/svg">
<path d="M2.79853 36.2533C2.7239 36.1653 2.65258 36.0808 2.58459 36C2.65258 35.9192 2.7239 35.8347 2.79853 35.7467C3.6138 34.7853 4.82236 33.4046 6.38221 31.7445C9.50416 28.4218 14.0214 23.9922 19.5979 19.5666C30.8025 10.6744 46.0291 2 62.6667 2C79.3042 2 94.5308 10.6744 105.735 19.5666C111.312 23.9922 115.829 28.4218 118.951 31.7445C120.511 33.4046 121.72 34.7853 122.535 35.7467C122.609 35.8347 122.681 35.9192 122.749 36C122.681 36.0808 122.609 36.1653 122.535 36.2533C121.72 37.2147 120.511 38.5954 118.951 40.2555C115.829 43.5782 111.312 48.0078 105.735 52.4334C94.5308 61.3256 79.3042 70 62.6667 70C46.0291 70 30.8025 61.3256 19.5979 52.4334C14.0214 48.0078 9.50416 43.5782 6.38221 40.2555C4.82236 38.5954 3.6138 37.2147 2.79853 36.2533Z" stroke="white" stroke-width="4"/>
<path fill-rule="evenodd" clip-rule="evenodd" d="M79.3333 35.9987C79.3333 45.2034 71.8714 52.6654 62.6667 52.6654C53.4619 52.6654 46 45.2034 46 35.9987C46 26.794 53.4619 19.332 62.6667 19.332C65.5566 19.332 68.2747 20.0676 70.6441 21.3616C71.8589 19.7255 73.8056 18.6654 76 18.6654C79.6819 18.6654 82.6667 21.6501 82.6667 25.332C82.6667 28.0532 81.0364 30.3935 78.6993 31.4296C79.1123 32.8816 79.3333 34.4143 79.3333 35.9987ZM89.3333 35.9987C89.3333 50.7263 77.3943 62.6654 62.6667 62.6654C47.9391 62.6654 36 50.7263 36 35.9987C36 21.2711 47.9391 9.33203 62.6667 9.33203C77.3943 9.33203 89.3333 21.2711 89.3333 35.9987Z" fill="white"/>
</svg>
